<!-- Generator: Adobe Illustrator 22.0.0, SVG Export Plug-In  -->
<svg version="1.1"
	 xmlns="http://www.w3.org/2000/svg" xmlns:xlink="http://www.w3.org/1999/xlink" xmlns:a="http://ns.adobe.com/AdobeSVGViewerExtensions/3.0/"
	 x="0px" y="0px" width="220px" height="220px" viewBox="0 0 220 220" style="enable-background:new 0 0 220 220;"
	 xml:space="preserve">
<style type="text/css">
	.st0{fill-rule:evenodd;clip-rule:evenodd;fill:#FFFFFF;}
	.st1{fill-rule:evenodd;clip-rule:evenodd;fill:#002B7F;}
	.st2{fill-rule:evenodd;clip-rule:evenodd;}
	.st3{fill-rule:evenodd;clip-rule:evenodd;fill:#00529C;}
	.st4{fill-rule:evenodd;clip-rule:evenodd;fill:#FFDE17;}
	.st5{fill-rule:evenodd;clip-rule:evenodd;fill:#E33D3A;}
	.st6{fill-rule:evenodd;clip-rule:evenodd;fill:#FCD15C;}
	.st7{fill-rule:evenodd;clip-rule:evenodd;fill:#CE1126;}
	.st8{font-family:'Campton-BoldDEMO';}
	.st9{font-size:7.0698px;}
</style>
<defs>
</defs>
<rect class="st0" width="220" height="220"/>
<rect x="36.8" y="39" class="st1" width="146.4" height="159.3"/>
<rect x="41.2" y="43.5" class="st0" width="137.6" height="150.5"/>
<path class="st2" d="M67.9,70.2V52.4h-2.5v5.1h-1.3V60h1.3v7.7h-1.3v2.5H67.9z M64.1,57.5h-3.8v12.7h3.8v-2.5h-1.2V60h1.2V57.5z"/>
<polygon class="st2" points="73,70.2 73,60 75.6,60 75.6,70.2 78.1,70.2 78.1,60 80.7,60 80.7,70.2 83.2,70.2 83.2,57.5 70.5,57.5 
	70.5,70.2 "/>
<rect x="85.7" y="52.4" class="st2" width="2.6" height="2.6"/>
<rect x="85.7" y="57.5" class="st2" width="2.6" height="12.7"/>
<polygon class="st2" points="93.4,70.2 93.4,60 96,60 96,70.2 98.6,70.2 98.6,57.5 90.8,57.5 90.8,70.2 "/>
<rect x="101.1" y="52.4" class="st2" width="2.5" height="2.6"/>
<rect x="101.1" y="57.5" class="st2" width="2.5" height="12.7"/>
<polygon class="st2" points="113.8,60 113.8,57.5 108.8,57.5 108.8,57.5 106.3,57.5 106.3,57.5 106.2,57.5 106.2,65.1 111.3,65.1 
	111.3,67.7 106.2,67.7 106.2,70.2 113.8,70.2 113.8,62.6 108.8,62.6 108.8,60 "/>
<polygon class="st2" points="124,60 124,57.5 118.9,57.5 118.9,57.1 118.9,57.1 118.9,52.4 116.4,52.4 116.4,57.1 116.4,57.1 
	116.4,64.8 116.4,64.8 116.4,70.2 124,70.2 124,65.1 121.4,65.1 121.4,67.7 118.9,67.7 118.9,64.8 118.9,64.8 118.9,60 "/>
<polygon class="st2" points="129.1,70.2 129.1,60 131.6,60 131.6,65.1 134.2,65.1 134.2,57.5 126.6,57.5 126.6,70.2 "/>
<rect x="147.6" y="71.9" class="st2" width="2.5" height="2.6"/>
<path class="st2" d="M145,70.2V57.5h-3.8V60h1.2v2.6h-1.2v2.5h1.2v2.6h-1.2v2.5H145z M141.2,57.5h-3.8V60h3.8V57.5L141.2,57.5z
	 M141.2,62.6h-3.8v7.6h3.8v-2.5h-1.3v-2.6h1.3V62.6z"/>
<polygon class="st2" points="155.1,60 155.1,57.5 150.1,57.5 150.1,52.4 147.5,52.4 147.5,55.1 147.5,55.1 147.5,62.8 147.5,62.8 
	147.5,70.2 155.1,70.2 155.1,65.1 152.6,65.1 152.6,67.7 150.1,67.7 150.1,62.6 150.1,62.6 150.1,60 "/>
<rect x="157.4" y="52.4" class="st2" width="2.5" height="2.6"/>
<rect x="157.4" y="57.5" class="st2" width="2.5" height="12.7"/>
<path class="st2" d="M169.8,70.3V57.6h-3.9v2.5h1.3v2.6h-1.3v2.5h1.3v2.5h-1.3v2.6H169.8z M165.9,57.6h-3.8v2.5h3.8V57.6L165.9,57.6
	z M165.9,62.7h-3.8v7.6h3.8v-2.6h-1.2v-2.5h1.2V62.7z"/>
<polygon class="st2" points="54.6,105.4 54.6,96.6 63.5,96.6 63.5,92.1 54.6,92.1 54.6,78.9 59,78.9 59,87.7 63.5,87.7 63.5,74.4 
	50.2,74.4 50.2,105.4 "/>
<rect x="50.2" y="109.8" class="st3" width="13.3" height="4.4"/>
<rect x="67.9" y="74.4" class="st2" width="13.3" height="4.5"/>
<path class="st2" d="M81.2,105.4V83.3h-6.7v4.5h2.2V101h-2.2v4.4H81.2z M74.5,83.3h-6.6v22.1h6.6V101h-2.2V87.7h2.2V83.3z"/>
<rect x="67.9" y="109.8" class="st3" width="13.3" height="4.4"/>
<rect x="85.6" y="74.4" class="st2" width="13.2" height="4.5"/>
<polygon class="st2" points="90.1,105.4 90.1,87.7 94.4,87.7 94.4,105.4 98.8,105.4 98.8,83.3 85.6,83.3 85.6,105.4 "/>
<path class="st2" d="M116.6,105.4v-31h-4.4v8.9h-2.2v4.5h2.2V101h-2.2v4.4H116.6z M109.9,83.3h-6.6v22.1h6.6V101h-2.2V87.7h2.2V83.3
	z"/>
<rect x="103.3" y="74.4" class="st2" width="4.5" height="4.5"/>
<polygon class="st1" points="107.8,114.2 107.8,109.8 104.8,109.8 104.8,109.8 103.3,109.8 103.3,109.8 103.3,109.8 103.3,114.2 "/>
<rect x="121" y="74.4" class="st2" width="13.2" height="4.5"/>
<polygon class="st2" points="134.2,105.4 134.2,83.3 129.8,83.3 129.8,101 125.4,101 125.4,83.3 121,83.3 121,105.4 "/>
<polygon class="st1" points="120.2,114.2 120.2,114.2 125.4,114.2 125.4,109.8 117.6,109.8 117.6,109.8 112.2,109.8 112.2,114.2 "/>
<rect x="138.7" y="74.4" class="st2" width="4.5" height="31"/>
<rect x="156.4" y="74.4" class="st2" width="4.4" height="4.4"/>
<rect x="165.2" y="74.3" class="st2" width="4.5" height="4.5"/>
<polygon class="st2" points="160.8,105.4 160.8,83.3 156.4,83.3 156.4,101 152,101 152,83.3 147.6,83.3 147.6,105.4 "/>
<rect x="147.6" y="109.8" class="st3" width="13.2" height="4.4"/>
<rect x="147.6" y="74.5" class="st2" width="13.2" height="4.4"/>
<rect x="165.3" y="83.3" class="st2" width="4.4" height="22.1"/>
<rect x="165.3" y="109.8" class="st3" width="4.4" height="4.4"/>
<rect x="50.2" y="109.8" class="st1" width="13.3" height="4.5"/>
<polygon class="st2" points="63.5,140.7 63.5,136.3 54.6,136.3 54.6,123.1 63.5,123.1 63.5,118.6 50.2,118.6 50.2,140.7 "/>
<rect x="50.2" y="145.2" class="st4" width="13.3" height="4.4"/>
<rect x="50.2" y="180.5" class="st5" width="13.3" height="4.5"/>
<rect x="67.9" y="109.8" class="st1" width="13.3" height="4.5"/>
<polygon class="st2" points="81.2,140.7 81.2,118.6 76.7,118.6 76.7,136.3 72.3,136.3 72.3,118.6 67.9,118.6 67.9,140.7 "/>
<rect x="67.9" y="145.2" class="st4" width="13.3" height="4.4"/>
<rect x="67.9" y="180.5" class="st5" width="13.3" height="4.5"/>
<path class="st2" d="M90.1,149.6v-4.4h-4.5v4.4H90.1L90.1,149.6z M90.1,140.7v-31h-4.5v31H90.1z"/>
<polygon class="st2" points="125.4,140.7 125.4,118.6 121,118.6 121,136.3 116.6,136.3 116.6,118.6 112.2,118.6 112.2,140.7 "/>
<rect x="112.2" y="145.2" class="st4" width="13.2" height="4.4"/>
<rect x="112.2" y="180.5" class="st5" width="13.2" height="4.5"/>
<polygon class="st2" points="134.3,140.7 134.3,123.1 138.7,123.1 138.7,131.9 143.1,131.9 143.1,118.6 129.9,118.6 129.9,140.7 "/>
<rect x="131.6" y="67.7" class="st2" width="2.6" height="2.5"/>
<rect x="59" y="101" class="st1" width="4.5" height="4.4"/>
<rect x="59" y="127.5" class="st6" width="4.5" height="4.5"/>
<rect x="138.7" y="136.3" class="st6" width="4.5" height="4.4"/>
<rect x="129.9" y="145.2" class="st4" width="13.2" height="4.4"/>
<rect x="129.9" y="180.5" class="st5" width="13.2" height="4.5"/>
<rect x="147.6" y="109.8" class="st1" width="13.2" height="4.5"/>
<rect x="129.9" y="109.8" class="st1" width="13.2" height="4.5"/>
<path class="st2" d="M160.8,140.7v-22.1h-6.6v4.5h2.2v4.4h-2.2v4.5h2.2v4.4h-2.2v4.4H160.8z M154.2,118.6h-6.6v4.5h6.6V118.6
	L154.2,118.6z M154.2,127.5h-6.6v13.2h6.6v-4.4H152v-4.4h2.2V127.5z"/>
<rect x="147.6" y="145.2" class="st4" width="13.2" height="4.4"/>
<rect x="147.6" y="180.5" class="st5" width="13.2" height="4.5"/>
<path class="st2" d="M169.7,149.6v-4.4h-4.4v4.4H169.7L169.7,149.6z M169.7,140.7v-31h-4.4v31H169.7z"/>
<rect x="50.2" y="145.2" class="st6" width="13.3" height="4.4"/>
<rect x="50.2" y="180.5" class="st7" width="13.3" height="4.5"/>
<polygon class="st2" points="54.6,176.2 54.6,158.4 59,158.4 59,176.2 63.5,176.2 63.5,154 50.2,154 50.2,176.2 "/>
<rect x="67.9" y="145.2" class="st6" width="13.3" height="4.4"/>
<rect x="67.9" y="180.5" class="st7" width="13.3" height="4.5"/>
<path class="st2" d="M81.2,176.2V154h-6.7v4.4h2.2v4.5h-2.2v4.4h2.2v4.4h-2.2v4.5H81.2z M74.5,154h-6.6v4.4h6.6V154L74.5,154z
	 M74.5,162.9h-6.6v13.2h6.6v-4.5h-2.2v-4.4h2.2V162.9z"/>
<rect x="94.4" y="145.2" class="st6" width="4.4" height="4.4"/>
<rect x="94.4" y="180.5" class="st7" width="4.4" height="4.5"/>
<rect x="85.6" y="180.5" class="st2" width="4.4" height="4.5"/>
<rect x="103.3" y="145.2" class="st2" width="4.5" height="4.4"/>
<rect x="103.3" y="180.5" class="st7" width="4.5" height="4.5"/>
<rect x="165.3" y="180.5" class="st7" width="4.4" height="4.5"/>
<rect x="103.3" y="154" class="st2" width="4.5" height="22.1"/>
<rect x="112.2" y="145.2" class="st6" width="13.2" height="4.4"/>
<rect x="112.2" y="180.5" class="st7" width="13.2" height="4.5"/>
<path class="st2" d="M125.4,176.2V154h-6.6v4.4h2.2v13.2h-2.2v4.5H125.4z M118.9,154h-6.6v22.1h6.6v-4.5h-2.2v-13.2h2.2V154z"/>
<rect x="129.9" y="145.2" class="st6" width="13.2" height="4.4"/>
<rect x="129.9" y="180.5" class="st7" width="13.2" height="4.5"/>
<polygon class="st2" points="134.3,176.2 134.3,158.4 138.7,158.4 138.7,176.2 143.1,176.2 143.1,154 129.9,154 129.9,176.2 "/>
<rect x="147.6" y="145.2" class="st6" width="13.2" height="4.4"/>
<rect x="147.6" y="180.5" class="st7" width="13.2" height="4.5"/>
<path class="st2" d="M160.8,176.2V154h-6.6v4.4h2.2v4.5h-2.2v4.4h2.2v4.4h-2.2v4.5H160.8z M154.2,154h-6.6v4.4h6.6V154L154.2,154z
	 M154.2,162.9h-6.6v13.2h6.6v-4.5H152v-4.4h2.2V162.9z"/>
<rect x="165.3" y="145.2" class="st2" width="4.4" height="31"/>
<polygon class="st2" points="98.9,127.5 98.9,123.1 107.8,123.1 107.8,118.6 98.9,118.6 98.9,116.4 98.9,109.8 94.5,109.8 
	94.5,116.4 94.5,123.1 94.5,127.5 94.5,130.4 94.5,140.7 107.8,140.7 107.8,131.9 103.4,131.9 103.4,136.3 98.9,136.3 98.9,130.4 
	"/>
<polygon class="st2" points="98.8,158.4 98.8,154 90.1,154 90.1,145.2 85.6,145.2 85.6,152.9 85.6,158.4 85.6,162.9 85.6,168.8 
	85.6,176.2 98.8,176.2 98.8,167.3 94.4,167.3 94.4,171.7 90.1,171.7 90.1,162.9 90,162.9 90,158.4 "/>
<path class="st2" d="M53.8,54.9h1.3v7.7h-1.3v2.5h1.3v2.6v2.5h2.6V54.9v-2.5l0,0h-3.9V54.9z M52.5,62.6v-7.7h1.3v-2.5h-3.7l0,0l0,0
	v5.1v8.4v4.4h2.5v-2.5v-2.6h1.2v-2.5H52.5z"/>
<g>
	<text transform="matrix(1 0 0 1 147.6359 30.0181)" class="st8 st9">,</text>
	<g>
		<path d="M36.8,21.8h2.5c0.8,0,1.4,0.2,1.9,0.6c0.5,0.4,0.7,1,0.7,1.7c0,0.7-0.2,1.3-0.7,1.7c-0.5,0.4-1.2,0.6-2,0.6h-0.8V28h-1.5
			V21.8z M38.3,25.1h0.9c0.3,0,0.6-0.1,0.8-0.3c0.2-0.2,0.3-0.4,0.3-0.7c0-0.3-0.1-0.5-0.3-0.7c-0.2-0.2-0.5-0.2-0.8-0.2h-0.9V25.1z
			"/>
		<path d="M45.7,26.2h-1V28h-1.5v-6.2H46c0.8,0,1.4,0.2,1.9,0.6c0.5,0.4,0.7,0.9,0.7,1.6c0,0.4-0.1,0.8-0.3,1.1
			c-0.2,0.3-0.5,0.6-0.9,0.8l1.6,2.1h-1.9L45.7,26.2z M44.8,24.8h1.1c0.3,0,0.6-0.1,0.8-0.2c0.2-0.2,0.3-0.4,0.3-0.6
			c0-0.2-0.1-0.4-0.3-0.6c-0.2-0.2-0.5-0.2-0.8-0.2h-1.1V24.8z"/>
		<path d="M53.2,21.7c0.9,0,1.7,0.3,2.3,0.9c0.6,0.6,0.9,1.4,0.9,2.3c0,0.9-0.3,1.7-0.9,2.3c-0.6,0.6-1.4,0.9-2.3,0.9
			c-0.9,0-1.7-0.3-2.3-0.9c-0.6-0.6-0.9-1.4-0.9-2.3c0-0.9,0.3-1.7,0.9-2.3C51.5,22,52.2,21.7,53.2,21.7z M51.9,26.2
			c0.3,0.3,0.7,0.5,1.2,0.5c0.5,0,0.9-0.2,1.2-0.5c0.3-0.3,0.5-0.8,0.5-1.3c0-0.5-0.2-0.9-0.5-1.3c-0.3-0.3-0.7-0.5-1.2-0.5
			c-0.5,0-0.9,0.2-1.2,0.5c-0.3,0.3-0.5,0.8-0.5,1.3C51.5,25.4,51.6,25.8,51.9,26.2z"/>
		<path d="M64.4,24.5V28h-1.1l-0.1-0.7c-0.5,0.6-1.1,0.9-2,0.9c-1,0-1.7-0.3-2.4-0.9C58.3,26.6,58,25.9,58,25c0-1,0.3-1.7,0.9-2.4
			c0.6-0.6,1.4-0.9,2.4-0.9c0.8,0,1.5,0.2,2,0.6c0.6,0.4,0.9,1,1.1,1.7h-1.6c-0.2-0.6-0.7-0.9-1.4-0.9c-0.5,0-1,0.2-1.3,0.5
			c-0.3,0.3-0.5,0.8-0.5,1.3c0,0.5,0.2,0.9,0.5,1.3c0.3,0.3,0.8,0.5,1.3,0.5c0.7,0,1.2-0.3,1.6-0.9l-1.8,0v-1.2H64.4z"/>
		<path d="M68.9,26.2h-1V28h-1.5v-6.2h2.7c0.8,0,1.4,0.2,1.9,0.6c0.5,0.4,0.7,0.9,0.7,1.6c0,0.4-0.1,0.8-0.3,1.1
			c-0.2,0.3-0.5,0.6-0.9,0.8l1.6,2.1h-1.9L68.9,26.2z M67.9,24.8H69c0.3,0,0.6-0.1,0.8-0.2c0.2-0.2,0.3-0.4,0.3-0.6
			c0-0.2-0.1-0.4-0.3-0.6c-0.2-0.2-0.5-0.2-0.8-0.2h-1.1V24.8z"/>
		<path d="M77.7,26.9h-2.6L74.7,28H73l2.6-6.2h1.5l2.6,6.2h-1.6L77.7,26.9z M77.2,25.6l-0.8-2.1l-0.8,2.1H77.2z"/>
		<path d="M87.8,21.8V28h-1.5v-3.1L84.9,27v0H84v0l-1.4-2.1l0,3.1h-1.5v-6.2h1.1l2.2,3.3l2.2-3.3H87.8z"/>
		<path d="M95.5,26.7c0.4,0,0.7-0.1,1-0.3c0.3-0.2,0.4-0.5,0.5-0.9h1.6c-0.1,0.8-0.4,1.5-1,2c-0.6,0.5-1.3,0.7-2.1,0.7
			c-0.9,0-1.7-0.3-2.3-0.9c-0.6-0.6-0.9-1.4-0.9-2.3c0-0.9,0.3-1.7,0.9-2.3c0.6-0.6,1.4-0.9,2.3-0.9c0.8,0,1.5,0.2,2.1,0.7
			c0.6,0.5,0.9,1.1,1,2H97c-0.1-0.4-0.3-0.7-0.5-0.9c-0.3-0.2-0.6-0.3-1-0.3c-0.5,0-0.9,0.2-1.2,0.5c-0.3,0.3-0.5,0.8-0.5,1.3
			c0,0.5,0.2,0.9,0.5,1.3C94.5,26.5,95,26.7,95.5,26.7z"/>
		<path d="M103.4,21.7c0.9,0,1.7,0.3,2.3,0.9c0.6,0.6,0.9,1.4,0.9,2.3c0,0.9-0.3,1.7-0.9,2.3c-0.6,0.6-1.4,0.9-2.3,0.9
			c-0.9,0-1.7-0.3-2.3-0.9c-0.6-0.6-0.9-1.4-0.9-2.3c0-0.9,0.3-1.7,0.9-2.3C101.7,22,102.4,21.7,103.4,21.7z M102.1,26.2
			c0.3,0.3,0.7,0.5,1.2,0.5c0.5,0,0.9-0.2,1.2-0.5c0.3-0.3,0.5-0.8,0.5-1.3c0-0.5-0.2-0.9-0.5-1.3c-0.3-0.3-0.7-0.5-1.2-0.5
			c-0.5,0-0.9,0.2-1.2,0.5c-0.3,0.3-0.5,0.8-0.5,1.3C101.6,25.4,101.8,25.8,102.1,26.2z"/>
		<path d="M108.6,26.3v-1.4h3.3v1.4H108.6z"/>
		<path d="M115.6,23.2v1.3h2.7v1.3h-2.7V28h-1.5v-6.2h4.6v1.4H115.6z"/>
		<path d="M121.6,21.8V28h-1.5v-6.2H121.6z"/>
		<path d="M129.1,21.8V28h-1.2l-3-3.4V28h-1.5v-6.2h1.2l3,3.5v-3.5H129.1z"/>
		<path d="M135.2,26.9h-2.6l-0.4,1.1h-1.6l2.6-6.2h1.5l2.6,6.2h-1.6L135.2,26.9z M134.6,25.6l-0.8-2.1l-0.8,2.1H134.6z"/>
		<path d="M144.3,21.8V28h-1.2l-3-3.4V28h-1.5v-6.2h1.2l3,3.5v-3.5H144.3z"/>
		<path d="M151.2,23.2h-2V28h-1.5v-4.8h-2v-1.4h5.5V23.2z"/>
		<path d="M155.9,26.9h-2.6l-0.4,1.1h-1.6l2.6-6.2h1.5l2.6,6.2h-1.6L155.9,26.9z M155.4,25.6l-0.8-2.1l-0.8,2.1H155.4z"/>
		<path d="M163.4,23.2h-2V28h-1.5v-4.8h-2v-1.4h5.5V23.2z"/>
		<path d="M168,21.8h2.5c1,0,1.8,0.3,2.4,0.9c0.6,0.6,0.9,1.3,0.9,2.2c0,0.9-0.3,1.7-0.9,2.2c-0.6,0.6-1.4,0.9-2.4,0.9H168V21.8z
			 M169.5,26.6h1c0.5,0,0.9-0.2,1.3-0.5s0.5-0.7,0.5-1.2c0-0.5-0.2-0.9-0.5-1.2c-0.3-0.3-0.8-0.5-1.3-0.5h-1V26.6z"/>
		<path d="M176.9,23.1v1.1h2.7v1.3h-2.7v1.1h3.1V28h-4.7v-6.2h4.7v1.3H176.9z"/>
	</g>
	<g>
		<path d="M182.4,25.7c-0.2,0-0.4,0.1-0.6,0.2c-0.2,0.1-0.3,0.4-0.3,0.6c0,0.2,0.1,0.4,0.3,0.6c0.1,0.1,0.4,0.2,0.6,0.2
			c0.2,0,0.4-0.1,0.6-0.2s0.2-0.4,0.2-0.6c0-0.2-0.1-0.4-0.2-0.6C182.8,25.7,182.6,25.7,182.4,25.7z"/>
		<path d="M182.4,24.1c0.2,0,0.4-0.1,0.6-0.2s0.2-0.4,0.2-0.6c0-0.2-0.1-0.4-0.2-0.6c-0.1-0.1-0.4-0.2-0.6-0.2
			c-0.2,0-0.4,0.1-0.6,0.2c-0.2,0.1-0.3,0.4-0.3,0.6c0,0.2,0.1,0.4,0.3,0.6C182,24.1,182.2,24.1,182.4,24.1z"/>
	</g>
</g>
</svg>
