<!-- Generator: Adobe Illustrator 22.0.0, SVG Export Plug-In  -->
<svg version="1.1"
	 xmlns="http://www.w3.org/2000/svg" xmlns:xlink="http://www.w3.org/1999/xlink" xmlns:a="http://ns.adobe.com/AdobeSVGViewerExtensions/3.0/"
	 x="0px" y="0px" width="177px" height="244px" viewBox="0 0 177 244" style="enable-background:new 0 0 177 244;"
	 xml:space="preserve">
<style type="text/css">
	.st0{fill:#565555;}
</style>
<defs>
</defs>
<g>
	<path class="st0" d="M39.1,32.7C50.2,17.4,68.2,7.6,88.5,7.6c20.6,0,38.8,10.2,49.9,25.9l6.4-4C132.4,11.6,111.8,0,88.5,0
		c-23,0-43.3,11.3-55.8,28.7L39.1,32.7z"/>
	<g>
		<g>
			<path class="st0" d="M81.7,129.4c-30.6-3.4-54.3-29.3-54.3-60.7c0-8.6,1.8-16.8,5-24.2l-6.5-4C22,49,19.8,58.6,19.8,68.7
				c0,35.6,27.1,64.9,61.9,68.3V129.4z"/>
			<path class="st0" d="M151.4,41.3l-6.5,4.1c3,7.2,4.6,15.1,4.6,23.4c0,31.5-23.8,57.4-54.3,60.7v7.6c34.7-3.4,61.9-32.7,61.9-68.3
				C157.2,58.9,155.1,49.7,151.4,41.3z"/>
		</g>
	</g>
</g>
<g>
	<path class="st0" d="M28.1,177c-0.6,0.4-1.2,0.7-1.9,1c-1.5,0.6-3,0.9-4.6,0.9c-1.6,0-3.2-0.3-4.6-0.9c-1.4-0.6-2.7-1.5-3.8-2.6
		s-2-2.3-2.6-3.8c-0.6-1.4-0.9-3-0.9-4.6s0.3-3.2,0.9-4.6c0.6-1.4,1.5-2.7,2.6-3.8s2.3-2,3.8-2.5c1.4-0.6,3-0.9,4.6-0.9
		c1.6,0,3.2,0.3,4.6,0.9c0.2,0.1,0.4,0.2,0.5,0.2v4.4c-1.4-1.2-3.2-1.8-5.2-1.8c-2.2,0-4.2,0.8-5.8,2.4c-1.5,1.5-2.4,3.6-2.4,5.8
		s0.9,4.2,2.4,5.8c1.5,1.5,3.6,2.4,5.8,2.4s4.2-0.9,5.8-2.4c0.3-0.3,0.5-0.6,0.8-0.9V177z"/>
	<path class="st0" d="M39.3,164.8H48v3.4h-8.7v7.4h10.5v3.4H39.2h-3.7v-23.7h3.7h10.6v3.3H39.3V164.8z"/>
	<path class="st0" d="M61.1,163.6v15.3h-3.7V154l14.9,16.4v-15.2H76V180L61.1,163.6z"/>
	<path class="st0" d="M99.5,158.5h-6.5v20.4h-3.7v-20.4h-6.5v-3.3h16.8V158.5z"/>
	<path class="st0" d="M122.7,178.9h-4.2l-6-8h-2.7v8h-3.7v-23.7h3.1h3.9c3.1,0,5,1.3,5.9,2.4c1.2,1.4,1.9,3.3,1.9,5.5
		c0,2.2-0.7,4.1-1.9,5.5c-0.6,0.6-1.5,1.4-2.8,1.8L122.7,178.9z M113.1,167.5c1.5,0,2.7-0.4,3.4-1.3c0.9-1,1.1-2.3,1.1-3.2
		c0-1-0.2-2.3-1.1-3.3c-0.7-0.8-1.9-1.2-3.4-1.2h-3.3v9H113.1z"/>
	<path class="st0" d="M131,177c-0.9-0.7-1.6-1.6-2.1-2.6c-0.5-1.1-0.8-2.3-0.8-3.6v-15.7h3.7v15.7c0,1.4,0.5,2.5,1.5,3.2
		c0.9,0.7,2.2,1.1,3.6,1.1c1.4,0,2.7-0.4,3.6-1.1c1-0.7,1.4-1.8,1.4-3.2v-15.7h3.7v15.7c0,1.3-0.3,2.5-0.8,3.6
		c-0.5,1-1.2,1.9-2.1,2.6c-1.6,1.2-3.6,1.9-5.9,1.9S132.6,178.2,131,177z"/>
	<path class="st0" d="M167.2,178.9h-10h-3.7v-23.7h3.7v20.4h9.9V178.9z"/>
	<path class="st0" d="M18.4,209c-0.6,0.4-1.2,0.7-1.9,1c-1.5,0.6-3,0.9-4.6,0.9s-3.2-0.3-4.6-0.9c-1.4-0.6-2.7-1.5-3.8-2.6
		s-2-2.3-2.6-3.8c-0.6-1.4-0.9-3-0.9-4.6s0.3-3.2,0.9-4.6c0.6-1.4,1.5-2.7,2.6-3.8s2.3-2,3.8-2.5c1.4-0.6,3-0.9,4.6-0.9
		s3.2,0.3,4.6,0.9c0.2,0.1,0.4,0.2,0.5,0.2v4.4c-1.4-1.2-3.2-1.8-5.2-1.8c-2.2,0-4.2,0.8-5.8,2.4c-1.5,1.5-2.4,3.6-2.4,5.8
		s0.9,4.2,2.4,5.8c1.5,1.5,3.6,2.4,5.8,2.4s4.2-0.9,5.8-2.4c0.3-0.3,0.5-0.6,0.8-0.9V209z"/>
	<path class="st0" d="M27.8,209c-0.9-0.7-1.6-1.6-2.1-2.6c-0.5-1.1-0.8-2.3-0.8-3.6v-15.7h3.7v15.7c0,1.4,0.5,2.5,1.5,3.2
		c0.9,0.7,2.2,1.1,3.6,1.1c1.4,0,2.7-0.4,3.6-1.1c1-0.7,1.4-1.8,1.4-3.2v-15.7h3.7v15.7c0,1.3-0.3,2.5-0.8,3.6
		c-0.5,1-1.2,1.9-2.1,2.6c-1.6,1.2-3.6,1.9-5.9,1.9S29.3,210.2,27.8,209z"/>
	<path class="st0" d="M64,210.9h-10h-3.7v-23.7h3.7v20.4H64V210.9z"/>
	<path class="st0" d="M83,190.5h-6.5v20.4h-3.7v-20.4h-6.5v-3.3H83V190.5z"/>
	<path class="st0" d="M92.3,209c-0.9-0.7-1.6-1.6-2.1-2.6c-0.5-1.1-0.8-2.3-0.8-3.6v-15.7h3.7v15.7c0,1.4,0.5,2.5,1.5,3.2
		c0.9,0.7,2.2,1.1,3.6,1.1c1.4,0,2.7-0.4,3.6-1.1c1-0.7,1.4-1.8,1.4-3.2v-15.7h3.7v15.7c0,1.3-0.3,2.5-0.8,3.6
		c-0.5,1-1.2,1.9-2.1,2.6c-1.6,1.2-3.6,1.9-5.9,1.9C95.9,210.9,93.9,210.2,92.3,209z"/>
	<path class="st0" d="M131.5,210.9h-4.2l-6-8h-2.7v8h-3.7v-23.7h3.1h3.9c3.1,0,5,1.3,5.9,2.4c1.2,1.4,1.9,3.3,1.9,5.5
		c0,2.2-0.7,4.1-1.9,5.5c-0.6,0.6-1.5,1.4-2.8,1.8L131.5,210.9z M122,199.5c1.5,0,2.7-0.4,3.4-1.3c0.9-1,1.1-2.3,1.1-3.2
		c0-1-0.2-2.3-1.1-3.3c-0.7-0.8-1.9-1.2-3.4-1.2h-3.3v9H122z"/>
	<path class="st0" d="M151,205.8h-8.4l-2,5.1h-4.1l10.3-24.8l10.3,24.8H153L151,205.8z M149.7,202.5l-2.9-7.2l-2.9,7.2H149.7z"/>
	<path class="st0" d="M177,210.9h-10h-3.7v-23.7h3.7v20.4h9.9V210.9z"/>
	<path class="st0" d="M29.2,241c-0.6,0.4-1.2,0.7-1.9,1c-1.5,0.6-3,0.9-4.6,0.9c-1.6,0-3.2-0.3-4.6-0.9c-1.4-0.6-2.7-1.5-3.8-2.6
		s-2-2.3-2.6-3.8c-0.6-1.4-0.9-3-0.9-4.6s0.3-3.2,0.9-4.6c0.6-1.4,1.5-2.7,2.6-3.8s2.3-2,3.8-2.5c1.4-0.6,3-0.9,4.6-0.9
		c1.6,0,3.2,0.3,4.6,0.9c0.2,0.1,0.4,0.2,0.5,0.2v4.4c-1.4-1.2-3.2-1.8-5.2-1.8c-2.2,0-4.2,0.8-5.8,2.4c-1.5,1.5-2.4,3.6-2.4,5.8
		s0.9,4.2,2.4,5.8c1.5,1.5,3.6,2.4,5.8,2.4s4.2-0.9,5.8-2.4c0.3-0.3,0.5-0.6,0.8-0.9V241z"/>
	<path class="st0" d="M50.2,242.9h-10h-3.7v-23.7h3.7v20.4h9.9V242.9z"/>
	<path class="st0" d="M58.8,241c-0.9-0.7-1.6-1.6-2.1-2.6c-0.5-1.1-0.8-2.3-0.8-3.6v-15.7h3.7v15.7c0,1.4,0.5,2.5,1.5,3.2
		c0.9,0.7,2.2,1.1,3.6,1.1c1.4,0,2.7-0.4,3.6-1.1c1-0.7,1.4-1.8,1.4-3.2v-15.7h3.7v15.7c0,1.3-0.3,2.5-0.8,3.6
		c-0.5,1-1.2,1.9-2.1,2.6c-1.6,1.2-3.6,1.9-5.9,1.9S60.4,242.2,58.8,241z"/>
	<path class="st0" d="M90.2,234.8c0,3.2-1.5,5.1-2.7,6.1c-1.5,1.2-3.5,1.9-5.8,1.9c-0.5,0-1,0-1.5-0.1V239c0.5,0.1,1,0.2,1.5,0.2
		c1.4,0,2.6-0.4,3.4-1.1c0.9-0.7,1.3-1.9,1.3-3.3v-15.7h3.7V234.8z"/>
	<path class="st0" d="M101.8,228.8h8.7v3.4h-8.7v7.4h10.5v3.4h-10.6h-3.7v-23.7h3.7h10.6v3.3h-10.5V228.8z"/>
	<path class="st0" d="M132.8,237.8h-8.4l-2,5.1h-4.1l10.3-24.8l10.3,24.8h-4.1L132.8,237.8z M131.4,234.5l-2.9-7.2l-2.9,7.2H131.4z"
		/>
	<path class="st0" d="M149.1,227.6v15.3h-3.7V218l14.9,16.4v-15.2h3.7V244L149.1,227.6z"/>
</g>
</svg>
