<!-- Generator: Adobe Illustrator 22.0.0, SVG Export Plug-In  -->
<svg version="1.1"
	 xmlns="http://www.w3.org/2000/svg" xmlns:xlink="http://www.w3.org/1999/xlink" xmlns:a="http://ns.adobe.com/AdobeSVGViewerExtensions/3.0/"
	 x="0px" y="0px" width="774.6px" height="792.3px" viewBox="0 0 774.6 792.3" style="enable-background:new 0 0 774.6 792.3;"
	 xml:space="preserve">
<style type="text/css">
	.st0{fill-rule:evenodd;clip-rule:evenodd;}
	.st1{fill-rule:evenodd;clip-rule:evenodd;fill:#FFCA05;}
	.st2{fill-rule:evenodd;clip-rule:evenodd;fill:#FFFFFF;}
	.st3{fill-rule:evenodd;clip-rule:evenodd;fill:#1A1A1A;}
	.st4{fill-rule:evenodd;clip-rule:evenodd;fill:#0D0D0D;}
	.st5{fill:#FFFFFF;}
	.st6{fill-rule:evenodd;clip-rule:evenodd;fill:#F2F2F2;}
	.st7{fill:#231F20;}
	.st8{font-family:'MyriadPro-Bold';}
	.st9{font-size:63.6913px;}
</style>
<defs>
</defs>
<g>
	<g>
		<path class="st0" d="M387.3,0C593.6,0,761,167.3,761,373.7c0,53.7-11.4,104.8-31.8,151h-8.8c20.9-46,32.5-97.1,32.5-151
			c0-201.9-163.7-365.6-365.6-365.6C185.4,8.1,21.7,171.8,21.7,373.7c0,53.8,11.6,104.9,32.5,151h-8.8
			c-20.4-46.2-31.8-97.2-31.8-151C13.6,167.3,181,0,387.3,0z"/>
		<path class="st0" d="M387.3,30.8c189.3,0,342.9,153.5,342.9,342.9c0,54.2-12.6,105.4-35,151H79.4c-22.4-45.6-35-96.8-35-151
			C44.4,184.3,198,30.8,387.3,30.8z"/>
		<path class="st1" d="M387.3,49.1c179.2,0,324.6,145.4,324.6,324.6c0,54.5-13.5,105.9-37.2,151H99.9c-23.7-45.1-37.2-96.5-37.2-151
			C62.7,194.4,208,49.1,387.3,49.1z"/>
		<path class="st2" d="M387.3,53.5l9.4,170.3L427.4,56l-12,170.1l51.5-162.6l-33.2,167.3l71.5-154.9l-53.9,161.8l90.3-144.7
			l-73.8,153.8l107.7-132.2L483,257.9l123.5-117.7L496.8,270.8L634,169.6L508.8,285.4l148.8-83.3l-138.7,99.2l158.1-64l-150.1,81
			l164.9-43.7l-159.1,61.6l169.1-22.6l-165.5,41.2l170.6-1.3l-169.4,20.1l169.4,20.1l-170.6-1.3l165.5,41.2L532.8,411l159.1,61.6
			L526.9,429L677,510l-158.1-64l109.9,78.6h-8l-112-62.7l67.8,62.7H562l-65.2-48.1l40.4,48.1H520l-37-35.2l22.7,35.2h-18.3
			l-19.7-24.1l10.1,21c-21.9-25.5-54.3-41.6-90.5-41.6c-36.2,0-68.7,16.1-90.6,41.6l10.1-21l-19.7,24.1h-18.3l22.7-35.2l-37,35.2
			h-17.2l40.4-48.1l-65.2,48.1H198l67.8-62.7l-112,62.7h-8L255.7,446L97.6,510l150.1-81L82.8,472.6L241.8,411L72.8,433.7l165.5-41.2
			l-170.6,1.3l169.4-20.1L67.7,353.6l170.6,1.3L72.8,313.7l169.1,22.6L82.8,274.7l164.9,43.7l-150.1-81l158.1,64l-138.7-99.2
			l148.8,83.3L140.6,169.6l137.2,101.3L168.1,140.2l123.5,117.7l-92.5-143.3l107.7,132.2L233,93.1l90.3,144.7L269.4,75.9l71.5,154.9
			L307.7,63.5l51.5,162.6L347.2,56l30.7,167.8L387.3,53.5z"/>
		<path class="st0" d="M289.6,211.3L267,141.4l50.1,0l0.1,0.3l140.1-0.1l0.1-0.3l50.1,0l-22.5,69.9l0,19.7l-7.7,0l0.1,179.1
			c2.8,1.3,5.5,2.7,8.2,4.1l-0.1-0.1l16-107.8l-6.2-0.9l2.9-19.6l-3.3,0l-9.1-55l37.1,5.5l0.1,0.2l94.6,14.1l0.1-0.2l37.1,5.5
			L630,305.6l-3.2-0.9l-2.9,19.6l-6.2-0.9l-29.9,201.2h-42.9l19.2-7.9c-8.1-17.5-18.8-33.6-31.5-47.8L520.4,481v43.6h-40
			c-21.9-27.3-55.5-44.8-93.2-44.8c-37.7,0-71.3,17.5-93.2,44.8h-32.6v-36.4l-19.1-19.1c-12.7,14.2-23.3,30.3-31.4,47.8l18.6,7.7
			h-42.8l-29.9-201.2l-6.2,0.9l-2.9-19.6l-3.2,0.9l-24.8-49.9l37.1-5.5l0.1,0.2l94.6-14.1l0.1-0.2l37.1-5.5l-9.1,55l-3.3,0l2.9,19.6
			l-6.2,0.9l16.1,108.1c2.8-1.5,5.5-2.9,8.4-4.2L297.3,231l-7.7,0L289.6,211.3L289.6,211.3z M477.5,426.1L477.5,426.1
			c-2.3-1.2-4.6-2.3-6.9-3.4l-21.1,51.1h47.8l20-20C505.3,442.9,492,433.6,477.5,426.1L477.5,426.1z M450.7,414.6
			c-1.6-0.6-3.3-1.1-4.9-1.6l-0.1,0l-0.5-0.2l-0.8-0.2l-0.6-0.2l-0.2-0.1l-0.7-0.2l-0.1,0l-0.8-0.2l-0.1,0l-0.7-0.2l-0.8-0.2
			l-0.7-0.2l-0.2,0c-13.3-3.7-27.1-6-41.4-6.7l0,57.6c10.5,0.8,20.7,2.8,30.4,5.9L450.7,414.6L450.7,414.6z M337,410.8l-0.4,0.1
			l-0.6,0.2l-0.8,0.2l-0.8,0.2l-0.8,0.2l-0.6,0.2l-0.2,0.1l-0.8,0.2l0,0l-0.8,0.2l-0.1,0l-0.7,0.2l-0.8,0.2l-0.4,0.1l-0.4,0.1
			l-0.8,0.3l-0.2,0.1l-0.6,0.2l-0.8,0.3l0,0l-0.8,0.3l-0.2,0.1l-0.6,0.2l-0.8,0.3l22.1,53.3c9.8-3.1,20-5.1,30.6-5.9l0-57.6
			C363.1,405.2,349.8,407.3,337,410.8L337,410.8z M304.2,422.9c-2.3,1.1-4.5,2.2-6.8,3.4v0c-14.4,7.6-27.8,16.9-39.9,27.7l19.8,19.8
			h47.9L304.2,422.9L304.2,422.9z M497.7,421c0.4,0.2,0.7,0.4,1.1,0.7C498.5,421.4,498.1,421.2,497.7,421z"/>
		<path class="st2" d="M176.2,374l2.5,16.8l31.2-4.6l-2.5-16.8L176.2,374L176.2,374z M598.4,374l-2.5,16.8l-31.2-4.6l2.5-16.8
			L598.4,374L598.4,374z M618.1,303.3l-111-16.5l-1.6,11l111,16.5L618.1,303.3L618.1,303.3z M564.6,281.7l-6.7,4.5l-4.5-6.6l-5,5.2
			l-4.7-6.7l-7,6.4l-5.5-8.3l-3.8,6.2l-4.6-6.7l-4.6,5.6l-5.4-6.3l-1.4,5.6l-3.8-3.8l-4.9-0.1l-5.9-35.6l19.3,2.9l5.1,18.2l9.2,1.4
			l-1.2-17.4l33.4,5l-1.5,17.5l10.9,1.6l3.7-17.2l33.4,5l-6.2,16.3l9.2,1.4l10.2-16l19.3,2.9l-16,32.4l-4.7-1.4l-4.8,2.5l0.3-5.8
			l-7,4.4l-2.8-6.7l-6.4,5.1l-1.9-7.1l-7.7,6.4l-4.8-8.2l-6.5,5.1l-3.3-6.4l-6.2,5L564.6,281.7L564.6,281.7z M609.2,320.7l-19.3-2.9
			l-3.3,22.2l19.3,2.9L609.2,320.7L609.2,320.7z M585.2,317.2l-18.9-2.8l-3.3,22.2l18.9,2.8L585.2,317.2L585.2,317.2z M561.6,313.7
			l-3.3,22.2l-17.7-2.6l3.3-22.2L561.6,313.7L561.6,313.7z M537,310l-3.3,22.2l-12.8-1.9l3.3-22.2L537,310L537,310z M519.5,307.4
			l-3.3,22.2l-8.9-1.3l3.3-22.2L519.5,307.4L519.5,307.4z M506.3,335l-2.7,18l34,5.1c0.8-3.8,3.1-6.9,6.2-9l1.2-8.3L506.3,335
			L506.3,335z M502.6,359.8l-2.5,16.8l2.4,0.4l2.5-16.8L502.6,359.8L502.6,359.8z M499.1,383.3l-2.2,14.6l84.9,12.6l2.2-14.6
			l-20.3-3l-2,13.5l-30.6-4.5l2-13.5L499.1,383.3L499.1,383.3z M495.9,404.6l2.8,0.4l-1.9,12.5l-2.8-0.4L495.9,404.6L495.9,404.6z
			 M506.1,426.4l0.1-0.6l-1.2-0.2L506.1,426.4L506.1,426.4z M577.5,511.3l0.4,0.1l3-20.1l-15.4-2.3c0.5,0.8,1,1.6,1.4,2.3
			c0.4,0.7,0.8,1.3,1.2,2c0.5,0.8,0.9,1.5,1.3,2.3c0.4,0.7,0.8,1.4,1.2,2.2c0.4,0.7,0.8,1.5,1.2,2.2c0.4,0.8,0.8,1.5,1.2,2.3
			c0.4,0.7,0.7,1.4,1.1,2.1c0.4,0.8,0.8,1.6,1.2,2.4c0.3,0.7,0.7,1.4,1,2.1C576.8,509.7,577.2,510.5,577.5,511.3L577.5,511.3z
			 M584.7,484.9l1.7-11.3l-7.8-1.2l-1.7,11.3L584.7,484.9L584.7,484.9z M589.8,451l1.9-12.5l-7.4-1.1l-1.9,12.5L589.8,451L589.8,451
			z M595.5,412.5l2.2-14.6l-9-1.3l-2.2,14.6L595.5,412.5L595.5,412.5z M602.2,367.7l2.7-18l-6.1-0.9l-2.7,18L602.2,367.7
			L602.2,367.7z M594.1,348.1l-2.7,18l-23.3-3.5c0.7-7.7-5.1-14.7-13.2-15.9c-2.1-0.3-4.1-0.2-6,0.2l0.8-5.4L594.1,348.1
			L594.1,348.1z M529.5,429.3l-1.9,12.5l-2.3-0.3l-0.3-0.3c-0.5-0.5-1.1-0.9-1.6-1.4c-0.7-0.6-1.4-1.2-2.1-1.8
			c-0.6-0.5-1.3-1.1-1.9-1.6c-0.6-0.5-1.3-1-1.9-1.5c-0.7-0.6-1.4-1.1-2.1-1.7c-0.6-0.4-1.2-0.9-1.8-1.3c-0.8-0.6-1.5-1.2-2.3-1.7
			l-0.2-0.2l-0.7-0.5l0.4-3L529.5,429.3L529.5,429.3z M532.3,442.5l1.9-12.5l21.2,3.2l-1.9,12.5L532.3,442.5L532.3,442.5z
			 M558.2,446.3l1.9-12.5l19.6,2.9l-1.9,12.5L558.2,446.3L558.2,446.3z M571.3,415.8l-1.9,12.5l-19.6-2.9l1.9-12.5L571.3,415.8
			L571.3,415.8z M574.1,429l1.9-12.5l15.7,2.3l-1.9,12.5L574.1,429L574.1,429z M547.1,412.2l-1.9,12.5l-20.8-3.1l1.9-12.5
			L547.1,412.2L547.1,412.2z M521.7,408.5l-1.9,12.5l-18.3-2.7l1.9-12.5L521.7,408.5L521.7,408.5z M534.1,381.6l-27-4l2.5-16.8l27,4
			L534.1,381.6L534.1,381.6z M551.8,469.3l0.1-0.8l22.1,3.3l-1.7,11.3l-11.7-1.7c-0.8-1.2-1.7-2.4-2.5-3.6l-0.2-0.3
			c-0.9-1.3-1.8-2.5-2.8-3.8l-0.2-0.3c-0.9-1.2-1.9-2.5-2.8-3.7L551.8,469.3L551.8,469.3L551.8,469.3z M534.2,449.6l4.3,0.6
			l-0.5,3.2c-0.6-0.6-1.2-1.2-1.8-1.8l-0.1-0.1l-0.1-0.1l-0.1-0.1c-0.5-0.5-1.1-1.1-1.6-1.6l-0.1-0.1l-0.1-0.1L534.2,449.6
			L534.2,449.6L534.2,449.6z M543.2,451l19.6,2.9l-1.4,9.1l-16.9-2.5c-0.7-0.8-1.5-1.7-2.2-2.5l0,0l0,0l0,0l-0.1-0.1L543.2,451
			L543.2,451z M567.4,454.6l18.6,2.8l-1.4,9.1l-18.6-2.8L567.4,454.6L567.4,454.6z M387.4,195.6l-8.5,7.9L371,195l-6.1,8.5l-8.1-8.6
			l-8.6,10.7l-9.6-10.7l-4.1,9.7l-8-8.6l-5.4,8.9l-9.1-7.8l-0.8,8.3l-6.3-4.6l-7,1l-16-49.5l28.1,0l11.2,24.9l13.4,0l-5.4-24.6
			l48.6,0l1.6,25.2l15.8,0l1.6-25.3l48.6,0l-5.4,24.6l13.4,0l11.2-24.9l28.1,0l-15.9,49.5l-7-1l-6.3,4.6l-0.8-8.3l-9.1,7.8l-5.4-8.9
			l-8,8.6l-4.1-9.7l-9.6,10.7l-8.6-10.7l-8.1,8.6l-6.1-8.4l-7.8,8.5L387.4,195.6L387.4,195.6z M404.3,350.8l0,13.4l29.1,0l0-13.4
			L404.3,350.8L404.3,350.8z M397.1,364.2l0-13.4l-33.1,0l0,13.4L397.1,364.2L397.1,364.2z M356.7,364.3l0-13.4l-30.5,0l0,13.4
			L356.7,364.3L356.7,364.3z M343.6,330.2l0,13.4l30.4,0l0-13.4L343.6,330.2L343.6,330.2z M336.4,343.6l0-13.4l-24.5,0l0,13.4
			L336.4,343.6L336.4,343.6z M381.3,330.2l0,13.4l32.4,0l0-13.4L381.3,330.2L381.3,330.2z M421,330.2l0,13.4l28.5,0l0-13.4
			L421,330.2L421,330.2z M440.7,350.8l0,13.4l22.3,0l0-13.4L440.7,350.8L440.7,350.8z M406.3,388.5l0,1.9c11.4,1,22.6,2.9,33.4,5.7
			l0-7.7L406.3,388.5L406.3,388.5z M399.1,389.9v-1.4l-30.5,0l0,1.9c6.2-0.6,12.5-0.9,18.9-0.9C391.4,389.6,395.2,389.7,399.1,389.9
			L399.1,389.9z M361.4,391.3l0-2.7l-34.4,0l0,10C338.1,395.2,349.6,392.7,361.4,391.3L361.4,391.3z M454.6,400.6l8.4,0l0-12.1
			l-16,0l0,9.7C449.5,398.9,452.1,399.7,454.6,400.6L454.6,400.6z M452.4,371.4l-29,0l0,9.8l29,0L452.4,371.4L452.4,371.4z
			 M416.1,371.5l-30.2,0l0,9.8l30.2,0L416.1,371.5L416.1,371.5z M378.6,371.5l-30.4,0l0,9.8l30.4,0L378.6,371.5L378.6,371.5z
			 M341,371.5l-29,0l0,9.8l29,0L341,371.5L341,371.5z M308.2,225.6l29.4,0l0,22.7l-29.4,0L308.2,225.6L308.2,225.6z M344.9,225.6
			l29.5,0l0,22.7l-29.5,0L344.9,225.6L344.9,225.6z M381.6,225.6l27.5,0l0,22.7l-27.5,0L381.6,225.6L381.6,225.6z M419.9,225.5l20,0
			l0,22.7l-20,0L419.9,225.5L419.9,225.5z M447.1,225.5l19.4,0l0,22.7l-19.4,0L447.1,225.5L447.1,225.5z M466.5,281.9l0,18l-9.2,0
			l0-18L466.5,281.9L466.5,281.9z M466.6,330.1l0,13.4l-9.9,0l0-13.4L466.6,330.1L466.6,330.1z M466.6,371.4l0,9.8l-7,0l0-9.8
			L466.6,371.4L466.6,371.4z M308.3,400.7l0-12.1l11.4,0l0,12.1L308.3,400.7L308.3,400.7z M308.3,364.3l0-13.4l10.7,0l0,13.4
			L308.3,364.3L308.3,364.3z M308.3,323l0-15.7l13.4,0l0,15.7L308.3,323L308.3,323z M308.2,274.8l0-19.3l8.8,0l0,19.3L308.2,274.8
			L308.2,274.8z M354.9,258.4c9,0,16.4,7,16.4,15.5v0.8l22,0l0-19.3l-69.1,0.1l0,19.3l14.3,0V274
			C338.5,265.4,345.9,258.4,354.9,258.4L354.9,258.4z M371.3,282l0,18l4.3,0l0-18L371.3,282L371.3,282z M371.3,307.3l0,12.8l-32.8,0
			l0-12.8l-9.7,0l0,15.7l134.1-0.1l0-15.7l-26.7,0l0,12.8l-32.8,0l0-12.8L371.3,307.3L371.3,307.3z M338.6,300l0-18l-26.7,0l0,18
			L338.6,300L338.6,300z M419.8,258.4c9,0,16.4,7,16.4,15.5v0.8l26.7,0l0-19.3l-62.3,0l0,19.3l2.8,0v-0.8
			C403.4,265.3,410.8,258.4,419.8,258.4L419.8,258.4z M436.2,282l0,18l13.9,0l0-18L436.2,282L436.2,282z M403.5,300l0-18l-20.5,0
			l0,18L403.5,300L403.5,300z M300.5,209.9l173.7-0.1l0,10.2l-173.7,0.1L300.5,209.9L300.5,209.9z M156.5,303.3l111-16.5l1.6,11
			l-111,16.5L156.5,303.3L156.5,303.3z M210,281.7l6.7,4.5l4.5-6.6l5,5.2l4.7-6.7l7,6.4l5.5-8.3l3.8,6.2l4.6-6.7l4.6,5.6l5.4-6.3
			l1.4,5.6l3.8-3.8l4.9-0.1l5.9-35.6l-19.3,2.9l-5.1,18.2l-9.2,1.4l1.2-17.4l-33.4,5l1.5,17.5l-10.9,1.6l-3.7-17.2l-33.4,5l6.2,16.3
			l-9.2,1.4l-10.2-16l-19.3,2.9l16,32.4l4.7-1.4l4.8,2.5l-0.3-5.8l7,4.4l2.8-6.7l6.4,5.1l1.9-7.1l7.7,6.4l4.8-8.2l6.5,5.1l3.3-6.4
			l6.2,5L210,281.7L210,281.7z M165.4,320.7l19.4-2.9l3.3,22.2l-19.4,2.9L165.4,320.7L165.4,320.7z M189.4,317.2l18.9-2.8l3.3,22.2
			l-18.9,2.8L189.4,317.2L189.4,317.2z M213,313.7l3.3,22.2l17.7-2.6l-3.3-22.2L213,313.7L213,313.7z M237.7,310l3.3,22.2l12.8-1.9
			l-3.3-22.2L237.7,310L237.7,310z M255.1,307.4l3.3,22.2l8.9-1.3l-3.3-22.2L255.1,307.4L255.1,307.4z M268.3,335l2.7,18l-34,5.1
			c-0.8-3.8-3.1-6.9-6.2-9l-1.2-8.3L268.3,335L268.3,335z M272,359.8l2.5,16.8l-2.4,0.4l-2.5-16.8L272,359.8L272,359.8z
			 M275.5,383.3l2.2,14.6l-84.9,12.6l-2.2-14.6l20.3-3l2,13.5l30.6-4.5l-2-13.5L275.5,383.3L275.5,383.3z M278.7,404.6l-2.8,0.4
			l1.9,12.5l2.8-0.4L278.7,404.6L278.7,404.6z M268.6,426.8l-0.2-1l2-0.3C269.9,425.9,269.2,426.4,268.6,426.8L268.6,426.8z
			 M197.8,511.2l-1.1,0.2l-3-20.1l16.1-2.4c-0.6,1-1.2,2-1.8,3l-0.2,0.3l-0.4,0.7l-0.2,0.3c-0.6,1-1.2,2-1.7,3l0,0.1l-0.2,0.3
			l-0.4,0.7l-0.2,0.3c-0.5,0.9-1,1.9-1.5,2.8l-0.2,0.4l-0.4,0.7l-0.2,0.4l-0.2,0.4c-0.5,1-1,2-1.6,3l-0.4,0.8l-0.2,0.4l0,0.1
			c-0.5,1-1,2.1-1.5,3.2l0,0l-0.2,0.4l-0.3,0.7L197.8,511.2L197.8,511.2z M189.9,484.9l-1.7-11.3l7.8-1.2l1.7,11.3L189.9,484.9
			L189.9,484.9z M184.8,451l-1.9-12.5l7.4-1.1l1.9,12.5L184.8,451L184.8,451z M179.1,412.5l-2.2-14.6l9-1.3l2.2,14.6L179.1,412.5
			L179.1,412.5z M172.4,367.7l-2.7-18l6.1-0.9l2.7,18L172.4,367.7L172.4,367.7z M180.5,348.1l2.7,18l23.3-3.5
			c-0.7-7.7,5.1-14.7,13.2-15.9c2.1-0.3,4.1-0.2,6,0.2l-0.8-5.4L180.5,348.1L180.5,348.1z M245.1,429.3l1.9,12.5l3.1-0.5l0.1-0.1
			c0.4-0.4,0.9-0.8,1.3-1.1c0.8-0.7,1.5-1.3,2.3-2c0.6-0.5,1.2-1,1.7-1.4c0.6-0.5,1.3-1.1,2-1.6c0.7-0.6,1.5-1.2,2.2-1.7l1.4-1.1
			l0,0l0.2-0.2c0.8-0.6,1.7-1.3,2.5-1.9l0.2-0.2l0.2-0.2l-0.5-3.4L245.1,429.3L245.1,429.3z M242.3,442.5l-1.9-12.5l-21.2,3.2
			l1.9,12.5L242.3,442.5L242.3,442.5z M216.4,446.3l-1.9-12.5l-19.6,2.9l1.9,12.5L216.4,446.3L216.4,446.3z M203.3,415.8l1.9,12.5
			l19.6-2.9l-1.9-12.5L203.3,415.8L203.3,415.8z M200.5,429l-1.9-12.5l-15.7,2.3l1.9,12.5L200.5,429L200.5,429z M227.5,412.2
			l1.9,12.5l20.8-3.1l-1.9-12.5L227.5,412.2L227.5,412.2z M252.9,408.5l1.9,12.5l18.3-2.7l-1.9-12.5L252.9,408.5L252.9,408.5z
			 M240.5,381.6l27-4l-2.5-16.8l-27,4L240.5,381.6L240.5,381.6z M222.9,470l-0.2-1.5l-22.1,3.3l1.7,11.3l12.4-1.8l0,0
			c0.6-0.9,1.3-1.9,1.9-2.8l0.8-1.1c0.8-1.1,1.6-2.1,2.3-3.2l0.5-0.6C221.2,472.2,222,471.1,222.9,470L222.9,470z M241.2,449.5
			l-5.1,0.8l0.6,3.8c0.7-0.8,1.5-1.5,2.2-2.3l0.1-0.1l0.1-0.1c0.6-0.6,1.3-1.3,1.9-1.9l0.1-0.1L241.2,449.5L241.2,449.5L241.2,449.5
			z M231.5,451l-19.6,2.9l1.4,9.1l17.7-2.6l0,0l0,0l0,0l0,0l0,0l0,0l0,0l0,0l0,0l0,0l0,0l0,0l0,0l0,0c0.4-0.5,0.9-1,1.3-1.5
			L231.5,451L231.5,451z M207.2,454.6l-18.6,2.8l1.4,9.1l18.6-2.8L207.2,454.6L207.2,454.6z M211.1,517
			c8.1-17.5,18.7-33.6,31.4-47.8l40.8,40.7c-0.3,0.4-0.7,0.8-1,1.2l-0.9,1c-0.4,0.5-0.8,1-1.2,1.4c-0.3,0.4-0.6,0.7-0.9,1.1
			c-0.4,0.5-0.8,1-1.2,1.5c-0.3,0.4-0.5,0.7-0.8,1.1c-0.4,0.5-0.8,1-1.1,1.6c-0.3,0.4-0.5,0.8-0.8,1.1c-0.4,0.5-0.7,1-1.1,1.5
			l-0.8,1.2c-0.4,0.5-0.7,1.1-1.1,1.6l-0.2,0.3h-42.7L211.1,517L211.1,517z M257.6,454l40.8,40.7c0.5-0.4,1-0.9,1.5-1.3l1-0.8
			c0.5-0.4,1-0.8,1.4-1.2c0.4-0.3,0.8-0.6,1.2-0.9c0.5-0.4,1-0.7,1.4-1.1c0.4-0.3,0.8-0.6,1.2-0.9c0.5-0.3,0.9-0.7,1.4-1
			c0.5-0.4,1-0.7,1.5-1.1l1.1-0.8c0.5-0.3,1-0.7,1.5-1c0.4-0.3,0.8-0.5,1.1-0.8c0.6-0.4,1.2-0.8,1.9-1.2l0.8-0.5
			c0.7-0.4,1.4-0.8,2-1.2l0.4-0.3l0,0c0.9-0.5,1.8-1,2.6-1.5l0.1-0.1c1.8-1,3.7-2,5.5-2.9l-22.1-53.2
			C287.2,431,271.5,441.5,257.6,454L257.6,454z M324.1,414.7c16.6-5.8,34.3-9.3,52.6-10.3l0,57.6l-0.4,0c-0.8,0.1-1.5,0.1-2.3,0.2
			l-1.2,0.1c-0.7,0.1-1.5,0.2-2.2,0.2l-1.3,0.2c-0.7,0.1-1.4,0.2-2.2,0.3l-1.2,0.2c-0.7,0.1-1.4,0.2-2.1,0.4
			c-0.5,0.1-0.9,0.2-1.4,0.2c-0.6,0.1-1.3,0.2-1.9,0.4c-0.5,0.1-1,0.2-1.5,0.3c-0.6,0.1-1.2,0.3-1.8,0.4c-0.5,0.1-1,0.2-1.5,0.4
			c-0.6,0.1-1.2,0.3-1.8,0.4c-0.5,0.1-1,0.3-1.5,0.4c-0.6,0.2-1.1,0.3-1.7,0.5c-0.6,0.2-1.1,0.3-1.7,0.5c-0.5,0.1-1,0.3-1.5,0.4
			c-0.5,0.2-1,0.3-1.5,0.5L324.1,414.7L324.1,414.7z M398.2,404.4c18.3,1,35.9,4.5,52.5,10.2l-22.1,53.3c-0.5-0.1-0.9-0.3-1.4-0.4
			c-0.5-0.1-0.9-0.3-1.4-0.4c-0.6-0.2-1.1-0.3-1.7-0.5c-0.5-0.1-1.1-0.3-1.6-0.4c-0.5-0.1-1.1-0.3-1.6-0.4c-0.6-0.1-1.2-0.3-1.8-0.4
			c-0.5-0.1-1-0.2-1.4-0.3c-0.6-0.1-1.3-0.3-1.9-0.4c-0.5-0.1-1-0.2-1.5-0.3c-0.7-0.1-1.3-0.3-2-0.4c-0.4-0.1-0.9-0.2-1.4-0.2
			c-0.7-0.1-1.3-0.2-2-0.3l-1.3-0.2c-0.7-0.1-1.4-0.2-2.2-0.3l-1.2-0.2c-0.7-0.1-1.5-0.2-2.2-0.3c-0.4,0-0.8-0.1-1.2-0.1
			c-0.8-0.1-1.5-0.1-2.3-0.2l-0.4,0L398.2,404.4L398.2,404.4z M470.6,422.7c17.1,8.1,32.8,18.6,46.7,31l-40.7,40.8
			c-0.5-0.4-1-0.8-1.5-1.2l-1-0.8c-0.5-0.4-1.1-0.9-1.6-1.3c-0.3-0.3-0.7-0.5-1-0.8c-0.5-0.4-1-0.8-1.5-1.2l-1.1-0.8
			c-0.5-0.4-1-0.7-1.5-1.1c-0.4-0.3-0.8-0.6-1.2-0.9c-0.5-0.3-0.9-0.6-1.4-1c-0.5-0.3-1-0.7-1.5-1l-1.1-0.7
			c-0.6-0.4-1.2-0.8-1.8-1.1l-1-0.6c-0.6-0.4-1.3-0.8-1.9-1.2l-0.7-0.4c-0.7-0.4-1.5-0.9-2.2-1.3l-0.7-0.4c-0.7-0.4-1.3-0.7-2-1.1
			l-0.5-0.2l-0.5-0.2c-0.7-0.4-1.5-0.8-2.2-1.1l-0.1-0.1L470.6,422.7L470.6,422.7z M532.6,468.9l-40.7,40.8l0.9,1.1
			c0.3,0.4,0.7,0.8,1,1.3c0.3,0.4,0.7,0.8,1,1.2c0.4,0.5,0.7,0.9,1.1,1.4c0.4,0.5,0.7,0.9,1,1.4c0.3,0.4,0.6,0.8,0.9,1.2
			c0.4,0.5,0.7,0.9,1,1.4c0.3,0.4,0.6,0.8,0.9,1.3c0.3,0.5,0.7,0.9,1,1.4c0.3,0.4,0.6,0.9,0.9,1.3c0.3,0.5,0.7,1,1,1.5l0.4,0.5h42
			l19.2-7.9C555.9,499.2,545.3,483.1,532.6,468.9z"/>
		<path class="st0" d="M39.1,524.6h696.4c21.5,0,39.1,17.6,39.1,39.1v113.7c0,21.5-17.6,39.1-39.1,39.1H39.1
			C17.6,716.5,0,698.9,0,677.4V563.7C0,542.2,17.6,524.6,39.1,524.6L39.1,524.6z M39.1,532.7c-17.1,0-31,14-31,31v113.7
			c0,17.1,14,31,31,31h696.4c17.1,0,31-14,31-31V563.7c0-17.1-14-31-31-31H39.1z"/>
		<path class="st3" d="M39.1,547.9h696.4c8.7,0,15.8,7.1,15.8,15.8v113.7c0,8.7-7.1,15.8-15.8,15.8H39.1c-8.7,0-15.8-7.1-15.8-15.8
			V563.7C23.3,555,30.4,547.9,39.1,547.9z"/>
		<path class="st0" d="M39.1,549.5h696.4c7.8,0,14.2,6.4,14.2,14.2v113.7c0,7.8-6.4,14.2-14.2,14.2H39.1c-7.8,0-14.2-6.4-14.2-14.2
			V563.7C24.9,555.9,31.3,549.5,39.1,549.5z"/>
		<path class="st4" d="M494.9,645.3v24.4l-4.6,2.2c-4.5,2.1-9.1,3.9-13.9,5.1c-4.7,1.2-9.5,1.7-14.3,1.7c-5.6,0-11.2-0.6-16.6-2.2
			c-5.2-1.4-10.1-3.7-14.5-6.7c-8.1-5.4-14.5-12.4-19-21.1c-4.5-8.8-6.5-18.4-6.5-28.2c0-7.8,1.2-15.6,4.1-22.9
			c2.8-7.2,7.1-13.5,12.5-18.9c5.2-5.3,11.2-9.5,18-12.3c7-2.8,14.5-4,22-4c4.8,0,9.6,0.6,14.3,1.7c4.8,1.2,9.4,2.9,13.9,5.1
			l4.6,2.2v24.6c3-6.2,7-11.7,12-16.5c5.5-5.4,11.9-9.6,19.1-12.6c7.2-2.9,14.8-4.4,22.6-4.4c7.8,0,15.4,1.5,22.6,4.4
			c7.2,2.9,13.7,7.1,19.2,12.6c5.5,5.4,9.8,11.7,12.8,18.7c3,7.1,4.4,14.7,4.4,22.4c0,7.7-1.4,15.3-4.4,22.4
			c-3,7.1-7.3,13.4-12.9,18.8c-5.6,5.4-12.1,9.6-19.3,12.5c-7.2,2.9-14.8,4.4-22.5,4.4c-7.8,0-15.4-1.5-22.6-4.4
			c-7.2-2.9-13.6-7.1-19.1-12.6C501.9,657,497.8,651.5,494.9,645.3L494.9,645.3z M489.4,619.8l-8.6-9.5c-2.4-2.6-5.2-5.3-8.4-7
			c-2.4-1.3-4.9-1.9-7.6-1.9c-4.9,0-8.9,1.4-12.2,5c-3.7,4.1-4.9,9.2-4.9,14.6c0,5.2,1.3,9.7,4.9,13.6c3.3,3.6,7.3,5,12.1,5
			c2.7,0,5.2-0.6,7.6-1.9c3.2-1.7,6-4.3,8.4-7l8.6-9.7c0-0.1,0-0.3,0-0.4C489.4,620.4,489.4,620.1,489.4,619.8L489.4,619.8z
			 M548.6,640.6c4.8,0,8.7-1.6,11.9-5.2c3.7-4.2,5-9.2,5-14.8c0-5.5-1.4-10.5-5.1-14.7c-3.2-3.6-7-5.3-11.8-5.3
			c-4.9,0-8.7,1.6-11.9,5.3c-3.7,4.2-5.1,9.2-5.1,14.7c0,5.5,1.3,10.6,5,14.8C539.8,639.1,543.7,640.6,548.6,640.6L548.6,640.6z
			 M371.1,642.9c0.2-2.8,0.2-5.6,0.2-8.2v-70h-42.1v60.6c0,1.1,0,2.7,0,4.5l-0.7-4.9L305.2,646c1.4-7.2,1.6-15.7,1.6-22.7v-58.6h-42
			v54.5c0,4.5,0,9.4-0.5,13.8c-0.2,1.7-0.5,3.7-1.2,5.2c-0.3,0.8-0.8,1.2-1.5,1.6c-1.5,0.8-3.5,1-5.3,1c-1.7,0-3.8-0.2-5.4-1
			c-0.6-0.3-1.1-0.7-1.4-1.4l0-0.1c-0.7-1.6-1-3.6-1.2-5.3c-0.5-4.4-0.5-9.3-0.5-13.8v-54.5h-42.1v58.6c0,4.6,0.1,9.7,0.5,14.6
			h-28.9v-73.2h-42.2v6l-3.2-1.5c-4.5-2.1-9.1-3.9-13.9-5.1c-4.7-1.2-9.5-1.7-14.3-1.7c-7.5,0-15,1.2-22,4c-6.9,2.8-12.9,7-18,12.3
			c-5.4,5.5-9.6,11.8-12.5,18.9c-2.9,7.3-4.1,15-4.1,22.9c0,9.9,2,19.4,6.5,28.2c4.5,8.7,10.9,15.6,19,21.1c4.4,3,9.3,5.3,14.5,6.7
			c5.4,1.5,11,2.2,16.6,2.2c4.8,0,9.6-0.6,14.3-1.7c4.8-1.2,9.4-2.9,13.9-5.1l3.2-1.5v5.9h74.5v-22.3c1.5,3.8,3.6,7.3,6.2,10.4
			c4.6,5.3,10.5,8.9,17,11.2c7.4,2.5,15.6,3.3,23.4,3.3c7.8,0,15.9-0.8,23.4-3.3c6.6-2.2,12.5-5.8,17-11.1c1.2-1.4,2.3-3,3.3-4.5
			l0.1,0.1c3.8,5.8,8.8,10.7,14.9,14.1c6.2,3.4,12.9,4.8,19.9,4.8c5.7,0,11.3-1.1,16.5-3.6c5.1-2.5,9.4-6.1,12.8-10.7l0.1-0.1
			c0.6-0.8,1.1-1.6,1.6-2.5c0.8,4,2.7,7.5,5.7,10.5c4.1,4.1,9.2,6.3,15,6.3c5.8,0,11-2.1,15.2-6.2c4.1-4.1,6.2-9.3,6.2-15.1
			c0-5.8-2.1-11-6.1-15c-4.1-4.1-9.4-6.2-15.2-6.2c-5.8,0-10.9,2.1-15,6.2C371.4,642.6,371.3,642.8,371.1,642.9L371.1,642.9z
			 M131.7,620.4l-9.2,10.3c-2.3,2.6-5.2,5.3-8.4,7c-2.4,1.3-4.9,1.9-7.6,1.9c-4.8,0-8.8-1.5-12.1-5c-3.6-3.8-4.9-8.4-4.9-13.6
			c0-5.4,1.2-10.5,4.9-14.6c3.3-3.6,7.3-5,12.2-5c2.7,0,5.2,0.6,7.7,1.9c3.2,1.7,6,4.3,8.4,7L131.7,620.4L131.7,620.4z M690.3,648.4
			l3.8,27.9h40.8l-17.2-111.7h-38.8l-11.5,38.9L656,564.6h-38.7L600,676.3h40.7l3.8-28.2l8.2,28.2h29.5L690.3,648.4z"/>
		<path class="st5" d="M128.5,576.4v28.5c-3.6-4-7.1-6.9-10.7-8.7c-3.5-1.8-7.4-2.8-11.4-2.8c-7.5,0-13.5,2.6-18.2,7.7
			c-4.6,5.1-6.9,11.8-6.9,20c0,7.7,2.4,14,7.1,19.1c4.7,5.1,10.7,7.6,18,7.6c4,0,7.8-0.9,11.4-2.8c3.5-1.8,7.1-4.8,10.7-8.8v28.5
			c-4.1,2-8.2,3.5-12.3,4.5c-4.1,1-8.2,1.5-12.4,1.5c-5.2,0-10-0.6-14.5-1.9c-4.4-1.2-8.5-3.1-12.2-5.6
			c-7.1-4.8-12.6-10.8-16.3-18.1c-3.7-7.3-5.6-15.5-5.6-24.5c0-7.3,1.2-13.9,3.6-19.9c2.4-6,5.9-11.4,10.7-16.3
			c4.5-4.7,9.6-8.1,15.3-10.4c5.7-2.3,12-3.5,19-3.5c4.2,0,8.3,0.5,12.4,1.5C120.3,572.9,124.4,574.4,128.5,576.4L128.5,576.4z
			 M599.6,620.6c0,6.9-1.3,13.3-3.8,19.3c-2.5,6-6.2,11.4-11,16.1c-4.9,4.7-10.4,8.3-16.7,10.9c-6.3,2.5-12.8,3.8-19.5,3.8
			c-6.8,0-13.4-1.3-19.6-3.8c-6.3-2.6-11.7-6.2-16.5-10.9c-4.9-4.7-8.6-10.1-11.2-16.2c-2.5-6-3.8-12.5-3.8-19.2
			c0-6.8,1.3-13.3,3.8-19.3c2.6-6,6.3-11.4,11.2-16.1c4.7-4.7,10.2-8.3,16.5-10.9c6.2-2.5,12.8-3.8,19.6-3.8
			c6.8,0,13.3,1.3,19.6,3.8c6.3,2.6,11.8,6.2,16.6,10.9c4.8,4.7,8.4,10.1,11,16.1C598.3,607.4,599.6,613.8,599.6,620.6L599.6,620.6z
			 M548.6,648.7c7.2,0,13.2-2.6,17.9-7.9c4.7-5.3,7.1-12,7.1-20.1c0-8-2.4-14.7-7.2-20c-4.8-5.3-10.7-8-17.8-8
			c-7.2,0-13.2,2.7-17.9,8c-4.7,5.3-7.1,12-7.1,20.1c0,8.2,2.3,14.9,7,20.2C535.2,646.1,541.2,648.7,548.6,648.7L548.6,648.7z
			 M725.5,668.2h-24.3l-5.6-41.3c-0.4-2.9-0.7-6.2-1.1-9.7c-0.3-3.6-0.6-7.5-0.9-11.7c-0.6,4-1.8,9.1-3.6,15.1
			c-0.4,1.3-0.7,2.2-0.8,2.8l-13,44.8h-17.4l-13-44.8c-0.2-0.6-0.4-1.5-0.8-2.8c-1.8-6-3-11.1-3.6-15.1c-0.3,3.6-0.6,7.2-0.9,10.7
			c-0.4,3.6-0.8,7.1-1.2,10.6l-5.6,41.3h-24.2l14.7-95.5H650l14.4,49.3c0.1,0.3,0.3,0.9,0.5,1.7c1.4,4.4,2.2,8.2,2.6,11.3
			c0.2-1.7,0.5-3.6,1-5.7c0.5-2,1.1-4.5,2-7.5l14.6-49.1h25.8L725.5,668.2L725.5,668.2z M486.8,576.4v28.5c-3.6-4-7.1-6.9-10.7-8.7
			c-3.5-1.8-7.3-2.8-11.4-2.8c-7.5,0-13.5,2.6-18.2,7.7c-4.6,5.1-7,11.8-7,20c0,7.7,2.4,14,7.1,19.1c4.7,5.1,10.7,7.6,18,7.6
			c4,0,7.8-0.9,11.4-2.8c3.5-1.8,7.1-4.8,10.7-8.8v28.5c-4.1,2-8.2,3.5-12.3,4.5c-4.1,1-8.2,1.5-12.4,1.5c-5.2,0-10-0.6-14.5-1.9
			c-4.4-1.2-8.5-3.1-12.2-5.6c-7.1-4.8-12.6-10.8-16.3-18.1c-3.7-7.3-5.6-15.5-5.6-24.5c0-7.3,1.2-13.9,3.6-19.9
			c2.4-6,5.9-11.4,10.7-16.3c4.5-4.7,9.6-8.1,15.3-10.4c5.7-2.3,12-3.5,19-3.5c4.2,0,8.3,0.5,12.4,1.5
			C478.6,572.9,482.7,574.4,486.8,576.4L486.8,576.4z M373.5,657.5c0-3.7,1.2-6.8,3.8-9.3c2.5-2.5,5.6-3.8,9.3-3.8
			c3.8,0,6.9,1.3,9.5,3.8c2.5,2.5,3.8,5.6,3.8,9.3c0,3.7-1.3,6.8-3.8,9.4c-2.6,2.6-5.7,3.9-9.4,3.9c-3.7,0-6.7-1.3-9.3-3.9
			C374.8,664.3,373.5,661.2,373.5,657.5L373.5,657.5z M337.3,572.7h26v62c0,6.7-0.4,11.9-1.3,15.5c-0.9,3.6-2.3,6.8-4.3,9.6
			c-2.7,3.6-5.9,6.3-9.8,8.2c-3.9,1.8-8.2,2.8-13.1,2.8c-6,0-11.4-1.3-16.1-3.9c-4.7-2.6-8.7-6.4-12.1-11.4l15.9-14.4
			c0.4,2.8,1.3,5,2.7,6.5c1.4,1.5,3.2,2.3,5.4,2.3c2.5,0,4.2-1.4,5.1-4.1c0.9-2.7,1.4-9.6,1.4-20.6V572.7L337.3,572.7z M213.8,572.7
			h26v46.5c0,6.8,0.2,11.7,0.5,14.7c0.4,3,0.9,5.5,1.8,7.5c1,2.4,2.7,4.3,5.2,5.6c2.5,1.3,5.5,1.9,9.1,1.9c3.6,0,6.6-0.6,9-1.9
			c2.5-1.3,4.2-3.2,5.2-5.6c0.8-2,1.4-4.5,1.8-7.5c0.3-3,0.5-7.9,0.5-14.7v-6.5v-39.9h25.9v50.5c0,10.5-0.6,18.2-1.9,23.2
			c-1.3,5-3.4,9.2-6.4,12.8c-3.3,3.9-7.8,6.8-13.4,8.7c-5.7,1.9-12.6,2.9-20.8,2.9c-8.2,0-15.1-1-20.8-2.9
			c-5.7-1.9-10.2-4.9-13.5-8.7c-3-3.5-5.1-7.8-6.4-12.8c-1.3-5-1.9-12.7-1.9-23.2v-9.9V572.7L213.8,572.7z M143.2,668.2v-95.5h26
			v73.2h32.4v22.3H143.2z"/>
		<path class="st6" d="M59.3,620.8c0,7.8,1.6,15.4,5.2,22.4c3.5,6.8,8.6,12.3,15,16.6c3.4,2.3,7.1,4,11,5.1
			c4.3,1.2,8.9,1.7,13.4,1.7c3.8,0,7.7-0.5,11.4-1.4c3.2-0.8,6.3-1.9,9.3-3.2v-16.6c-1.5,1.1-3.1,2.2-4.8,3
			c-4.1,2.2-8.6,3.2-13.2,3.2c-8.2,0-15.4-2.8-21-8.9c-5.7-6.1-8.2-13.5-8.2-21.8v-0.2H59.3L59.3,620.8z M530.5,663.2
			c5.8,2.4,11.8,3.5,18.1,3.5c6.2,0,12.2-1.2,18-3.5c5.8-2.4,10.9-5.7,15.4-10c4.3-4.3,7.8-9.2,10.1-14.8c2.4-5.6,3.5-11.5,3.5-17.6
			h-18c0,8.5-2.4,16.3-8.1,22.7c-5.5,6.2-12.6,9.3-20.9,9.3c-8.3,0-15.5-3-21-9.3c-5.7-6.4-8-14.3-8-22.7h-18
			c0,6.1,1.1,11.9,3.5,17.5c2.4,5.7,5.9,10.6,10.3,14.9C519.7,657.6,524.8,660.9,530.5,663.2L530.5,663.2z M720.8,664.2l-6.7-43.4
			h-15.2c0.2,1.9,0.4,3.7,0.7,5.6l5.1,37.8H720.8L720.8,664.2z M674.9,620.8l-0.6,2.2c-0.7,2.4-1.3,4.8-1.9,7.3
			c-0.4,1.7-0.7,3.4-0.9,5.1l-0.3,3.6l-7.3,0.1l-0.4-3.6c-0.4-3.5-1.4-7.2-2.4-10.5c-0.2-0.6-0.4-1.2-0.5-1.8l-0.7-2.3h-10.6
			c0.1,0.5,0.3,1,0.4,1.5l12.1,41.9h11.3l12.1-41.9l0.5-1.5H674.9L674.9,620.8z M620.8,620.8l-6.7,43.4h16l5.1-37.8
			c0.2-1.9,0.5-3.7,0.7-5.6H620.8L620.8,620.8z M417.6,620.8c0,7.8,1.6,15.4,5.2,22.4c3.5,6.8,8.6,12.3,15,16.6
			c3.4,2.3,7.1,4,11,5.1c4.3,1.2,8.9,1.7,13.4,1.7c3.8,0,7.7-0.5,11.4-1.4c3.2-0.8,6.3-1.9,9.3-3.2v-16.6c-1.5,1.1-3.1,2.2-4.8,3
			c-4.1,2.2-8.6,3.2-13.2,3.2c-8.2,0-15.4-2.8-21-8.9c-5.7-6.1-8.2-13.5-8.2-21.8v-0.2H417.6L417.6,620.8z M377.5,657.5
			c0,2.6,0.8,4.7,2.6,6.6c1.8,1.8,3.8,2.6,6.4,2.6c2.6,0,4.7-0.8,6.6-2.7c1.8-1.8,2.6-4,2.6-6.6c0-2.6-0.8-4.7-2.6-6.5
			c-1.8-1.8-4-2.6-6.6-2.6c-2.5,0-4.6,0.8-6.4,2.6C378.3,652.8,377.5,655,377.5,657.5L377.5,657.5z M341.4,620.8v4.4
			c0,5.5,0.1,16.7-1.6,21.9c-1.4,4.1-4.5,6.8-8.9,6.8c-3.3,0-6.1-1.2-8.3-3.6c-0.6-0.7-1.2-1.4-1.7-2.2l-8.7,7.9
			c2.4,3,5.2,5.5,8.6,7.3c4.4,2.4,9.2,3.4,14.1,3.4c3.9,0,7.8-0.7,11.3-2.4c3.3-1.6,6.1-3.9,8.2-6.9c1.8-2.5,2.9-5.2,3.6-8.2
			c1.1-4.5,1.2-10,1.2-14.6v-13.9H341.4L341.4,620.8z M217.8,620.8v2.4c0,6.8,0.1,15.6,1.8,22.2c1.1,4.1,2.8,7.9,5.5,11.2
			c3.1,3.6,7.2,6,11.7,7.5c6.1,2.1,13,2.7,19.5,2.7c6.4,0,13.3-0.6,19.5-2.7c4.4-1.5,8.6-3.9,11.7-7.5c2.8-3.2,4.5-7,5.6-11.1
			c1.7-6.6,1.8-15.4,1.8-22.2v-2.4h-17.8c0,4.5,0,9.2-0.5,13.6c-0.3,2.9-0.9,5.9-2.1,8.6c-1.4,3.3-3.9,5.9-7.1,7.6
			c-3.4,1.7-7.1,2.4-10.9,2.4c-3.8,0-7.6-0.6-10.9-2.4c-3.2-1.7-5.7-4.2-7.1-7.6c-1.1-2.7-1.7-5.7-2.1-8.6
			c-0.5-4.4-0.5-9.1-0.5-13.6H217.8L217.8,620.8z M147.3,664.2h50.3v-14.3h-32.4v-29.2h-18V664.2z"/>
	</g>
	<path class="st0" d="M182.4,708.4h409.8c4.9,0,8.9,6.4,8.9,14.3v55.4c0,7.8-4,14.3-8.9,14.3H182.4c-4.9,0-8.9-6.4-8.9-14.3v-55.4
		C173.5,714.8,177.5,708.4,182.4,708.4z"/>
	<path class="st2" d="M188.3,715.7h398.1c2.3,0,4.2,3.1,4.2,6.9v55.4c0,3.8-1.9,6.9-4.2,6.9H188.3c-2.3,0-4.2-3.1-4.2-6.9v-55.4
		C184.1,718.8,186,715.7,188.3,715.7z"/>
	<text transform="matrix(1.1944 0 0 1 201.4004 768.3588)" class="st7 st8 st9">Cluj Online</text>
</g>
</svg>
