<!-- Generator: Adobe Illustrator 22.0.0, SVG Export Plug-In  -->
<svg version="1.1"
	 xmlns="http://www.w3.org/2000/svg" xmlns:xlink="http://www.w3.org/1999/xlink" xmlns:a="http://ns.adobe.com/AdobeSVGViewerExtensions/3.0/"
	 x="0px" y="0px" width="213.6px" height="39.6px" viewBox="0 0 213.6 39.6" style="enable-background:new 0 0 213.6 39.6;"
	 xml:space="preserve">
<defs>
</defs>
<path d="M34.6,30.4c0,1.7,1.4,3.1,3.1,3.1c1.7,0,3.1-1.4,3.1-3.1V0h-6.2V30.4z"/>
<path d="M125.7,6.6h-3.1v13h3.1c0.8,0,1.6-0.3,2.2-0.9c0.6-0.6,0.9-1.4,0.9-2.2V9.7C128.8,8,127.4,6.6,125.7,6.6"/>
<path d="M131.7,22.3V23c3.1,0.9,5.5,3.6,6,6.9h0.8V15.4h-0.8C137.2,18.7,134.9,21.4,131.7,22.3"/>
<path d="M129.3,0.8c4.4,0.4,7.7,3.3,8.4,7.2h0.8V0h-9.2V0.8z"/>
<path d="M41.4,38.8v0.8h9v-9.2h-0.8C49.1,35.1,46,38.3,41.4,38.8"/>
<path d="M0,8.3h0.8c0.6-3.8,3.6-6.8,7.4-7.5V0H0V8.3z"/>
<path d="M104.6,38.8v0.8h9v-9.2h-0.8C112.7,35,109.3,38.4,104.6,38.8"/>
<path d="M97.8,30.4c0,1.7,1.4,3.1,3.1,3.1c1.7,0,3.1-1.4,3.1-3.1v-23h9.7V0H97.8V30.4z"/>
<path d="M24.9,9.1l0.8,0V0h-8.2v0.8C21.4,1.4,24.5,4.9,24.9,9.1"/>
<path d="M125.7,25.4h-3.1l0,14.2h6.2V28.5C128.8,26.8,127.4,25.4,125.7,25.4"/>
<path d="M25.6,16.7H16V9.4c0-1.7-1.4-3.1-3.1-3.1S9.8,7.7,9.8,9.4v20.8c0,1.7,1.4,3.1,3.1,3.1S16,32,16,30.2v-7.4h9.7V16.7z"/>
<path d="M25.6,30.5h-0.8c-0.5,4.3-3.3,7.6-7.2,8.3v0.8H34v-0.8C29.4,38.3,26.2,35.1,25.6,30.5"/>
<polygon points="156.5,6.6 147.4,6.6 147.4,17.2 156.5,17.2 156.5,23 147.4,23 147.4,33.1 156.5,33.1 156.5,39.6 160.4,39.6 
	160.4,31.5 167.8,31.5 167.8,39.6 171.3,39.6 171.3,0 156.5,0 "/>
<rect x="205" width="8.6" height="33"/>
<path d="M0.8,31.4H0v8.2h7.9v-0.8C4.2,38.2,1.2,35.1,0.8,31.4"/>
<path d="M185.5,18.9c0.6-0.6,0.9-1.4,0.9-2.2v-7c0-1.7-1.4-3.1-3.1-3.1h-3.1v13.2h3.1C184.1,19.8,184.9,19.5,185.5,18.9"/>
<path d="M186.9,25.5h-6.8v14.1H196V18.5h-0.8C194.4,22.7,190.9,25.5,186.9,25.5"/>
<path d="M186.9,0.8c4.3,0.5,7.6,3.2,8.4,7h0.8V0h-9.1L186.9,0.8z"/>
<polygon points="65.2,0 49.7,0 49.7,7.4 59.4,7.4 59.4,33 67.9,33 67.9,39.6 72.2,39.6 72.2,6.6 65.2,6.6 "/>
<path d="M88.9,30.4V6.6h-7.8v33h16.2v-0.8C92.3,38.2,88.9,34.8,88.9,30.4"/>
</svg>
