<!-- Generator: Adobe Illustrator 22.0.0, SVG Export Plug-In  -->
<svg version="1.1"
	 xmlns="http://www.w3.org/2000/svg" xmlns:xlink="http://www.w3.org/1999/xlink" xmlns:a="http://ns.adobe.com/AdobeSVGViewerExtensions/3.0/"
	 x="0px" y="0px" width="396.9px" height="107.8px" viewBox="0 0 396.9 107.8" style="enable-background:new 0 0 396.9 107.8;"
	 xml:space="preserve">
<defs>
</defs>
<path d="M123.4,17.5h13.3c14.6,0,21.4,7.3,21.4,18.1c0,10.7-7,19.2-21.8,19.2h-13V17.5z M137.2,46.3c6.5,0,9.6-3.6,9.6-10.4
	c0-6.9-3.1-10-9.9-10h-2.9v20.4H137.2z"/>
<path d="M178.8,17.5H189l14.8,37.3h-11.6l-1.8-5.3h-13.3l-1.7,5.3h-10.8L178.8,17.5z M187.5,41.2l-2-5.9c-1.1-3.2-1.7-6.3-1.7-6.5
	h-0.1c-0.1,0.2-0.7,3.3-1.7,6.5l-2,5.9H187.5z"/>
<path d="M214.4,17.5h10.7v37.3h-10.7V17.5z"/>
<path d="M236.7,51.9l4.2-7.4c0.8,0.5,3.8,2.5,7.6,2.5c3.1,0,4.6-1,4.6-2.7c0-2.4-3.7-2.5-8.1-4.8c-4.6-2.3-7.4-5.4-7.4-11.6
	c0-6.7,5.5-11,12.9-11c6.5,0,10,2,11.7,3.2l-4,7.4c-1.3-0.7-4.3-2.1-6.9-2.1c-2.5,0-3.8,0.7-3.8,2.5c0,2.2,2.9,2.6,6.9,4.4
	c4.9,2.2,8.8,4.6,8.8,11.2c0,7.5-5.2,11.9-14.3,11.9C242.7,55.5,238.5,53.2,236.7,51.9z"/>
<path d="M275.1,17.5h10.7v28.8h13.3v8.4h-24V17.5z"/>
<path d="M311.1,17.5h23.4v8.7h-12.9v5.6H333v8.1h-11.4v6.3h13.3v8.7h-23.8V17.5z"/>
<path d="M347.6,17.5h14.3c9.5,0,14.9,3.9,14.9,11.4c0,6-3.8,9-7.3,10.2v0.1c1.2,0.9,2.8,2.6,4.7,5.9l5.8,9.7h-11.5l-6.3-10.6
	c-1.7-2.9-2.3-3.2-3.5-3.2h-0.4v13.9h-10.7V17.5z M361.6,33.8c3.1,0,4.6-1.6,4.6-4.1c0-2.8-1.5-4.2-5-4.2h-3v8.3H361.6z"/>
<path d="M123.2,66h5.6c5.4,0,8.8,2.7,8.8,7.3c0,4.6-3.2,7.5-9,7.5h-3.2v10.9h-2.1V66z M128.6,79c4.9,0,6.9-2.2,6.9-5.6
	c0-3.2-1.9-5.5-6.8-5.5h-3.3V79H128.6z"/>
<path d="M147.2,66h6.1c5.2,0,8.4,2.3,8.4,6.6c0,4.2-3.1,6.4-7.6,6.5h-0.3v0c0.5,0.3,1.1,0.9,2.5,2.8l7.1,9.7h-2.6l-6.3-8.6
	c-2.6-3.5-3-3.8-4.5-3.8h-0.7v12.4h-2.1V66z M153.2,77.5c4.1,0,6.3-1.7,6.3-4.9c0-3.2-2.2-4.8-6.5-4.8h-3.7v9.7H153.2z"/>
<path d="M172.4,66h2.1v25.7h-2.1V66z"/>
<path d="M186.2,66h2.1l15.3,22.2V66h2v25.7h-2l-15.5-22.4v22.4h-2V66z"/>
<path d="M221.5,67.8h-7.4V66H231v1.8h-7.4v23.9h-2.1V67.8z"/>
<path d="M252.4,66h2.1v11.2h15.7V66h2.1v25.7h-2.1V79h-15.7v12.7h-2.1V66z"/>
<path d="M282.1,78.9c0-7.1,4.7-13.3,12.4-13.3c7.7,0,12.4,6.1,12.4,13.3c0,7.1-4.7,13.3-12.4,13.3C286.8,92.1,282.1,86,282.1,78.9z
	 M304.7,78.9c0-6.1-3.8-11.6-10.2-11.6c-6.4,0-10.2,5.3-10.2,11.5c0,6.1,3.8,11.6,10.2,11.6C300.9,90.3,304.7,85,304.7,78.9z"/>
<path d="M316.3,82V66h2.1v15.8c0,5.5,2.3,8.5,7.5,8.5c5.1,0,7.4-3.2,7.4-8.2V66h2v16c0,6.3-2.9,10.2-9.5,10.2
	C319.1,92.1,316.3,88.1,316.3,82z"/>
<path d="M343.9,89.5l1.2-1.5c1,0.9,3.1,2.3,6.2,2.3c3.5,0,5.8-2.2,5.8-4.9c0-3.3-3.1-4.8-6.1-6.4c-3.2-1.6-6.1-3.2-6.1-7.2
	c0-4,3.2-6.2,7.2-6.2c3.2,0,5.4,1.2,6.5,2l-1,1.5c-1.2-0.9-3.1-1.8-5.5-1.8c-2.9,0-5,1.7-5,4.3c0,2.9,2.2,4.1,5.1,5.6
	c3.3,1.7,7.2,3.5,7.2,8.1c0,4-3.2,6.8-8,6.8C347.6,92.1,345.2,90.7,343.9,89.5z"/>
<path d="M368.9,66h12.6v1.8H371v9.3h9.2v1.8H371v11h10.8v1.8h-12.9V66z"/>
<path d="M38.5,0H0v49.4l29.6-27.1c2.3-2.1,5.8-2.1,8.1,0L53,36.2V24.4c0-1.3,1-2.3,2.3-2.3h5.6c1.3,0,2.3,1,2.3,2.3v21.2l14.9,13.6
	c2.4,2.2,2.6,6,0.4,8.5c-2.2,2.4-6,2.6-8.5,0.4L33.7,34.9L0,65.7v42.1h37.6c42.7,0,63-24.4,63-55.5C100.5,21.2,80.8,0,38.5,0z"/>
<g>
	<path d="M396.9,18.2c0,4.5-3.5,8-8.1,8c-4.5,0-8.1-3.5-8.1-8c0-4.4,3.6-7.9,8.1-7.9C393.4,10.3,396.9,13.8,396.9,18.2z M382.7,18.2
		c0,3.5,2.6,6.3,6.2,6.3c3.5,0,6-2.8,6-6.3c0-3.5-2.6-6.4-6.1-6.4C385.3,11.9,382.7,14.8,382.7,18.2z M387.6,22.4h-1.8v-7.9
		c0.7-0.1,1.7-0.2,3-0.2c1.5,0,2.2,0.2,2.7,0.6c0.4,0.3,0.8,1,0.8,1.7c0,0.9-0.7,1.5-1.6,1.8v0.1c0.8,0.3,1.2,0.9,1.4,1.9
		c0.2,1.2,0.4,1.7,0.6,2h-2c-0.2-0.3-0.4-1-0.6-1.9c-0.1-0.9-0.6-1.3-1.6-1.3h-0.9V22.4z M387.6,17.9h0.9c1,0,1.8-0.3,1.8-1.2
		c0-0.7-0.5-1.2-1.7-1.2c-0.5,0-0.8,0-1,0.1V17.9z"/>
</g>
</svg>
