<!-- Generator: Adobe Illustrator 22.0.0, SVG Export Plug-In  -->
<svg version="1.1"
	 xmlns="http://www.w3.org/2000/svg" xmlns:xlink="http://www.w3.org/1999/xlink" xmlns:a="http://ns.adobe.com/AdobeSVGViewerExtensions/3.0/"
	 x="0px" y="0px" width="29.9px" height="9.3px" viewBox="0 0 29.9 9.3" style="enable-background:new 0 0 29.9 9.3;"
	 xml:space="preserve">
<style type="text/css">
	.st0{fill:#000F16;}
</style>
<defs>
</defs>
<path class="st0" d="M25.7,2.2c0.8,0,1.1,0.4,1.1,1c0,0.7-0.4,1.1-1.2,1.1h-1V2.2H25.7z M22.1,9.1h2.5V6.3h0.5l1.2,1.9
	c0.3,0.5,0.4,0.6,0.7,1h2.8c-0.4-0.5-0.7-0.9-1.1-1.4l-1.3-1.8c1.1-0.5,1.7-1.4,1.7-2.7c0-1.9-1.2-3.1-3.4-3.1h-3.6V9.1z M15,7.2
	c-1.5,0-2.3-1-2.3-2.5s0.8-2.5,2.3-2.5s2.3,1,2.3,2.5S16.5,7.2,15,7.2 M10.1,4.6c0,2.9,1.8,4.6,4.9,4.6c3,0,4.9-1.9,4.9-4.6
	S18,0,15,0S10.1,1.9,10.1,4.6 M3.4,2.3c1.4,0,2.1,0.9,2.1,2.4C5.6,6.2,4.9,7,3.4,7H2.5V2.3H3.4z M0,9.1h3.4c3,0,4.7-1.7,4.7-4.5
	c0-2.7-1.7-4.5-4.7-4.5H0V9.1z"/>
</svg>
