<!-- Generator: Adobe Illustrator 22.0.0, SVG Export Plug-In  -->
<svg version="1.1"
	 xmlns="http://www.w3.org/2000/svg" xmlns:xlink="http://www.w3.org/1999/xlink" xmlns:a="http://ns.adobe.com/AdobeSVGViewerExtensions/3.0/"
	 x="0px" y="0px" width="162.8px" height="167.4px" viewBox="0 0 162.8 167.4" style="enable-background:new 0 0 162.8 167.4;"
	 xml:space="preserve">
<defs>
</defs>
<g>
	<g>
		<g>
			<path d="M76,143.7v2h3.2v1.8H76v3.7h-2.3v-9.4h5.7v1.8H76z"/>
			<path d="M87.8,151.2l-0.6-1.6h-3.6l-0.6,1.6h-2.3l3.5-9.4h2.8l3.5,9.4H87.8z M85.8,145.7c-0.2-0.4-0.3-1-0.4-1.4h0
				c-0.1,0.4-0.2,0.9-0.4,1.3l-0.8,2.3h2.5L85.8,145.7z"/>
			<path d="M96.3,151.3c-0.7,0-1.9,0-3.3,0v-9.4c1,0,2.5-0.1,3.7-0.1c2.5,0,3.5,0.9,3.5,2.3c0,0.9-0.5,1.7-1.4,2.1v0
				c1,0.3,1.6,1.1,1.6,2.1C100.3,149.7,99.4,151.3,96.3,151.3z M96.2,143.4c-0.3,0-0.7,0-1,0v2.2c0.3,0,0.5,0,0.7,0
				c1.1,0,1.8-0.4,1.8-1.2C97.7,143.9,97.4,143.4,96.2,143.4z M96,147.1c-0.2,0-0.6,0-0.8,0v2.4c0.3,0,0.6,0.1,1,0.1
				c1.1,0,1.7-0.5,1.7-1.3C97.9,147.5,97.2,147.1,96,147.1z"/>
			<path d="M108.4,151.2l-2.3-3.7H106v3.7h-2.3v-9.4c0.8,0,2.2-0.1,3.4-0.1c2.3,0,3.7,0.9,3.7,2.7c0,1.4-0.9,2.3-2.3,2.7
				c0.2,0.3,0.4,0.6,0.7,1l2.1,3H108.4z M106.7,143.6c-0.2,0-0.5,0-0.7,0v2.4c0.2,0,0.5,0,0.8,0c0.9,0,1.5-0.5,1.5-1.3
				C108.2,144,107.6,143.6,106.7,143.6z"/>
			<path d="M114,151.2v-9.4h2.3v9.4H114z"/>
			<path d="M124,151.4c-3.1,0-4.7-1.8-4.7-4.6c0-2.6,1.6-5,5.1-5c0.6,0,1.3,0.1,1.9,0.2l-0.2,2c-0.6-0.2-1.2-0.3-1.8-0.3
				c-1.6,0-2.5,1.2-2.5,2.9c0,1.8,1,2.8,2.6,2.8c0.6,0,1.3-0.1,1.8-0.4l0.2,2.1C125.6,151.2,124.8,151.4,124,151.4z"/>
			<path d="M135.4,151.2l-0.6-1.6h-3.6l-0.6,1.6h-2.3l3.5-9.4h2.8l3.5,9.4H135.4z M133.5,145.7c-0.2-0.4-0.3-1-0.4-1.4h0
				c-0.1,0.4-0.2,0.9-0.4,1.3l-0.8,2.3h2.5L133.5,145.7z"/>
			<path d="M148.5,151.3c-1.3,0-2.3,0-3.1-0.1v-9.3c0.8,0,2.5-0.1,3.7-0.1c3,0,5.1,1.3,5.1,4.6C154.1,149.8,151.7,151.3,148.5,151.3
				z M148.8,143.7c-0.3,0-0.8,0-1.1,0.1v5.5c0.2,0,0.6,0.1,1,0.1c1.7,0,2.9-1,2.9-2.8C151.7,144.7,150.7,143.7,148.8,143.7z"/>
			<path d="M157.1,151.2v-9.4h5.8v1.8h-3.4v1.9h3.3v1.8h-3.3v2.1h3.4v1.9H157.1z"/>
			<path d="M76.8,164.4c-0.2,0-0.6,0-0.8,0v2.9h-2.3v-9.4c0.8,0,2.2-0.1,3.3-0.1c2.5,0,3.9,1.1,3.9,3.1
				C80.9,163.1,79.1,164.4,76.8,164.4z M76.8,159.7c-0.3,0-0.6,0-0.8,0v2.8c0.2,0,0.5,0.1,0.7,0.1c1,0,1.7-0.5,1.7-1.5
				C78.4,160.3,77.9,159.7,76.8,159.7z"/>
			<path d="M83.7,167.2v-9.4h5.8v1.8H86v1.9h3.3v1.8H86v2.1h3.4v1.9H83.7z"/>
			<path d="M98.7,167.2l-2.8-4.6c-0.3-0.5-0.6-1.2-0.9-1.7h0c0,0.4,0.1,0.9,0.1,1.7v4.6h-2.2v-9.4H96l2.7,4.5c0.4,0.6,0.7,1.2,1,1.8
				h0c0-0.6-0.1-1.3-0.1-2.3l0-3.9h2.2v9.4H98.7z"/>
			<path d="M107.1,167.4c-0.6,0-1.3-0.1-1.8-0.2l0.1-2.1c0.5,0.2,1.2,0.3,2,0.3c0.8,0,1.4-0.4,1.4-1.1c0-1.4-3.8-0.6-3.8-3.7
				c0-1.8,1.4-3.1,4-3.1c0.5,0,1.2,0.1,1.7,0.1l-0.1,1.9c-0.5-0.1-1.2-0.2-1.7-0.2c-1,0-1.4,0.4-1.4,1c0,1.3,3.8,0.8,3.8,3.7
				C111.3,166.1,109.7,167.4,107.1,167.4z"/>
			<path d="M118.6,167.4c-2.8,0-4.2-1.3-4.2-3.5v-6.1h2.3v5.5c0,1.4,0.7,2.1,2,2.1c1.4,0,2-0.8,2-2.1v-5.5h2.3v5.7
				C123,165.7,121.6,167.4,118.6,167.4z"/>
			<path d="M126.6,167.2v-9.4h2.3v7.3h3v2.1H126.6z"/>
			<path d="M134.7,167.2v-9.4h5.8v1.8H137v1.9h3.3v1.8H137v2.1h3.4v1.9H134.7z"/>
		</g>
	</g>
	<path d="M59.5,56.4c0.1,1.1,1.3,0.8,2.1,1C61.5,56.3,60.3,56.6,59.5,56.4z M60.2,52c2.4-0.8,4.6-1.8,8.2-1.6
		c3.6-2.6-5.7,0.8-5.3-1.9C62.2,49.8,59.4,49.1,60.2,52z M61.9,45.4c1.5,2.7,5-1.3,5.2,0.8c3.1-1.6-2.4-5.2-2.1-1
		c-2.7-1.3-6.5-0.6-4,2.4C62,47.5,61.7,46.2,61.9,45.4z M74.7,52.2c1.2,1.3,1,2.2-0.9,2.2c0.6,0.8,1.2,1.7,1.2,3.2
		c1.3-1.1,1.9-3,2.8-4.5c2.5,0,0.4,3.6-0.8,3.3c2.1,1.4,3.6,4.7-0.7,5.5c0.4,1.4,2.6,0.7,4.2,0.8c0.9-5.6-0.8-6.8,0.4-9.8
		C80,51.9,78.4,52.3,74.7,52.2z M71,58.9c-0.5,0.6,0.8,1.3,1.1,1C72.6,59.3,71.3,58.6,71,58.9z M68.5,52.6c-0.2,0.2,3.1,1.6,2.3,3.1
		c1.1-0.3,0.6-2.2,1.9-2.3C73,52.6,69.2,51.8,68.5,52.6z M73,57.7c0.5-0.6-0.8-1.3-1.1-1C71.4,57.3,72.7,58,73,57.7z M113.7,47.7
		c-0.1-1.1-1.3-0.8-2.1-1C111.7,47.8,112.9,47.5,113.7,47.7z M59.9,63.9c-2.4,0.1-2.9,2-6.1,1.5C53.9,67,61.6,67.3,59.9,63.9z
		 M83,69.1c-1.9,1.6-4.2-0.6-7.1,1.5c1.2,1,0.6,4,3.3,3.1c-0.2-0.9-1.1-1-1.2-2.1C79.5,73.1,83.4,72.3,83,69.1z M97.9,76.9
		c3.2-6.2,14.5,2.9,17.4-3.2c-1.9,0-3.5-0.5-4.2-1.9c1.4-0.1,2.6-0.1,3-1.3c-0.5,1.4-2.5-4.4-2.2-3.1c-2.6,0-4.9-0.3-6.3-1.8
		c1.4-0.2,0.9-2.8-1.2-2.1c-2.3,0.7,1.3,1.6-0.8,3.3c-4.5,0.3-8.9-0.3-10.4-0.5c1.2-2.7,2-0.8,3-2.4c-1.9-3.4,0.2-5.7,3.7-6.7
		c1.9,2.7-0.9,3.9,1.4,5.3l3.1-0.2c-3.5-1.9,2.3-4.8-0.3-5.4c-0.5,2.6-2.1-2.7-4.2-1.9c-0.2,0.2-0.4,0.4-0.6,0.6c0,0,0,0,0,0
		c-0.2,0.1-0.5,0.3-0.7,0.4c0,0,0,0-0.1,0c-0.2,0.1-0.5,0.1-0.8,0.2c0,0-0.1,0-0.1,0c-0.3,0-0.5,0-0.8,0c0,0-0.1,0-0.1,0
		c-0.3,0-0.6-0.1-0.8-0.2c0,0,0,0-0.1,0c-0.3-0.1-0.5-0.2-0.8-0.3c0,0,0,0,0,0c-0.2-0.1-0.5-0.3-0.7-0.5c0,0,0,0,0,0
		c-0.2-0.2-0.4-0.4-0.5-0.6c0,0,0,0,0,0c-0.1,0.1-0.2,0.2-0.3,0.3c-0.1,0.1-0.1,0.1-0.2,0.2c-0.1,0.1-0.2,0.1-0.3,0.2
		c-0.1,0-0.1,0.1-0.2,0.1c-0.1,0.1-0.2,0.1-0.4,0.1c-0.1,0-0.1,0.1-0.2,0.1c-0.1,0-0.3,0.1-0.4,0.1c-0.1,0-0.1,0-0.2,0
		c-0.1,0-0.3,0-0.4,0.1c-0.1,0-0.1,0-0.2,0c-1.1,0.1-2.2,0-3.4,0c-0.1,0-0.1,0-0.2,0c-0.2,0-0.4,0-0.6,0c-0.1,0-0.2,0-0.3,0
		c-0.2,0-0.3,0.1-0.5,0.1c-0.1,0-0.2,0-0.3,0.1c-0.2,0-0.3,0.1-0.5,0.1c-0.1,0-0.2,0.1-0.3,0.1c-0.2,0.1-0.3,0.2-0.5,0.2
		c-0.1,0-0.2,0.1-0.2,0.1c-0.2,0.1-0.5,0.3-0.7,0.5c5.1,0.3-1,0.6-0.9,2.2l3.1-0.2c1.3,3.9,9.6,6.2,4.8,10.6c0-0.2,0-0.4-0.1-0.6
		c0-0.1,0-0.1,0-0.1c0-0.1,0-0.2-0.1-0.3c0,0,0-0.1,0-0.1c0-0.1-0.1-0.1-0.1-0.2c0,0,0-0.1-0.1-0.1c0-0.1-0.1-0.1-0.1-0.2
		c0,0,0,0,0,0c-0.1,0-0.1-0.1-0.2-0.1c0,0,0,0-0.1,0c-0.1,0-0.1,0-0.2,0c0,0,0,0-0.1,0c-0.1,0-0.1,0-0.2,0c0,0,0,0,0,0
		c-0.2,0-0.5,0-0.8,0.1l-0.1,0c-0.1,0-0.1,0-0.2,0c0,0-0.1,0-0.1,0c-0.1,0-0.1,0-0.2,0c0,0-0.1,0-0.1,0c-0.1,0-0.1,0-0.2,0
		c-0.1,0-0.2-0.1-0.3-0.1c0,0,0,0,0,0c0.1,0.1,0,0.4-0.1,0.6c0,0,0,0,0,0c0,0.1-0.1,0.1-0.1,0.2c0,0-0.1,0.1-0.1,0.1
		c0,0-0.1,0.1-0.1,0.1c0,0-0.1,0.1-0.1,0.1c0,0,0,0-0.1,0c-0.1,0-0.1,0-0.2,0c0,0,0,0,0,0c-0.1,0-0.1,0-0.2-0.1c0,0-0.1-0.1-0.1-0.1
		c0,0,0,0,0-0.1c0,0,0-0.1,0-0.1c0,0,0-0.1,0-0.1c0,0,0-0.1,0-0.1c0,0,0-0.1,0-0.1c0,0,0-0.1,0.1-0.1c0,0,0-0.1,0.1-0.1
		c0,0,0-0.1,0.1-0.1c0,0,0.1-0.1,0.1-0.1c0,0,0,0,0.1,0c0.1-0.1,0.2-0.1,0.3-0.1c0,0,0,0,0,0c-0.1-0.1-0.3-0.2-0.4-0.3c0,0,0,0,0,0
		c-0.1-0.2-0.3-0.3-0.4-0.5c0.1,2.2-2.7,1.6-1.8,4.5c2-0.4,2.1,1.3,3.2,2c1.3-1.5,3.7-1.6,5.1-0.3c-0.4-2.4,0-4.1,1.8-4.5
		c0.3,3-1.6,2.3,0.3,4.3c-1.8,0.7-4.2,0.8-5,2.5c1.1,0,0.9,1.3-1,1.1c-1.2-0.9,0.1-2.6-3.3-3.1c-1.5,1.4-2.3,3.3-4.9,3.6
		c1-4-7-1.9-3.1,0.2c-3.2,1.1-4-0.7-5.3-1.9c-3.3-1.6-4,4.3-5.1,1.4c0.6,0,1.1-0.9-0.1-1.1c-5.2,0.5-9.4,1.2-12.3,0.7
		c0.6,0,1.1-0.9-0.1-1.1c-1,1.2-5.4,4.4-7.1,1.5c6.7-1.2-5.3-0.7-1.2-2.1c4.1,1.5,2-2.9,3.9-3.5c-0.8,3.3,2.4,1.8,4.2,1.9
		c-0.2-1.9,0-3.4,0.8-4.4c-4.7,2.5-12.4-3.4-9.3,0.6c-1.8-0.5-6,1.7-6.2-0.7c5.2,0.7,4.2-3.7,8.2-1.6c0.2-1.6,1.6-1.9,1.9-3.4
		c-2-0.4-6.1,1.8-5.3-1.9c0.4-2.9,4.3,4.3,3-2.4c4.2-0.5,10,0.5,11.2-2.8c-4.2,1.3-4,1-6.3-1.8l0.2,3.2c-1.5-0.5-5.2,1.6-5.2-0.8
		c1.2-0.2,2.9,0,3-1.3c-2.5,0.3-4.9,0.5-6.2-0.7c-0.1-1.1,0.3-2.8,1-1.1c5.6,0.8,9.9-2.2,14.3-3c-1.4,0.1-1.1-1.8-2.2-2
		c0.5,3.5-7.4,2.3-9.3-0.5c3-1.6,8.8-0.6,11.2-2.8c-1.9,0.2-2.2-0.7-1.2-2.1c-1,0.8-4.5,4.5-6.1,1.4c3,0.1,3-2.6,6-2.5
		c4.4,1.5,8.1-3.1,12.4,0.3c0.2-1.2,1.5-2.7,2-1.2c-4.5,5.6,3.6,3.8,6.4,2.9c0.6,3.2,2.1,5.2,4.5,6.2c0.4-1.3,0.9-2.5,1.9-3.4
		c-0.1,3.2,0.5,3.7,2.2,2l0.3,4.3c-3.1,2-4.4-3.8-5.2-0.8c2.8,4.9,10.8-0.9,12.4,0.3c-0.1,0.3-0.2,0.5-0.3,0.7
		c-0.1,0.2-0.2,0.4-0.3,0.5c4.8,1.5,0.8-5.1,0.7-6.1c0,0,0,0,0,0c0,0,0,0,0-0.1c0,0,0,0,0,0c0,0,0,0,0,0c0,0,0,0,0,0c0,0,0,0,0.1,0
		c0,0,0,0,0,0c0,0,0.1,0,0.1,0.1c0,0,0,0,0.1,0c0,0,0.1,0.1,0.1,0.1c0,0,0.1,0,0.1,0.1c0.1,0.1,0.2,0.2,0.3,0.3
		c4.1,0.1-0.6,3.4,2.3,4.2c5.5-0.7,5.5-0.3,8-3.7c-4.3,1-5.9-1.9-7.1,1.5c-1.5-5.4,4-2.8,6-2.5c2.5-2.2,5.7,2.1,5-3.6
		c-3.1,2.6-7.9-2.6-9.2,1.6c-0.6-4.2-3.1,1-4.2-1.9c4-2.5,8.7,0.3,16.5-1c0.3-1.6,1.1-1.9-0.2-3.2c7.9-0.1,15.3,0.4,22.8,0.8
		c-0.1-1.1-0.9-1.2-1.2-2.1c3.2-1,6,0.3,9.3,0.5c2.1,0.1,4.1,0.2,6.2,0.4c-2.8-10.1-7.9-18.3-15.5-24.7C122,5,104,0,80,0H0v167.2
		h54.8V115h28.1c24.6,0,42.8-5.7,54.5-17.2c5-5,8.7-10.9,11.1-17.8C130.5,78.3,111.2,76.6,97.9,76.9z M88.6,60
		c0.8,0.2,2-0.1,2.1,0.9C89.9,60.8,88.7,61.1,88.6,60z M119.3,37.6c0.3-0.3,1.6,0.4,1.1,1C120.1,38.9,118.8,38.2,119.3,37.6z
		 M116.2,37.7c0.3-0.3,1.6,0.4,1.1,1C117,39.1,115.7,38.3,116.2,37.7z M105,40.6c0.3-0.3,1.6,0.4,1.1,1
		C105.8,41.9,104.5,41.2,105,40.6z M93.8,43.4l0.1,2.2l-2.1,0.1l-0.1-2.2L93.8,43.4z M90.8,44.7c0,0.6-0.8,1.3-1,0.1
		C89.7,44.2,90.5,43.5,90.8,44.7z M90,49.1c1-1.4,0.7-0.3,0.1,1.1C89.4,51.7,89.1,50.4,90,49.1z M89.3,53.5c-0.3,0.3-1.6-0.4-1.1-1
		C88.4,52.1,89.8,52.9,89.3,53.5z M88.8,45.9c-2.8,0.3-2.2-1.7-4.1,0.2C83.5,42.3,89.2,43.8,88.8,45.9z M86.5,41.7
		c0.3-0.3,1.6,0.4,1.1,1C87.3,43,86,42.3,86.5,41.7z M84.4,41.8c0.3-0.3,1.6,0.4,1.1,1C85.2,43.2,83.9,42.4,84.4,41.8z M82.7,47.4
		l-2.1,0.1l-0.1-2.2l2.1-0.1L82.7,47.4z M79.1,38.9c0.3-0.3,1.6,0.4,1.1,1C79.9,40.2,78.6,39.5,79.1,38.9z M77,39
		c0.3-0.3,1.6,0.4,1.1,1C77.9,40.3,76.5,39.6,77,39z M81.4,43.1c-3.6-3-7.6,4-9.3-0.5C75.1,42.4,80.1,38.8,81.4,43.1z M49.4,43.9
		c0.3-0.3,1.6,0.4,1.1,1C50.3,45.3,48.9,44.5,49.4,43.9z M48.5,46.2c-0.8-0.2-2,0.1-2.1-1C47.2,45.4,48.4,45.1,48.5,46.2z
		 M44.5,47.5c-0.8-0.2-2,0.1-2.1-1C43.2,46.7,44.4,46.4,44.5,47.5z M41.9,56.3c0.3-0.3,1.6,0.4,1.1,1C42.7,57.7,41.4,56.9,41.9,56.3
		z M41.3,62.9c0.3-0.3,1.6,0.4,1.1,1C42.1,64.2,40.8,63.5,41.3,62.9z M39.3,46.7c0.3-0.3,1.6,0.4,1.1,1C40.1,48,38.8,47.3,39.3,46.7
		z M40,76c1.2,0,1.5-1.7,2.1-0.1C42.1,77,40.3,77.3,40,76z M44.2,77.9c-0.3,0.3-1.6-0.4-1.1-1C43.4,76.6,44.8,77.3,44.2,77.9z
		 M65,78.8C71.5,77.2,67.4,82,65,78.8L65,78.8z M72.1,77.3c-0.3,0.3-1.6-0.4-1.1-1C71.3,76,72.6,76.7,72.1,77.3z M78.4,79.1
		c-0.3,0.3-1.6-0.4-1.1-1C77.6,77.8,78.9,78.5,78.4,79.1z M79.3,76.9c-0.3,0.3-1.6-0.4-1.1-1C78.5,75.5,79.8,76.3,79.3,76.9z
		 M83.3,75.6c0.8,0.2,2-0.1,2.1,1C84.7,76.3,83.4,76.6,83.3,75.6z M86.6,78.6c-0.3,0.3-1.6-0.4-1.1-1C85.8,77.3,87.1,78,86.6,78.6z
		 M110,71.8C106.7,75.3,106.6,68,110,71.8L110,71.8z M95.9,78.1c-0.3,0.3-1.6-0.4-1.1-1C95.1,76.7,96.4,77.5,95.9,78.1z M101.7,71.2
		c-0.2-1.9,0.6-2.8,1.9-3.4c-0.6,3,2.2,2.1,2.3,4.2c-2.8,1.5-6.2,1.6-8.3-0.6L101.7,71.2z M55.4,74c3.3,1,2.4-1.9,4-2.4
		C58.6,69,54.1,71.3,55.4,74z M56.1,68.5c0.2,1.3,1.9,0.8,3.2,0.9C59,68.1,57.3,68.6,56.1,68.5z M70.4,49.2c3.2,2.6,5.7-1.1,9.3,0.5
		C79.3,46.3,72,47.7,70.4,49.2z M75.2,60.8c-0.9,0.9-2.3,1.3-4.1,1.3C71,64.1,77.1,63.8,75.2,60.8z M53.8,64.3c-0.1-1-1.3-0.8-2.1-1
		C51.7,64.4,52.9,64.1,53.8,64.3z M73,58.8C75.5,62,79.6,57.1,73,58.8L73,58.8z M84.6,62.4c0.5-0.6-0.8-1.3-1.1-1
		C83,62,84.4,62.8,84.6,62.4z M98.1,63.8C94.5,61.4,100.8,67.3,98.1,63.8L98.1,63.8z M67.1,63.5c-0.6,1.5,0.8,2.4,1.1,1
		c0.1-0.3-0.2-0.8-0.1-1.1C68.8,61.7,67.5,62.7,67.1,63.5z M101.2,63.6c-0.5,0.6,0.8,1.3,1.1,1C102.8,64,101.5,63.3,101.2,63.6z
		 M70.9,74.1c1.3-0.5,1.5-2,3-2.4c-0.1-1-1.3-0.8-2.1-1c-0.2-0.9,0.3-1,1-1.1c0.4-1.4-5.1-0.2-4,2.4c-3.8-1.5-4.8,0.5-8.4-1.7
		C60.4,76.3,67.1,70.9,70.9,74.1z M69,60.1c0.5-0.6-0.8-1.3-1.1-1C67.4,59.7,68.7,60.4,69,60.1z M67.6,53.7
		c-0.9-1.9-1.1,0.7-0.9,2.2C67.6,57.8,67.8,55.2,67.6,53.7z M62.6,56.2c0.1,1.1,1.3,0.8,2.1,1C64.6,56.1,63.4,56.4,62.6,56.2z
		 M65,62.5c-0.5,0.6,0.8,1.3,1.1,1C66.6,63,65.3,62.2,65,62.5z M62.8,59.4c-0.5,0.6,0.8,1.3,1.1,1C64.4,59.8,63,59.1,62.8,59.4z"/>
</g>
</svg>
