<!-- Generator: Adobe Illustrator 22.0.0, SVG Export Plug-In  -->
<svg version="1.1"
	 xmlns="http://www.w3.org/2000/svg" xmlns:xlink="http://www.w3.org/1999/xlink" xmlns:a="http://ns.adobe.com/AdobeSVGViewerExtensions/3.0/"
	 x="0px" y="0px" width="439.9px" height="65px" viewBox="0 0 439.9 65" style="enable-background:new 0 0 439.9 65;"
	 xml:space="preserve">
<style type="text/css">
	.st0{fill-rule:evenodd;clip-rule:evenodd;}
</style>
<defs>
</defs>
<g>
	<path class="st0" d="M43.4,34.3c2.3,0,3.3-2.2,1.8-4.1l-7.7-9.4c-1.8-1.9-2.6-1.8-4.2,0l-7.8,9.7c-1.6,1.8-0.4,3.8,2.1,3.8H43.4
		L43.4,34.3z M67.2,43.5c6.7,11.5,1.3,20.9-12.1,20.9H14.9C1.6,64.4-3.8,55,2.9,43.5c5.4,0,5.4,0.1,5.4,0.1c3.1,0,5.5,1.1,7.4,2.3
		c3.1,1.9,15.6,10.3,15.6,10.3c2.9,1.7,5.9,1.7,9.1,0l17.2-11.6c2.3-1.9,0.5-5.5-2.9-5.5H17.7h-2.5H5.4L23,8.7
		c6.7-11.5,17.5-11.5,24.1,0L67.2,43.5L67.2,43.5z"/>
	<path class="st0" d="M383,62.6l-8.6,0c0.1-0.4,0.1-0.8,0.1-1.3c-0.1-2.1-0.8-3.8-2-4.9l3-25h17.9c7.8,1.1,11.5,4.6,11.1,10.6
		c-0.1,4.4-2.2,7.8-6.2,10.4l5.2,10.3h-12.4l-5.1-9.8h-1.9L383,62.6L383,62.6z M386,39.2h5.9c2.2,0.3,3.2,1.2,2.9,2.9
		c-0.3,1.7-1.5,2.5-3.6,2.5l-5.8,0L386,39.2L386,39.2z"/>
	<path class="st0" d="M427.3,63h-11.9c-7.9,0-11.1-5.3-9.8-15.9c1.2-10.7,6-16.1,14.4-16.2l8.8,0c8.7-0.1,12.4,5,11,15.5
		C439,57.4,434.9,62.9,427.3,63L427.3,63z M417.3,41.7c-0.6,0.8-1.1,2.6-1.5,5.4c-0.4,2.8-0.4,4.5-0.1,5.1c0.5,1.4,1.6,2.3,3.3,2.5
		l4.7,0c1.8-0.2,3-0.8,3.7-2c0.9-0.8,1.5-2.9,1.8-6.1c0.3-3.2,0.1-5.3-0.8-6.2c-0.8-0.9-2.1-1.5-3.9-1.6h-2.3
		C419.9,39,418.2,39.9,417.3,41.7L417.3,41.7z"/>
	<path d="M87.2,62.7l3.9-33.5c1.4-12.8,9.1-19.5,23.1-20l16.9,0c1.3,0,2.4,0,3.1,0c0,0.8-0.1,1.7-0.2,2.3l-1,8.3
		c-0.4,1.6-1.2,2.5-2.5,2.5h-12.9c-3.3-0.1-5.7,1.2-7.2,3.9l-0.3,2.8l21.9,0l-1.6,12.9l-21.6,0l-2.6,21H87.2L87.2,62.7z"/>
	<path d="M172.3,62.6h-21.1c-12.9-0.6-18.4-9.5-16.4-26.7c2-17.2,10-26,23.9-26.6h19.9l-1.3,10.5c-0.3,1.6-1.3,2.5-2.5,2.5l-12.7,0
		c-3.3-0.1-5.2,0.6-5.9,2.1l-1.6,4.6l21.6,0l-1.6,12.8l-21.2-0.2l0,3c0.1,2.5,1.2,3.9,3.3,4.1l17.1,0L172.3,62.6L172.3,62.6z"/>
	<path class="st0" d="M221.4,62.7l25.7,0c13.1-0.7,20.6-9.5,22.7-26.6c2.1-17.1-3.8-26-17.7-26.6l-24.4,0L221.4,62.7L221.4,62.7z
		 M242.6,22.4h4.4c2.9,0.1,4.9,1.1,5.8,2.9c1.4,2.9,1.8,6.5,1.3,10.8c-0.6,4.3-1.6,7.4-3.1,9.4c-1.2,2.1-3.1,3.3-5.7,3.6l-5.8,0
		L242.6,22.4L242.6,22.4z"/>
	<path class="st0" d="M314.6,62.6L321,9.2H351c13.4,1.9,19.8,7.9,19.1,18.2c-0.2,7.5-3.7,13.5-10.7,17.8l5.3,10.4
		c-2.2,1.1-3.3,3.3-3.4,6.2l0.2,1H347l-8.7-16.8h-2.6l-2,16.6L314.6,62.6L314.6,62.6z M338.8,22.5h9.3c3.8,0.5,5.4,2.1,4.9,5
		c-0.5,2.8-2.6,4.3-6.2,4.3l-9.2,0L338.8,22.5L338.8,22.5z"/>
	<path d="M364.1,61.7c0.3,2,1.4,3,3.6,3.3c2.8-0.1,4-1.3,4.1-3.8c-0.2-2.5-1.4-3.6-4-3.7C365.4,57.8,364.2,59,364.1,61.7L364.1,61.7
		z"/>
	<path d="M216.5,62.6h-21.1c-12.9-0.6-18.4-9.5-16.4-26.7c2-17.2,10-26,23.9-26.6h19.9l-1.3,10.5c-0.3,1.6-1.3,2.5-2.5,2.5l-12.7,0
		c-3.3-0.1-5.3,0.6-5.9,2.1l-1.6,4.6l21.6,0L219,41.8l-21.2-0.2l0,3c0.1,2.5,1.2,3.9,3.3,4.1l17.1,0L216.5,62.6L216.5,62.6z"/>
	<path d="M310.2,62.6h-21.1c-12.9-0.6-18.4-9.5-16.4-26.7c2-17.2,10-26,23.9-26.6h19.9l-1.3,10.5c-0.3,1.6-1.3,2.5-2.5,2.5l-12.7,0
		c-3.3-0.1-5.3,0.6-5.9,2.1l-1.6,4.6l21.6,0l-1.6,12.8l-21.2-0.2l0,3c0.1,2.5,1.2,3.9,3.3,4.1l17.1,0L310.2,62.6L310.2,62.6z"/>
	<path d="M364.1,61.7c0.3,2,1.4,3,3.6,3.3c2.8-0.1,4-1.3,4.1-3.8c-0.2-2.5-1.4-3.6-4-3.7C365.4,57.8,364.2,59,364.1,61.7L364.1,61.7
		z"/>
</g>
</svg>
