<!-- Generator: Adobe Illustrator 22.0.0, SVG Export Plug-In  -->
<svg version="1.1"
	 xmlns="http://www.w3.org/2000/svg" xmlns:xlink="http://www.w3.org/1999/xlink" xmlns:a="http://ns.adobe.com/AdobeSVGViewerExtensions/3.0/"
	 x="0px" y="0px" width="83.6px" height="7.1px" viewBox="0 0 83.6 7.1" style="enable-background:new 0 0 83.6 7.1;"
	 xml:space="preserve">
<defs>
</defs>
<g>
	<path d="M0.8,3h2.8v0.7H0.8V7H0V0h3.8v0.7h-3V3z"/>
	<path d="M4.8,0h0.8v4.1c0,1.2,0.1,1.5,0.4,1.8c0.3,0.3,0.8,0.4,1.3,0.4c0.9,0,1.5-0.4,1.6-1.1C8.9,5,8.9,4.8,8.9,4.1V0h0.8v4.1v0.5
		c0,0.8-0.2,1.3-0.5,1.7C8.7,6.8,8.1,7.1,7.3,7.1C6.2,7.1,5.3,6.6,5,5.8C4.9,5.5,4.8,5.1,4.8,4.6V4.1V0z"/>
	<path d="M11.3,0h0.8l3.3,5.8V0h0.7V7h-0.8l-3.3-5.7V7h-0.7V0z"/>
	<path d="M17.9,0H19c0.7,0,1,0,1.4,0.1c0.4,0,0.7,0.2,1,0.3C22.4,1,23,2.1,23,3.5c0,1.4-0.6,2.6-1.6,3.1c-0.6,0.3-1,0.4-2.5,0.4h-1
		V0z M18.7,6.3h0.5c1.1,0,1.4-0.1,1.9-0.3c0.7-0.4,1.1-1.3,1.1-2.4c0-1.2-0.4-2.1-1.2-2.5c-0.4-0.2-0.7-0.3-1.9-0.3h-0.3V6.3z"/>
	<path d="M25.8,0h0.7l2.4,7H28l-0.6-1.8h-2.6L24.2,7h-0.8L25.8,0z M27.2,4.4L26.1,1L25,4.4H27.2z"/>
	<path d="M28.6,0h4.4v0.7h-1.8V7h-0.8V0.7h-1.8V0z"/>
	<path d="M34.7,7H34V0h0.8V7z"/>
	<path d="M38.1,0h0.7l2.4,7h-0.8l-0.6-1.8h-2.6L36.5,7h-0.8L38.1,0z M39.6,4.4L38.5,1l-1.1,3.4H39.6z"/>
	<path d="M42.2,0h1.6c0.6,0,0.9,0,1.3,0.1c0.6,0.1,1.1,0.3,1.4,0.6C46.8,1,47,1.6,47,2.2c0,1-0.5,1.8-1.4,2
		c-0.4,0.1-0.8,0.1-1.8,0.1h-0.4V7h-1.3V0z M43.5,3.2h0.4h0.4c1,0,1.4-0.3,1.4-1c0-0.8-0.4-1-1.7-1h-0.5V3.2z"/>
	<path d="M47.8,0h1.4v5.8h3V7h-4.4V0z"/>
	<path d="M55,0h1.3L58.7,7h-1.4l-0.4-1.4h-2.4L54,7h-1.4L55,0z M56.5,4.4l-0.9-2.8l-0.9,2.8H56.5z"/>
	<path d="M59.4,0h1.4l2.8,4.9V0h1.3V7h-1.3l-2.9-4.9V7h-1.3V0z"/>
	<path d="M78.7,0h1.9c0.8,0,1.2,0.1,1.6,0.2c0.7,0.2,1.1,0.8,1.1,1.6c0,0.8-0.3,1.2-1.1,1.5c1,0.2,1.5,0.8,1.5,1.7
		c0,0.8-0.5,1.6-1.3,1.8c-0.5,0.1-0.8,0.2-2,0.2h-1.6V0z M80,2.8h0.6c1,0,1.4-0.2,1.4-0.9c0-0.7-0.3-0.8-1.5-0.8H80V2.8z M80,5.9
		h0.6c1.3,0,1.7-0.2,1.7-1c0-0.8-0.4-1-1.6-1H80V5.9z"/>
</g>
</svg>
