<!-- Generator: Adobe Illustrator 22.0.0, SVG Export Plug-In  -->
<svg version="1.1"
	 xmlns="http://www.w3.org/2000/svg" xmlns:xlink="http://www.w3.org/1999/xlink" xmlns:a="http://ns.adobe.com/AdobeSVGViewerExtensions/3.0/"
	 x="0px" y="0px" width="283.5px" height="101.3px" viewBox="0 0 283.5 101.3" style="enable-background:new 0 0 283.5 101.3;"
	 xml:space="preserve">
<style type="text/css">
	.st0{fill:#9ACA3C;}
</style>
<defs>
</defs>
<g>
	<g>
		<path class="st0" d="M12.5,50c-0.6,0.3-1.3,0.5-2.2,0.7C9.4,50.9,8.5,51,7.6,51c-1.4,0-2.5-0.2-3.5-0.6c-1-0.4-1.7-0.9-2.4-1.7
			c-0.6-0.7-1.1-1.7-1.3-2.8c-0.3-1.1-0.4-2.5-0.4-4c0-3.1,0.6-5.4,1.9-6.9c1.2-1.5,3.2-2.2,5.9-2.2c0.8,0,1.5,0.1,2.3,0.2
			c0.8,0.1,1.5,0.3,2.1,0.6l-0.4,3.3c-0.5-0.2-1.2-0.4-1.8-0.5c-0.7-0.1-1.3-0.2-2-0.2c-0.8,0-1.4,0.1-2,0.3c-0.5,0.2-1,0.5-1.3,0.9
			c-0.3,0.4-0.5,1-0.7,1.8c-0.1,0.7-0.2,1.7-0.2,2.8c0,1.1,0.1,2.1,0.2,2.8s0.3,1.3,0.6,1.8c0.3,0.4,0.7,0.7,1.1,0.9
			c0.5,0.2,1,0.2,1.7,0.2c0.3,0,0.6,0,0.9,0c0.3,0,0.5-0.1,0.8-0.2v-6.2h3.3V50z"/>
		<path class="st0" d="M28.6,41.9c0,1.7-0.1,3.1-0.4,4.2c-0.3,1.2-0.7,2.1-1.3,2.8c-0.6,0.7-1.3,1.2-2.2,1.6c-0.9,0.3-2,0.5-3.2,0.5
			c-1.2,0-2.3-0.2-3.2-0.5c-0.9-0.3-1.6-0.9-2.2-1.6c-0.6-0.7-1-1.7-1.3-2.8c-0.3-1.1-0.4-2.5-0.4-4.2s0.1-3,0.4-4.2
			c0.3-1.1,0.7-2.1,1.3-2.8c0.6-0.7,1.3-1.3,2.2-1.6c0.9-0.3,2-0.5,3.2-0.5s2.3,0.2,3.2,0.5c0.9,0.3,1.6,0.9,2.2,1.6
			c0.6,0.7,1,1.7,1.3,2.8C28.4,38.9,28.6,40.3,28.6,41.9z M24.7,41.9c0-1.2-0.1-2.1-0.2-2.9c-0.1-0.7-0.3-1.3-0.5-1.7
			s-0.6-0.7-1-0.8c-0.4-0.1-0.9-0.2-1.5-0.2c-0.6,0-1.1,0.1-1.5,0.2c-0.4,0.2-0.7,0.4-1,0.9c-0.3,0.4-0.4,1-0.5,1.7
			c-0.1,0.7-0.2,1.7-0.2,2.8c0,1.2,0.1,2.1,0.2,2.9c0.1,0.7,0.3,1.3,0.5,1.7c0.2,0.4,0.6,0.7,1,0.9c0.4,0.2,0.9,0.2,1.5,0.2
			c0.6,0,1.1-0.1,1.5-0.2c0.4-0.2,0.7-0.4,1-0.9c0.2-0.4,0.4-1,0.5-1.7C24.6,44,24.7,43,24.7,41.9z"/>
		<path class="st0" d="M41.3,47.3l-0.1,3.3H30.4V33.1h10.5l0.1,3.4H34v3.6h5.8v3.1H34v4.2H41.3z"/>
		<path class="st0" d="M50.2,36.5v14.1h-3.7V36.5h-4.3l0.1-3.4h12.1l0.1,3.4H50.2z"/>
		<path class="st0" d="M65.4,50.7v-7.3H60v7.3h-3.7V33.1H60V40h5.4v-6.9h3.7v17.6H65.4z"/>
		<path class="st0" d="M83,47.3L83,50.7H72.1V33.1h10.5l0.1,3.4h-6.9v3.6h5.8v3.1h-5.8v4.2H83z"/>
		<path class="st0" d="M91.1,40.7v2.5h-6.2v-2.5H91.1z"/>
		<path class="st0" d="M92.9,50.7v-2.5l6.2-10.1l1-1.5l0,0h-7l0.1-3.4h11.3v2.8l-6.1,9.8l-1,1.5l0,0.1h7.1l-0.1,3.4H92.9z"/>
		<path class="st0" d="M117.8,47.3l-0.1,3.3h-10.8V33.1h10.5l0.1,3.4h-6.9v3.6h5.8v3.1h-5.8v4.2H117.8z"/>
		<path class="st0" d="M130.3,50.7l-6-9.5l-1-1.6l0,0l0,1.9v9.2H120V33.1h3.2l6.5,10.7l0,0l0-1.9v-8.8h3.2v17.6H130.3z"/>
		<path class="st0" d="M142.7,36.5v14.1h-3.7V36.5h-4.3l0.1-3.4h12.1l0.1,3.4H142.7z"/>
		<path class="st0" d="M160.6,38.5c0,1.3-0.2,2.3-0.7,3.1c-0.5,0.8-1.1,1.3-2,1.6l3.7,7.4h-4.3l-2.8-6.7h-2.2v6.7h-3.7V33.1h5.8
			c2.1,0,3.6,0.4,4.6,1.3C160.1,35.2,160.6,36.6,160.6,38.5z M156.8,38.7c0-0.9-0.2-1.5-0.5-1.9c-0.3-0.3-0.9-0.5-1.7-0.5h-2.1v4.8
			h2.1c0.4,0,0.8,0,1-0.1c0.3-0.1,0.5-0.2,0.7-0.4c0.2-0.2,0.3-0.4,0.4-0.7C156.7,39.5,156.8,39.1,156.8,38.7z"/>
		<path class="st0" d="M176,44.7c0,4.2-2.1,6.3-6.4,6.3c-2.1,0-3.8-0.5-4.9-1.5c-1.1-1-1.6-2.6-1.6-4.7V33.1h3.7v11.6
			c0,1,0.2,1.8,0.7,2.2c0.4,0.5,1.1,0.7,2.1,0.7c1,0,1.7-0.2,2.1-0.7c0.4-0.4,0.6-1.2,0.6-2.2V33.1h3.7V44.7z"/>
		<path class="st0" d="M182.9,33.1l3.6,10.1l0.6,1.8h0.1l0.6-1.8l3.6-10.1h4.1v17.6h-3.4v-8.8l0-1.9l-0.1,0l-0.6,1.8l-3.2,9h-2.5
			l-3.2-8.9l-0.6-1.8l0,0l0,1.9v8.8h-3.2V33.1H182.9z"/>
		<path class="st0" d="M7.6,67.8l-2.9-5.5H3.5v5.5H0.9V55h2.7v5.1h1.2L7.5,55h3l-3.4,6.1l3.6,6.7H7.6z"/>
		<path class="st0" d="M22,61.4c0,1.2-0.1,2.2-0.3,3.1c-0.2,0.8-0.5,1.5-0.9,2.1s-1,0.9-1.6,1.1c-0.7,0.2-1.4,0.4-2.3,0.4
			c-0.9,0-1.7-0.1-2.3-0.4c-0.7-0.2-1.2-0.6-1.6-1.2c-0.4-0.5-0.7-1.2-0.9-2.1c-0.2-0.8-0.3-1.9-0.3-3c0-1.2,0.1-2.2,0.3-3
			c0.2-0.8,0.5-1.5,0.9-2.1c0.4-0.5,1-0.9,1.6-1.2c0.7-0.2,1.4-0.4,2.3-0.4c0.9,0,1.7,0.1,2.3,0.4c0.7,0.2,1.2,0.6,1.6,1.2
			c0.4,0.5,0.7,1.2,0.9,2.1C21.9,59.2,22,60.2,22,61.4z M19.2,61.4c0-0.9,0-1.6-0.1-2.1c-0.1-0.5-0.2-1-0.4-1.3
			c-0.2-0.3-0.4-0.5-0.7-0.6c-0.3-0.1-0.7-0.2-1.1-0.2c-0.4,0-0.8,0.1-1.1,0.2c-0.3,0.1-0.5,0.3-0.7,0.6c-0.2,0.3-0.3,0.7-0.4,1.3
			c-0.1,0.5-0.1,1.2-0.1,2.1c0,0.9,0,1.6,0.1,2.1c0.1,0.5,0.2,1,0.4,1.3c0.2,0.3,0.4,0.5,0.7,0.6c0.3,0.1,0.7,0.2,1.1,0.2
			c0.4,0,0.8-0.1,1.1-0.2c0.3-0.1,0.5-0.3,0.7-0.6c0.2-0.3,0.3-0.7,0.4-1.3C19.1,62.9,19.2,62.2,19.2,61.4z"/>
		<path class="st0" d="M33.7,61.4c0,1.2-0.1,2.2-0.3,3.1c-0.2,0.8-0.5,1.5-0.9,2.1s-1,0.9-1.6,1.1c-0.7,0.2-1.4,0.4-2.3,0.4
			c-0.9,0-1.7-0.1-2.3-0.4c-0.7-0.2-1.2-0.6-1.6-1.2c-0.4-0.5-0.7-1.2-0.9-2.1c-0.2-0.8-0.3-1.9-0.3-3c0-1.2,0.1-2.2,0.3-3
			c0.2-0.8,0.5-1.5,0.9-2.1c0.4-0.5,1-0.9,1.6-1.2c0.7-0.2,1.4-0.4,2.3-0.4c0.9,0,1.7,0.1,2.3,0.4c0.7,0.2,1.2,0.6,1.6,1.2
			c0.4,0.5,0.7,1.2,0.9,2.1C33.6,59.2,33.7,60.2,33.7,61.4z M30.9,61.4c0-0.9,0-1.6-0.1-2.1c-0.1-0.5-0.2-1-0.4-1.3
			c-0.2-0.3-0.4-0.5-0.7-0.6c-0.3-0.1-0.7-0.2-1.1-0.2c-0.4,0-0.8,0.1-1.1,0.2c-0.3,0.1-0.5,0.3-0.7,0.6c-0.2,0.3-0.3,0.7-0.4,1.3
			c-0.1,0.5-0.1,1.2-0.1,2.1c0,0.9,0,1.6,0.1,2.1c0.1,0.5,0.2,1,0.4,1.3c0.2,0.3,0.4,0.5,0.7,0.6c0.3,0.1,0.7,0.2,1.1,0.2
			c0.4,0,0.8-0.1,1.1-0.2c0.3-0.1,0.5-0.3,0.7-0.6c0.2-0.3,0.3-0.7,0.4-1.3C30.9,62.9,30.9,62.2,30.9,61.4z"/>
		<path class="st0" d="M44.4,59.3c0,0.7-0.1,1.3-0.3,1.8c-0.2,0.5-0.4,1-0.8,1.3c-0.4,0.3-0.9,0.6-1.4,0.8c-0.6,0.2-1.3,0.3-2.1,0.3
			h-1.5v4.3h-2.7V55h4.2c0.8,0,1.5,0.1,2.1,0.2c0.6,0.2,1.1,0.4,1.4,0.8c0.4,0.4,0.6,0.8,0.8,1.4C44.3,57.9,44.4,58.5,44.4,59.3z
			 M41.6,59.3c0-0.4,0-0.7-0.1-1c-0.1-0.3-0.2-0.5-0.3-0.6c-0.1-0.1-0.3-0.3-0.6-0.3c-0.2-0.1-0.5-0.1-0.9-0.1h-1.5v4h1.5
			c0.3,0,0.6,0,0.8-0.1c0.2,0,0.4-0.2,0.6-0.3c0.1-0.1,0.3-0.4,0.3-0.6C41.6,60,41.6,59.7,41.6,59.3z"/>
		<path class="st0" d="M53.7,65.4l-0.1,2.4h-7.9V55h7.7l0.1,2.5h-5v2.6h4.2v2.3h-4.2v3H53.7z"/>
		<path class="st0" d="M64,58.9c0,0.9-0.2,1.7-0.5,2.3c-0.3,0.6-0.8,1-1.4,1.2l2.7,5.4h-3.1l-2-4.9h-1.6v4.9h-2.7V55h4.2
			c1.5,0,2.6,0.3,3.4,0.9C63.7,56.5,64,57.5,64,58.9z M61.3,59c0-0.7-0.1-1.1-0.4-1.4c-0.2-0.2-0.7-0.4-1.3-0.4h-1.6v3.5h1.5
			c0.3,0,0.6,0,0.8-0.1c0.2-0.1,0.4-0.1,0.5-0.3c0.1-0.1,0.2-0.3,0.3-0.5C61.2,59.7,61.3,59.4,61.3,59z"/>
		<path class="st0" d="M72.6,65.3h-4.1l-0.6,2.5h-2.8L69,55h3.3l4,12.8h-3L72.6,65.3z M70.3,58.5l-1.1,4.5h2.9l-1.1-4.5l-0.3-1.4
			h-0.1L70.3,58.5z"/>
		<path class="st0" d="M81.8,57.5v10.3H79V57.5h-3.1L76,55h8.8l0.1,2.5H81.8z"/>
		<path class="st0" d="M86.4,55h2.8v12.8h-2.8V55z"/>
		<path class="st0" d="M101.5,61.4c0,1.2-0.1,2.2-0.3,3.1c-0.2,0.8-0.5,1.5-0.9,2.1s-1,0.9-1.6,1.1C98,67.9,97.2,68,96.3,68
			c-0.9,0-1.7-0.1-2.3-0.4c-0.7-0.2-1.2-0.6-1.6-1.2c-0.4-0.5-0.7-1.2-0.9-2.1c-0.2-0.8-0.3-1.9-0.3-3c0-1.2,0.1-2.2,0.3-3
			c0.2-0.8,0.5-1.5,0.9-2.1c0.4-0.5,1-0.9,1.6-1.2c0.7-0.2,1.4-0.4,2.3-0.4c0.9,0,1.7,0.1,2.3,0.4c0.7,0.2,1.2,0.6,1.6,1.2
			c0.4,0.5,0.7,1.2,0.9,2.1C101.4,59.2,101.5,60.2,101.5,61.4z M98.6,61.4c0-0.9,0-1.6-0.1-2.1c-0.1-0.5-0.2-1-0.4-1.3
			c-0.2-0.3-0.4-0.5-0.7-0.6c-0.3-0.1-0.7-0.2-1.1-0.2c-0.4,0-0.8,0.1-1.1,0.2c-0.3,0.1-0.5,0.3-0.7,0.6c-0.2,0.3-0.3,0.7-0.4,1.3
			C94,59.8,94,60.5,94,61.4c0,0.9,0,1.6,0.1,2.1c0.1,0.5,0.2,1,0.4,1.3c0.2,0.3,0.4,0.5,0.7,0.6c0.3,0.1,0.7,0.2,1.1,0.2
			c0.4,0,0.8-0.1,1.1-0.2c0.3-0.1,0.5-0.3,0.7-0.6c0.2-0.3,0.3-0.7,0.4-1.3C98.6,62.9,98.6,62.2,98.6,61.4z"/>
		<path class="st0" d="M110.8,67.8l-4.4-7l-0.7-1.2l0,0l0,1.4v6.7h-2.4V55h2.3l4.8,7.8l0,0l0-1.4V55h2.4v12.8H110.8z"/>
		<path class="st0" d="M122.5,64c0,1.3-0.4,2.3-1.1,3c-0.8,0.7-1.8,1.1-3.2,1.1c-0.7,0-1.3-0.1-1.9-0.2c-0.6-0.2-1.2-0.4-1.7-0.7
			l0.4-2.4c0.5,0.3,1,0.5,1.5,0.6c0.5,0.2,1.1,0.2,1.7,0.2c0.7,0,1.1-0.1,1.4-0.4c0.3-0.2,0.4-0.6,0.4-1.1c0-0.4-0.1-0.6-0.4-0.9
			c-0.3-0.2-0.6-0.4-1-0.6c-0.4-0.2-0.8-0.4-1.3-0.5c-0.5-0.2-0.9-0.4-1.3-0.7c-0.4-0.3-0.7-0.7-1-1.1c-0.3-0.5-0.4-1-0.4-1.7
			c0-0.5,0.1-1.1,0.2-1.5c0.2-0.5,0.4-0.9,0.8-1.2c0.4-0.3,0.8-0.6,1.3-0.8c0.5-0.2,1.2-0.3,1.9-0.3c0.6,0,1.2,0.1,1.7,0.2
			c0.6,0.1,1.1,0.3,1.5,0.5l-0.3,2.3c-1-0.3-1.9-0.5-2.8-0.5c-0.4,0-0.7,0-0.9,0.1c-0.2,0.1-0.4,0.2-0.6,0.3
			c-0.1,0.1-0.2,0.2-0.3,0.4c-0.1,0.2-0.1,0.3-0.1,0.5c0,0.3,0.1,0.6,0.4,0.8c0.3,0.2,0.6,0.4,1,0.6c0.4,0.2,0.8,0.4,1.3,0.5
			c0.5,0.2,0.9,0.4,1.3,0.7c0.4,0.3,0.7,0.7,1,1.1C122.4,62.7,122.5,63.3,122.5,64z"/>
		<path class="st0" d="M132.9,59.3c0,0.7-0.1,1.3-0.3,1.8c-0.2,0.5-0.4,1-0.8,1.3c-0.4,0.3-0.9,0.6-1.4,0.8
			c-0.6,0.2-1.3,0.3-2.1,0.3h-1.5v4.3h-2.7V55h4.2c0.8,0,1.5,0.1,2.1,0.2c0.6,0.2,1.1,0.4,1.4,0.8c0.4,0.4,0.6,0.8,0.8,1.4
			C132.8,57.9,132.9,58.5,132.9,59.3z M130.1,59.3c0-0.4,0-0.7-0.1-1c-0.1-0.3-0.2-0.5-0.3-0.6c-0.1-0.1-0.3-0.3-0.6-0.3
			c-0.2-0.1-0.5-0.1-0.9-0.1h-1.5v4h1.5c0.3,0,0.6,0,0.8-0.1c0.2,0,0.4-0.2,0.6-0.3c0.1-0.1,0.3-0.4,0.3-0.6
			C130.1,60,130.1,59.7,130.1,59.3z"/>
		<path class="st0" d="M140.5,65.3h-4.1l-0.6,2.5h-2.8l3.9-12.8h3.3l4,12.8h-3L140.5,65.3z M138.1,58.5l-1.1,4.5h2.9l-1.1-4.5
			l-0.3-1.4h-0.1L138.1,58.5z"/>
		<path class="st0" d="M154,58.9c0,0.9-0.2,1.7-0.5,2.3c-0.3,0.6-0.8,1-1.4,1.2l2.7,5.4h-3.1l-2-4.9H148v4.9h-2.7V55h4.2
			c1.5,0,2.6,0.3,3.4,0.9C153.6,56.5,154,57.5,154,58.9z M151.2,59c0-0.7-0.1-1.1-0.4-1.4c-0.2-0.2-0.7-0.4-1.3-0.4H148v3.5h1.5
			c0.3,0,0.6,0,0.8-0.1c0.2-0.1,0.4-0.1,0.5-0.3c0.1-0.1,0.2-0.3,0.3-0.5C151.2,59.7,151.2,59.4,151.2,59z"/>
		<path class="st0" d="M160.6,57.5v10.3h-2.7V57.5h-3.1l0.1-2.5h8.8l0.1,2.5H160.6z"/>
		<path class="st0" d="M172.6,67.8l-4.4-7l-0.7-1.2l0,0l0,1.4v6.7h-2.4V55h2.3l4.8,7.8l0,0l0-1.4V55h2.4v12.8H172.6z"/>
		<path class="st0" d="M184.8,65.4l-0.1,2.4h-7.9V55h7.7l0.1,2.5h-5v2.6h4.2v2.3h-4.2v3H184.8z"/>
		<path class="st0" d="M195.1,58.9c0,0.9-0.2,1.7-0.5,2.3c-0.3,0.6-0.8,1-1.4,1.2l2.7,5.4h-3.1l-2-4.9h-1.6v4.9h-2.7V55h4.2
			c1.5,0,2.6,0.3,3.4,0.9C194.7,56.5,195.1,57.5,195.1,58.9z M192.3,59c0-0.7-0.1-1.1-0.4-1.4c-0.2-0.2-0.7-0.4-1.3-0.4h-1.6v3.5
			h1.5c0.3,0,0.6,0,0.8-0.1c0.2-0.1,0.4-0.1,0.5-0.3c0.1-0.1,0.2-0.3,0.3-0.5C192.3,59.7,192.3,59.4,192.3,59z"/>
	</g>
	<g>
		<path class="st0" d="M272,23c6.3,0,11.5-5.1,11.5-11.5C283.5,5.1,278.3,0,272,0c-6.3,0-11.5,5.1-11.5,11.5
			C260.5,17.8,265.6,23,272,23z M272,2.6c4.9,0,8.9,4,8.9,8.9c0,4.9-4,8.9-8.9,8.9c-4.9,0-8.9-4-8.9-8.9C263,6.6,267,2.6,272,2.6z"
			/>
		<path class="st0" d="M243.2,31.5c0-4.9,3.9-8.8,8.8-8.8l0-2.5c-6.2,0-11.3,5.1-11.3,11.3c0,6.2,5.1,11.3,11.3,11.3
			c6.2,0,11.3-5.1,11.3-11.3h-2.5c0,4.9-4,8.8-8.8,8.8C247.1,40.3,243.2,36.4,243.2,31.5z"/>
		<path class="st0" d="M235.6,31.5c0,9,7.3,16.3,16.3,16.3c9,0,16.3-7.3,16.3-16.3l-2.5,0c0,7.6-6.2,13.8-13.8,13.8
			c-7.6,0-13.8-6.2-13.8-13.8s6.2-13.8,13.8-13.8l0-2.5C242.9,15.2,235.6,22.5,235.6,31.5z"/>
		<path class="st0" d="M230.6,31.5c0,11.8,9.6,21.4,21.4,21.4c11.8,0,21.4-9.6,21.4-21.4h-2.5c0,10.4-8.4,18.8-18.8,18.8
			c-10.4,0-18.8-8.4-18.8-18.8c0-10.4,8.4-18.8,18.8-18.8l0-2.5C240.1,10.1,230.6,19.7,230.6,31.5z"/>
		<path class="st0" d="M252,5c-14.6,0-26.5,11.8-26.5,26.5c0,14.6,11.8,26.5,26.5,26.5c14.6,0,26.4-11.8,26.4-26.5l-2.5,0
			c0,13.2-10.7,23.9-23.9,23.9c-13.2,0-23.9-10.7-23.9-23.9S238.8,7.6,252,7.6V5z"/>
		<path class="st0" d="M252,60.5c-16,0-29-13-29-29c0-16,13-29,29-29l0-2.5c-17.4,0-31.5,14.1-31.5,31.5c0,17.4,14.1,31.5,31.5,31.5
			c17.4,0,31.5-14.1,31.5-31.5l-2.5,0C281,47.5,268,60.5,252,60.5z"/>
	</g>
	<g>
		<path class="st0" d="M226.6,85.1c1.3,0,2.8-0.3,3.6-0.7v-6.8H226v2.1h1.7v3.1c-0.3,0.1-0.8,0.1-1.1,0.1c-1.9,0-3.4-1-3.4-4.2
			c0-3.2,1.5-4.2,3.7-4.2c0.9,0,2.1,0.2,2.9,0.5l0.3-2.2c-0.9-0.3-2.3-0.6-3.3-0.6c-3.8,0-6.3,2-6.3,6.4
			C220.5,83,222.7,85.1,226.6,85.1z"/>
		<polygon class="st0" points="269.9,84.8 272.6,84.8 272.6,72.5 269.9,72.5 269.9,77.3 265.9,77.3 265.9,72.5 263.3,72.5 
			263.3,84.8 265.9,84.8 265.9,79.6 269.9,79.6 		"/>
		<polygon class="st0" points="259.1,84.8 259.1,74.7 261.8,74.7 261.8,72.5 253.7,72.5 253.7,74.7 256.4,74.7 256.4,84.8 		"/>
		<polygon class="st0" points="247.4,79.6 251.8,79.6 251.8,77.4 247.4,77.4 247.4,74.7 252.6,74.7 252.6,72.5 244.8,72.5 
			244.8,84.8 252.8,84.8 252.8,82.6 247.4,82.6 		"/>
		<path class="st0" d="M237.5,85.2c3.5,0,5.2-1.9,5.2-6.6c0-4.6-1.7-6.6-5.2-6.6c-3.5,0-5.2,2-5.2,6.6
			C232.3,83.2,234,85.2,237.5,85.2z M237.5,74.3c1.7,0,2.5,1.1,2.5,4.3c0,3.3-0.8,4.4-2.5,4.4c-1.7,0-2.5-1.1-2.5-4.4
			C235,75.4,235.8,74.3,237.5,74.3z"/>
		<polygon class="st0" points="283.2,82.6 277.9,82.6 277.9,79.6 282.2,79.6 282.2,77.4 277.9,77.4 277.9,74.7 283,74.7 283,72.5 
			275.2,72.5 275.2,84.8 283.2,84.8 		"/>
		<polygon class="st0" points="244.4,91.3 246.9,91.3 246.9,101.1 249.5,101.1 249.5,91.3 251.9,91.3 251.9,89.1 244.4,89.1 		"/>
		<rect x="221.4" y="89.1" class="st0" width="2.6" height="12"/>
		<path class="st0" d="M272.1,96.9c0,1.4-0.5,2.2-1.8,2.2c-1.3,0-1.8-0.8-1.8-2.2v-7.8H266V97c0,2.9,1.5,4.3,4.4,4.3
			c2.9,0,4.3-1.4,4.3-4.3v-7.9h-2.6V96.9z"/>
		<path class="st0" d="M239.4,92.3c0-0.6,0.3-1.2,1.6-1.2c0.8,0,1.5,0.2,2.3,0.5l0.3-2.1c-0.8-0.4-1.7-0.6-2.8-0.6
			c-2.8,0-4,1.6-4,3.6c0,3.8,4.8,3.1,4.8,5.2c0,0.8-0.5,1.4-1.6,1.4c-1.1,0-2-0.4-2.9-0.9l-0.3,2.1c0.9,0.5,2.1,0.8,3.3,0.8
			c2.6,0,4-1.4,4-3.8C244.2,93.5,239.4,94.1,239.4,92.3z"/>
		<polygon class="st0" points="232.6,96.1 229,89.1 226.6,89.1 226.6,101.1 229,101.1 229,94.1 232.6,101.1 235,101.1 235,89.1 
			232.6,89.1 		"/>
		<polygon class="st0" points="275.9,89.1 275.9,91.3 278.4,91.3 278.4,101.1 281,101.1 281,91.3 283.5,91.3 283.5,89.1 		"/>
		<rect x="253.3" y="89.1" class="st0" width="2.6" height="12"/>
		<polygon class="st0" points="257.2,91.3 259.7,91.3 259.7,101.1 262.3,101.1 262.3,91.3 264.8,91.3 264.8,89.1 257.2,89.1 		"/>
	</g>
</g>
</svg>
