<!-- Generator: Adobe Illustrator 22.0.0, SVG Export Plug-In  -->
<svg version="1.1"
	 xmlns="http://www.w3.org/2000/svg" xmlns:xlink="http://www.w3.org/1999/xlink" xmlns:a="http://ns.adobe.com/AdobeSVGViewerExtensions/3.0/"
	 x="0px" y="0px" width="65.2px" height="28.4px" viewBox="0 0 65.2 28.4" style="enable-background:new 0 0 65.2 28.4;"
	 xml:space="preserve">
<style type="text/css">
	.st0{fill:#21549B;}
	.st1{fill:#23549C;}
</style>
<defs>
</defs>
<g>
	<path d="M27,2.8h3.4c1.8,0,2.1,1.3,2.1,1.9c0,0.7-0.4,1.4-1,1.6c0.5,0.2,0.8,0.4,0.8,1.7c0,1,0,1.2,0.3,1.3v0.2h-1.5
		c-0.1-0.3-0.2-0.7-0.2-1.3c0-0.9-0.1-1.3-1.1-1.3h-1.4v2.6H27V2.8z M30,5.7L30,5.7c0.7,0,1.1-0.2,1.1-0.9c0-0.3-0.2-0.9-1-0.9h-1.7
		v1.8H30z"/>
	<path d="M37.6,8.5c0,0.6,0.1,0.7,0.3,0.8v0.2h-1.4c-0.1-0.2-0.1-0.3-0.1-0.6c-0.3,0.3-0.7,0.7-1.6,0.7c-0.7,0-1.5-0.4-1.5-1.4
		c0-1,0.6-1.5,1.4-1.6l1.2-0.2c0.2,0,0.5-0.1,0.5-0.4c0-0.5-0.5-0.6-0.8-0.6c-0.6,0-0.8,0.4-0.8,0.7h-1.3c0.1-1.5,1.2-1.7,2.2-1.7
		c0.7,0,2,0.2,2,1.4V8.5z M36.3,7L36.3,7c-0.1,0.1-0.3,0.2-0.9,0.3C35,7.4,34.6,7.5,34.6,8c0,0.5,0.4,0.6,0.6,0.6
		c0.6,0,1.2-0.4,1.2-1V7z"/>
	<path d="M43.3,9.4H42V8.8h0c-0.3,0.6-0.9,0.7-1.4,0.7c-1.5,0-2.1-1.3-2.1-2.7c0-1.7,1-2.5,2.1-2.5c0.8,0,1.2,0.5,1.4,0.8h0V2.8h1.3
		V9.4z M40.9,8.5L40.9,8.5c0.8,0,1.1-0.7,1.1-1.4c0-0.8-0.2-1.6-1.1-1.6c-0.8,0-1.1,0.7-1.1,1.5C39.8,7.6,40.1,8.5,40.9,8.5
		L40.9,8.5z"/>
	<path d="M45.8,3.9h-1.3V2.7h1.3V3.9z M45.8,4.5L45.8,4.5v4.9h-1.3V4.5H45.8z"/>
	<path d="M49.3,9.5c-1.3,0-2.5-0.8-2.5-2.6c0-1.8,1.2-2.6,2.5-2.6c1.3,0,2.5,0.8,2.5,2.6C51.8,8.7,50.6,9.5,49.3,9.5L49.3,9.5z
		 M49.3,5.4L49.3,5.4c-1,0-1.2,0.9-1.2,1.5c0,0.6,0.2,1.5,1.2,1.5c1,0,1.2-0.9,1.2-1.5C50.4,6.3,50.3,5.4,49.3,5.4L49.3,5.4z"/>
	<path d="M27,11.1h3.4c1.8,0,2.1,1.3,2.1,1.9c0,0.7-0.4,1.4-1,1.6c0.5,0.2,0.8,0.4,0.8,1.7c0,1,0,1.2,0.3,1.3v0.2h-1.5
		c-0.1-0.3-0.2-0.7-0.2-1.3c0-0.9-0.1-1.3-1.1-1.3h-1.4v2.6H27V11.1z M30,14L30,14c0.7,0,1.1-0.3,1.1-0.9c0-0.4-0.2-0.9-1-0.9h-1.7
		V14H30z"/>
	<path d="M35.8,17.9c-1.3,0-2.5-0.8-2.5-2.6c0-1.8,1.2-2.6,2.5-2.6c1.3,0,2.5,0.8,2.5,2.6C38.4,17.1,37.2,17.9,35.8,17.9L35.8,17.9z
		 M35.8,13.8L35.8,13.8c-1,0-1.2,0.9-1.2,1.5c0,0.6,0.2,1.5,1.2,1.5c1,0,1.2-0.9,1.2-1.5C37,14.7,36.9,13.8,35.8,13.8L35.8,13.8z"/>
	<path d="M46.4,17.8H45v-3c0-0.7-0.3-1-0.7-1c-0.6,0-0.9,0.4-0.9,1v3h-1.3v-3c0-0.4,0-1-0.8-1c-0.6,0-0.8,0.4-0.8,1v3h-1.3v-4.9h1.2
		v0.7h0c0.2-0.3,0.5-0.9,1.4-0.9c0.7,0,1,0.3,1.4,0.8c0.2-0.2,0.5-0.8,1.3-0.8c1,0,1.7,0.6,1.7,1.7V17.8z"/>
	<path d="M51.5,16.8c0,0.6,0.1,0.7,0.3,0.8v0.2h-1.4c-0.1-0.2-0.1-0.3-0.1-0.6c-0.3,0.3-0.7,0.7-1.6,0.7c-0.7,0-1.5-0.4-1.5-1.4
		c0-1,0.6-1.5,1.4-1.6l1.2-0.2c0.2,0,0.4-0.1,0.4-0.4c0-0.5-0.5-0.6-0.9-0.6c-0.6,0-0.8,0.4-0.8,0.7h-1.3c0.1-1.5,1.2-1.7,2.2-1.7
		c0.7,0,2,0.2,2,1.4V16.8z M51.2,12.2L51.2,12.2h-1.1l-0.6-0.8l-0.6,0.8h-1.1l1.1-1.4h1.2L51.2,12.2z M50.3,15.4L50.3,15.4
		c-0.1,0.1-0.3,0.2-0.9,0.3c-0.5,0.1-0.9,0.2-0.9,0.7c0,0.5,0.4,0.6,0.6,0.6c0.6,0,1.2-0.4,1.2-1V15.4z"/>
	<path d="M57.2,17.8h-1.3v-3c0-0.4,0-1-0.8-1c-0.6,0-1,0.4-1,1.1v2.8h-1.3v-4.9h1.2v0.7h0c0.2-0.3,0.6-0.9,1.5-0.9
		c1,0,1.7,0.6,1.7,1.7V17.8z"/>
	<path d="M59.7,12.2h-1.3V11h1.3V12.2z M59.7,12.8L59.7,12.8v4.9h-1.3v-4.9H59.7z"/>
	<path d="M64.9,16.8c0,0.6,0.1,0.7,0.3,0.8v0.2h-1.4c-0.1-0.2-0.1-0.3-0.1-0.6c-0.3,0.3-0.7,0.7-1.6,0.7c-0.7,0-1.5-0.4-1.5-1.4
		c0-1,0.6-1.5,1.4-1.6l1.2-0.2c0.2,0,0.5-0.1,0.5-0.4c0-0.5-0.5-0.6-0.9-0.6c-0.6,0-0.8,0.4-0.8,0.7h-1.2c0.1-1.5,1.2-1.7,2.2-1.7
		c0.7,0,2,0.2,2,1.4V16.8z M63.7,15.4L63.7,15.4c-0.1,0.1-0.3,0.2-0.9,0.3c-0.5,0.1-0.9,0.2-0.9,0.7c0,0.5,0.4,0.6,0.6,0.6
		c0.6,0,1.2-0.4,1.2-1V15.4z"/>
	<path class="st0" d="M32.8,21.8c0-0.2-0.1-0.4-0.1-0.6c-0.1-0.2-0.2-0.4-0.3-0.7c-0.2-0.2-0.3-0.4-0.6-0.6
		c-0.2-0.2-0.5-0.3-0.8-0.4c-0.3-0.1-0.7-0.2-1.1-0.2c-0.4,0-0.9,0.1-1.2,0.2c-0.4,0.2-0.7,0.4-1,0.7c-0.3,0.3-0.5,0.7-0.7,1.1
		c-0.2,0.5-0.2,1-0.2,1.6c0,0.6,0.1,1.1,0.2,1.6c0.2,0.4,0.4,0.8,0.7,1.1c0.3,0.3,0.6,0.5,1,0.7c0.4,0.2,0.8,0.2,1.3,0.2
		c0.4,0,0.8-0.1,1.1-0.2c0.3-0.1,0.6-0.3,0.9-0.5c0.2-0.2,0.5-0.5,0.6-0.8c0.2-0.3,0.3-0.6,0.3-1h-1.4c-0.1,0.3-0.2,0.5-0.3,0.7
		c-0.1,0.2-0.3,0.3-0.5,0.4c-0.2,0.1-0.4,0.2-0.7,0.2c-0.3,0-0.6-0.1-0.8-0.2c-0.2-0.1-0.4-0.3-0.5-0.5c-0.1-0.2-0.2-0.5-0.3-0.7
		c-0.1-0.3-0.1-0.6-0.1-0.9c0-0.4,0-0.7,0.1-1c0.1-0.3,0.2-0.5,0.3-0.7c0.1-0.2,0.3-0.3,0.4-0.4c0.2-0.1,0.3-0.2,0.5-0.2
		c0.2,0,0.3-0.1,0.4-0.1c0.2,0,0.4,0,0.6,0.1c0.2,0.1,0.3,0.1,0.4,0.2c0.1,0.1,0.2,0.2,0.3,0.3c0.1,0.1,0.1,0.2,0.2,0.3
		c0,0.1,0.1,0.2,0.1,0.3H32.8z M35.2,19.5h-1.3v6.9h1.3V19.5z M41.1,21.3h-1.3v2.9c0,0.2,0,0.4-0.1,0.6c-0.1,0.2-0.2,0.3-0.3,0.4
		c-0.1,0.1-0.2,0.1-0.3,0.2s-0.2,0.1-0.3,0.1c-0.1,0-0.2,0-0.3,0c-0.1,0-0.2-0.1-0.3-0.1c-0.1-0.1-0.2-0.2-0.2-0.3
		c-0.1-0.1-0.1-0.3-0.1-0.5v-3.2h-1.3v3.3c0,0.3,0,0.6,0.1,0.8c0.1,0.2,0.2,0.4,0.4,0.6c0.2,0.2,0.3,0.3,0.5,0.3
		c0.2,0.1,0.4,0.1,0.7,0.1c0.4,0,0.7-0.1,0.9-0.2c0.3-0.1,0.5-0.4,0.6-0.6h0v0.7h1.3V21.3z M43.7,21.3h-1.3v5.6c0,0.1,0,0.2,0,0.3
		c0,0.1-0.1,0.1-0.1,0.1c0,0-0.1,0-0.1,0.1c0,0-0.1,0-0.1,0h-0.2v1.1H42c0.3,0,0.5,0,0.7,0c0.2,0,0.4-0.1,0.5-0.2
		c0.1-0.1,0.3-0.3,0.3-0.5c0.1-0.2,0.1-0.5,0.1-0.8V21.3z M43.7,19.4h-1.3v1.2h1.3V19.4z"/>
	<path class="st1" d="M17.8,0h-7.1C9.9,0.8,9.2,1.7,8.4,2.6c-5.3,6.7-8,15-8.3,23.4l0,0.3h3.7C4.6,19,7.2,11.9,11.9,6
		C13.7,3.7,15.7,1.7,17.8,0L17.8,0z"/>
	<path class="st1" d="M3,0c-3.8,5.6-3,11.4-3,11.4C1.4,7.3,3.3,3.5,5.8,0H3z"/>
	<path class="st1" d="M14.9,6.9c-4.7,5.6-7.5,12.4-8.6,19.5H12c1.5-5.3,4-10.4,7.6-14.7c0.9-1.1,1.9-2.2,2.9-3.1V0.1
		C19.8,1.9,17.2,4.2,14.9,6.9L14.9,6.9z"/>
	<path class="st1" d="M13.8,26.4h8.8v-15c-0.6,0.6-1.1,1.2-1.6,1.8C17.6,17.1,15.3,21.6,13.8,26.4L13.8,26.4z"/>
</g>
</svg>
