<!-- Generator: Adobe Illustrator 22.0.0, SVG Export Plug-In  -->
<svg version="1.1"
	 xmlns="http://www.w3.org/2000/svg" xmlns:xlink="http://www.w3.org/1999/xlink" xmlns:a="http://ns.adobe.com/AdobeSVGViewerExtensions/3.0/"
	 x="0px" y="0px" width="453.5px" height="538.6px" viewBox="0 0 453.5 538.6" style="enable-background:new 0 0 453.5 538.6;"
	 xml:space="preserve">
<style type="text/css">
	.st0{fill:#231F20;}
	.st1{clip-path:url(#SVGID_2_);fill:#FFD400;}
	.st2{clip-path:url(#SVGID_4_);fill:#FFD400;}
</style>
<defs>
</defs>
<rect y="0" class="st0" width="453.5" height="538.6"/>
<g>
	<defs>
		<rect id="SVGID_1_" width="453.5" height="538.6"/>
	</defs>
	<clipPath id="SVGID_2_">
		<use xlink:href="#SVGID_1_"  style="overflow:visible;"/>
	</clipPath>
	<path class="st1" d="M170.6,232.1c3.7-3.6,5.5-9.8,5.5-18.7c0-4.8-0.4-9.3-1.1-13.3c-0.5-2.8-0.9-5.7-1.3-8.6
		c-0.4-2.9-0.6-5.5-0.6-7.8c0-7.4,1.4-14.2,4.2-20.6c2.8-6.3,6.8-12,11.9-16.9c5.2-5,11.3-8.8,18.3-11.6c7.1-2.8,14.9-4.2,23.5-4.2
		c7.8,0,15.1,1.5,21.8,4.6c6.7,3,12.5,7,17.4,12c4.9,5,8.8,10.7,11.7,17.3c2.9,6.6,4.4,13.3,4.4,20.2c-0.5,4.6-0.9,7.7-1.1,9.5v-0.4
		c-0.5,2.5-0.9,5.2-1.1,8c-0.2,2.8-0.4,5.8-0.4,9.1c0,6.6,1.3,12.3,4,17.1c2.7,4.8,7.8,7.2,15.3,7.2c5.8,0,10.5-1.9,14.2-5.7
		c3.7-3.8,6.6-8.4,8.9-13.9c2.3-5.5,3.8-11.2,4.7-17.1c0.9-6,1.3-11.2,1.3-15.8c0-9.1-1-17.6-3-25.3c-2-7.7-4.4-14.7-7.2-20.7
		c-2.8-6.1-5.7-11.3-8.7-15.6c-3-4.3-5.7-7.5-7.9-9.5c-1.5-1.5-4.2-4.1-7.9-7.8c-3.8-3.7-8.8-7.3-15-10.9
		c-6.2-3.6-13.6-6.7-22.3-9.5c-8.7-2.8-18.7-4.2-30.1-4.2c-17.1,0-32.2,3.1-45,9.3c-12.9,6.2-23.6,14.3-32.3,24.4
		c-8.7,10-15.2,21.3-19.5,33.9c-4.3,12.6-6.4,25.2-6.4,37.9v0.8c0,3.3,0.5,7.9,1.5,13.7c1,5.8,2.7,11.6,4.9,17.3
		c2.3,5.7,5.2,10.7,8.9,14.8c3.7,4.2,8.1,6.3,13.4,6.3C161.8,237.5,166.9,235.7,170.6,232.1"/>
	<path class="st1" d="M318.6,281.9c-6,2.8-14.6,4.1-25.8,4.1h4c-10.5,0-18.7,1-24.5,3c-5.8,2-8.7,5.2-8.7,9.6
		c0,3.8,1.8,7.8,5.4,12.1c3.6,4.3,7.6,8.7,12,13.1l10.2,10.3h-0.3c4.4,4.4,7.9,8.8,10.7,13.1c2.7,4.3,4.1,8.7,4.1,13.1
		c0,7.1-1.4,11.7-4.1,13.8c-2.8,2.1-6.3,3.2-10.7,3.2c-3.3,0-6.7-1.1-10.2-3.3c-3.5-2.2-7.1-5-10.9-8.3l-10.5-9.3
		c-3.7-3.5-7.7-6.6-12-9.3c-4.3-2.7-8.3-4-12-4c-4.6,0-9.3,1.4-14.1,4.2c-4.8,2.8-9.5,6-14.1,9.8l-13.1,11v-0.3
		c-5.7,4.9-11.1,9.1-16.1,12.6c-5,3.5-10.1,5.3-15.1,5.3c-10.3,0-15.5-5.4-15.5-16.3c0-8,2.6-15,7.9-21.1
		c5.3-6.1,11.4-11.9,18.4-17.4l12.5-9.6c5-3.8,9.3-7.6,12.8-11.6c3.5-4,5.3-8.1,5.3-12.3c0-3.1-1.9-5.6-5.8-7.6
		c-3.8-2-23.8-3-31.9-3c-1.8,0-4.3-0.3-7.7-0.8c-3.4-0.6-6.8-1.6-10.2-3.2c-3.4-1.6-6.4-3.7-8.9-6.5c-2.5-2.8-3.8-6.3-3.8-10.5
		c0-7.3,3.1-12.7,9.2-16.1c6.1-3.4,13.8-5.1,23-5.1h125.8c4.4,0,8.6,0.2,12.7,0.5c4.1,0.3,7.7,1.2,10.9,2.7c3.2,1.4,5.7,3.5,7.6,6.3
		c1.9,2.8,2.8,6.5,2.8,11.1C327.7,273.5,324.6,279.1,318.6,281.9"/>
	<path class="st1" d="M355,436.6c0-4.6-6.9-4.2-6.9,0v42.8c0,2,1.4,3.4,3.6,3.4c1.8,0,3.5-1.4,3.5-3.4v-21.8
		c0-9.8,4.3-17.7,14.2-17.7c2.2,0,3.7-1.2,3.7-3.3c0-2.2-1.4-3.4-3.7-3.4c-5.5,0-11.3,1.7-14.4,8.2V436.6z M305.7,440
		c3.3-1,7.2-1,10.4-0.1h-0.1c7.5,1.9,12.6,8.2,13.2,16.4h-36.4C293.4,448.5,298,442.1,305.7,440 M318.1,433.7
		c-4.7-1.3-10-1.4-14.5,0c-18,5-22.5,27.3-12.1,41c4.5,5.7,12.1,8.6,19.6,8.6c6.3,0.1,12.8-1.6,17.2-5.8c3.8-3.9-1.3-7.8-4.6-4.7
		c-3.8,2.9-8.4,4.1-12.9,4.1c-9.7,0-16.4-6.6-17.7-14.5h38.2c4,0,4.9-2.3,4.7-4.4v0.1C335.9,445.5,329.1,436.7,318.1,433.7
		L318.1,433.7z M254.7,450.3l-6.7,6.6v-35c0-4-7-4-7,0v57.9c0,4.5,7,4.3,7,0v-15.1l5.7-5.1l19.7,22.1c3,3.9,8.8-0.2,5.5-4.2
		L259,455.6l18.1-16.8c3.7-3.5-1.3-8.2-5-4.8L254.7,450.3z M224.1,444.5c2.7,3.2,7.9-0.9,5.1-4.1c-5.2-5.9-10.8-8.2-17.8-8.2
		c-14.7,0-24.8,9.8-25.6,24.1c-0.4,7.1,1.6,13.9,5.7,19c4.8,5.6,12.2,8.6,19.4,8.6c7.2,0,14.4-2.8,19.1-8.6c3.3-3.8-2.5-7.5-4.9-4.3
		c-3.4,4.6-9,6.4-14.1,6.4c-5.2,0-10.5-2.2-13.9-6.4c-2.9-3.5-4.2-8.4-4.2-12.8c0-11,7.2-19.6,17.7-19.6
		C215.5,438.6,220.4,440.2,224.1,444.5 M175.8,421.9c0-4.4-7.2-4.4-7.2,0v4.3c0,4.4,7.2,4.3,7.2,0V421.9z M168.6,480.1
		c0,4.2,7,4.3,7,0v-43.6c0-4.2-7-4.1-7,0.1V480.1z M156.2,421.8c0-1.8-1.5-3.3-3.5-3.3c-2.1,0-3.6,1.4-3.6,3.3v57.9
		c0,1.8,1.4,3.3,3.6,3.3c1.9,0,3.5-1.4,3.5-3.3V421.8z M94.4,471.7c1.9,9.7,14.3,11.7,22.3,11.7c8,0,21.9-3,21.9-15.2
		c0-12.1-11.3-13-21.9-14c-7.7-0.6-14.9-0.5-14.9-6.7c0-6,8.4-8.4,14-8.4c4.4,0,12.5,0.4,14.6,6c1.3,3.7,7.9,1.8,6.6-2.5
		c-3.4-8.7-13.7-9.9-21.2-9.9c-9.3,0-21.1,4.4-21.1,14.8c0,11.9,11.2,12.8,21.6,13.7c7.8,0.6,15.2,0.9,15.2,7.1
		c0,6.7-10.2,8.8-14.9,8.8c-7.1,0-14.6-2.2-15.6-6.6C100.3,465.6,93.2,467.7,94.4,471.7"/>
</g>
</svg>
