<!-- Generator: Adobe Illustrator 22.0.0, SVG Export Plug-In  -->
<svg version="1.1"
	 xmlns="http://www.w3.org/2000/svg" xmlns:xlink="http://www.w3.org/1999/xlink" xmlns:a="http://ns.adobe.com/AdobeSVGViewerExtensions/3.0/"
	 x="0px" y="0px" width="176.6px" height="99.2px" viewBox="0 0 176.6 99.2" style="enable-background:new 0 0 176.6 99.2;"
	 xml:space="preserve">
<defs>
</defs>
<g>
	<g>
		<g>
			<path d="M11.3,9.7H0V0h34v9.7H22.7v58.3H11.3V9.7z"/>
			<path d="M53.6,68.1H42.3L55.3,0h14.6l13,68.1H71.5l-2.4-14.6H56.1L53.6,68.1z M57.9,42.8h9.3l-4.6-29.2h-0.2L57.9,42.8z"/>
			<path d="M153.9,9.7h-11.3V0h34v9.7h-11.3V68h-11.3V9.7z"/>
			<path d="M120,22.7v-4.8c0-5.6-2.4-8.1-5.8-8.1c-4.6,0-5.6,2.6-5.6,7.5v33.6c0,5,1.2,7.3,5.8,7.3c4.1,0,5.6-2.4,5.6-6.7v-7.7h11.3
				v7.3c0,9.4-5.5,17-17,17c-12,0-17.1-7.6-17.1-16.9V17c0-9.4,5.1-17,17.1-17c11.4,0,17,8.3,17,18.2v4.5H120z"/>
		</g>
		<g>
			<path d="M11.3,79.4h1.2v19.4h-1.2V79.4z"/>
			<path d="M111.2,79.4h1.2v19.5h-1.2V79.4z"/>
			<path d="M67.8,92.2h-7.7l-2.2,6.7h-1.4l6.9-19.5h1.4l6.7,19.5h-1.4L67.8,92.2z M67.5,91l-1.2-3.6c-0.4-1.2-0.8-2.3-1.1-3.3
				c-0.4-1.1-0.7-2.2-1-3.4H64c-0.3,1.2-0.7,2.3-1,3.4c-0.4,1.1-0.7,2.2-1.1,3.3L60.5,91H67.5z"/>
			<path d="M83.6,89.1c0-1.5,0.2-2.9,0.6-4.2c0.4-1.2,1-2.3,1.8-3.2c0.8-0.9,1.7-1.5,2.7-2c1.1-0.5,2.2-0.7,3.5-0.7
				c0.7,0,1.2,0.1,1.8,0.2c0.5,0.1,1,0.3,1.5,0.5c0.4,0.2,0.8,0.5,1.2,0.8c0.3,0.3,0.6,0.5,0.9,0.8l-0.8,0.9c-0.5-0.6-1.1-1-1.8-1.4
				c-0.7-0.4-1.6-0.6-2.7-0.6c-1.1,0-2.1,0.2-3,0.6c-0.9,0.4-1.6,1-2.3,1.8c-0.6,0.8-1.1,1.7-1.4,2.8c-0.3,1.1-0.5,2.3-0.5,3.7
				c0,1.4,0.2,2.6,0.5,3.7c0.3,1.1,0.8,2,1.4,2.8c0.6,0.8,1.4,1.4,2.2,1.8c0.9,0.4,1.9,0.6,3,0.6c0.9,0,1.7-0.1,2.5-0.4
				c0.8-0.3,1.4-0.6,1.9-1.1v-6.2h-4.6v-1.2h5.9V97c-0.6,0.7-1.4,1.2-2.4,1.6c-1,0.4-2.1,0.6-3.4,0.6c-1.2,0-2.4-0.2-3.4-0.7
				c-1-0.5-1.9-1.2-2.7-2c-0.7-0.9-1.3-1.9-1.7-3.2C83.8,92,83.6,90.6,83.6,89.1z"/>
			<path d="M128,79.4h1.4l8.2,13.7l2.2,3.9h0.1c0-0.9-0.1-1.9-0.1-2.8c0-0.9-0.1-1.9-0.1-2.8l0-11.9h1.2v19.4h-1.4l-8.1-13.7
				l-2.2-3.9h-0.1c0,0.9,0.1,1.9,0.1,2.8c0,0.9,0,1.8,0,2.8v12.1H128V79.4z"/>
			<path d="M154.5,79.4h10.7v1.2h-9.5v7.3h7.9v1.2h-7.9v8.5h9.5v1.2h-10.7V79.4z"/>
			<path d="M41.5,79.4l-4.1,11.4l-1.7,4.4h-0.2l-1.7-4.4l-4.1-11.4h-1.8v19.4h1.2V86.1c0-0.8,0-1.7-0.1-2.6c0-0.9-0.1-1.8-0.1-2.6
				h0.1l1.5,4.3L35,96.8h1.2l4.5-11.7l1.5-4.3h0.1c0,0.8-0.1,1.7-0.1,2.6c0,0.9-0.1,1.8-0.1,2.6v12.8h1.2V79.4H41.5z"/>
		</g>
	</g>
</g>
</svg>
