<!-- Generator: Adobe Illustrator 22.0.0, SVG Export Plug-In  -->
<svg version="1.1"
	 xmlns="http://www.w3.org/2000/svg" xmlns:xlink="http://www.w3.org/1999/xlink" xmlns:a="http://ns.adobe.com/AdobeSVGViewerExtensions/3.0/"
	 x="0px" y="0px" width="226.8px" height="334.1px" viewBox="0 0 226.8 334.1" style="enable-background:new 0 0 226.8 334.1;"
	 xml:space="preserve">
<style type="text/css">
	.st0{fill:#EE3124;}
	.st1{fill:#B32317;}
</style>
<defs>
</defs>
<g>
	<path class="st0" d="M139,0c-9.8,48-17,96.7-16.7,142.6c13.5,3.8,27.5,9.7,41.2,17.7c31.3,18.2,53.9,43,63.3,66.5V0H139z"/>
	<g>
		<path d="M28.2,170.3C77.9,119.7,107.4,65.5,137.3,1.9l0.5-1l0.4-0.9l0-0.1h-0.3l-0.6,0H0v194.5v12.8v19.5h80.8c1.4,0,2.7,0,4,0
			h1.8v0c16.1-0.5,28-4.4,32.1-11.7c0.8-1.3,1.1-2.8,1.3-4.3v-0.8C110.2,183,58.5,165.4,28.2,170.3z"/>
	</g>
	<path class="st1" d="M145.6,53.4c0-18.4,0.9-36.3,2.5-53.4H139c-9.8,48-17,96.7-16.7,142.6c10.8,3.1,22,7.5,33.1,13.3
		C149.1,125.1,145.6,90.3,145.6,53.4z"/>
	<g>
		<path d="M5.1,244.9v10.4H3.3v-10.4H0v-1.6h8.5v1.6H5.1z"/>
		<path d="M10.5,255.3v-12.1h7.7v1.6h-5.9v3.5h5v1.6h-5v3.6h5.9v1.6H10.5z"/>
		<path d="M27.7,255.3l-0.8-2.4h-4.8l-0.8,2.4h-1.9l4.4-12.1h1.5l4.4,12.1H27.7z M24.5,246l-1.9,5.3h3.7L24.5,246z"/>
		<path d="M34.4,244.9v10.4h-1.8v-10.4h-3.3v-1.6h8.5v1.6H34.4z"/>
		<path d="M46.4,255.3l-2.5-5.1h-2.3v5.1h-1.8v-12.1h4.7c2.3,0,3.7,1.5,3.7,3.5c0,1.7-1,2.8-2.4,3.2l2.8,5.3H46.4z M44.3,244.9h-2.7
			v3.8h2.7c1.2,0,2-0.7,2-1.9C46.4,245.6,45.5,244.9,44.3,244.9z"/>
		<path d="M55,255.4c-2.5,0-4.3-1.7-4.3-4.2v-8h1.8v7.9c0,1.6,1,2.6,2.5,2.6c1.5,0,2.5-1,2.5-2.6v-7.9h1.8v8
			C59.3,253.8,57.5,255.4,55,255.4z"/>
		<path d="M62.3,255.3v-12.1h1.8v10.4h5.8v1.6H62.3z"/>
		<path d="M88.9,255.3v-8.1l-2.8,5.9h-1.4l-2.8-5.9v8.1h-1.8v-12.1H82l3.5,7.5l3.5-7.5h1.8v12.1H88.9z"/>
		<path d="M100.8,255.3l-0.8-2.4h-4.8l-0.8,2.4h-1.9l4.4-12.1h1.5l4.4,12.1H100.8z M97.7,246l-1.9,5.3h3.7L97.7,246z"/>
		<path d="M111.5,254.1c-0.9,1-2,1.4-3.3,1.4c-1.3,0-2.3-0.5-3.2-1.3c-1.2-1.2-1.2-2.5-1.2-4.8c0-2.3,0-3.7,1.2-4.8
			c0.8-0.8,1.9-1.3,3.2-1.3c2.6,0,4,1.7,4.4,3.7h-1.8c-0.3-1.3-1.2-2.1-2.5-2.1c-0.7,0-1.4,0.3-1.8,0.7c-0.6,0.6-0.7,1.3-0.7,3.7
			c0,2.4,0.1,3.1,0.7,3.8c0.4,0.5,1.1,0.7,1.8,0.7c0.8,0,1.5-0.3,2-0.8c0.4-0.5,0.6-1.1,0.6-1.9v-0.7h-2.6v-1.6h4.4v1.8
			C112.6,252.2,112.3,253.2,111.5,254.1z"/>
		<path d="M122,255.3v-5.3h-4.9v5.3h-1.8v-12.1h1.8v5.1h4.9v-5.1h1.8v12.1H122z"/>
		<path d="M127,255.3v-12.1h1.8v12.1H127z"/>
		<path d="M138.9,255.3l-0.8-2.4h-4.8l-0.8,2.4h-1.9l4.4-12.1h1.5l4.4,12.1H138.9z M135.7,246l-1.9,5.3h3.7L135.7,246z"/>
		<path d="M149.2,255.3l-2.5-5.1h-2.3v5.1h-1.8v-12.1h4.7c2.3,0,3.7,1.5,3.7,3.5c0,1.7-1,2.8-2.4,3.2l2.8,5.3H149.2z M147.1,244.9
			h-2.7v3.8h2.7c1.2,0,2-0.7,2-1.9C149.1,245.6,148.3,244.9,147.1,244.9z"/>
		<path d="M169.1,254.2c-0.8,0.8-1.9,1.1-3.1,1.1h-4.2v-12.1h4.2c1.3,0,2.4,0.4,3.1,1.1c1.3,1.3,1.2,3.1,1.2,4.8
			C170.3,251,170.4,252.9,169.1,254.2z M167.8,245.7c-0.5-0.6-1.2-0.8-2-0.8h-2.2v8.8h2.2c0.9,0,1.5-0.3,2-0.8
			c0.6-0.7,0.6-2,0.6-3.7C168.5,247.6,168.5,246.4,167.8,245.7z"/>
		<path d="M173,255.3v-12.1h7.7v1.6h-5.9v3.5h5v1.6h-5v3.6h5.9v1.6H173z"/>
		<path d="M194.5,255.4c-1.8,0-3.1-0.4-4.3-1.6l1.2-1.2c0.9,0.9,1.8,1.2,3.1,1.2c1.6,0,2.5-0.7,2.5-1.8c0-0.5-0.2-1-0.5-1.3
			c-0.3-0.3-0.6-0.4-1.3-0.5l-1.4-0.2c-1-0.1-1.8-0.5-2.3-1c-0.6-0.6-0.9-1.3-0.9-2.3c0-2.1,1.5-3.5,4-3.5c1.6,0,2.7,0.4,3.7,1.4
			l-1.2,1.2c-0.7-0.7-1.6-0.9-2.6-0.9c-1.4,0-2.2,0.8-2.2,1.9c0,0.4,0.1,0.8,0.5,1.1c0.3,0.3,0.8,0.5,1.4,0.6l1.4,0.2
			c1.1,0.2,1.7,0.4,2.3,0.9c0.7,0.6,1,1.4,1,2.5C198.9,254.1,197.1,255.4,194.5,255.4z"/>
		<path d="M205.4,244.9v10.4h-1.8v-10.4h-3.3v-1.6h8.5v1.6H205.4z"/>
		<path d="M216.7,255.3l-0.8-2.4h-4.8l-0.8,2.4h-1.9l4.4-12.1h1.5l4.4,12.1H216.7z M213.5,246l-1.9,5.3h3.7L213.5,246z"/>
		<path d="M223.4,244.9v10.4h-1.8v-10.4h-3.3v-1.6h8.5v1.6H223.4z"/>
	</g>
	<g>
		<path d="M9,310.6L8.1,308H3l-0.9,2.6H0l4.7-12.9h1.6l4.7,12.9H9z M5.6,300.6l-2,5.7h4L5.6,300.6z M5.9,296.5H4.5l1.4-2.9h2
			L5.9,296.5z"/>
		<path d="M13.1,310.6v-12.9h2v11.1h6.2v1.8H13.1z"/>
		<path d="M23.6,310.6v-12.9h2v11.1h6.2v1.8H23.6z"/>
		<path d="M41.6,310.6l-0.9-2.6h-5.1l-0.9,2.6h-2.1l4.7-12.9H39l4.7,12.9H41.6z M38.3,300.6l-2,5.7h4L38.3,300.6z"/>
		<path d="M55.2,310.6V302l-3,6.3h-1.5l-3-6.3v8.6h-2v-12.9h2l3.8,8l3.7-8h2v12.9H55.2z"/>
		<path d="M60.7,310.6v-12.9h2v12.9H60.7z"/>
		<path d="M84.7,310.6V302l-3,6.3h-1.5l-3-6.3v8.6h-2v-12.9h2l3.8,8l3.7-8h2v12.9H84.7z"/>
		<path d="M97.6,310.6l-0.9-2.6h-5.1l-0.9,2.6h-2.1l4.7-12.9h1.6l4.7,12.9H97.6z M94.2,300.6l-2,5.7h4L94.2,300.6z"/>
		<path d="M109.2,309.3c-1,1-2.2,1.5-3.6,1.5c-1.3,0-2.5-0.5-3.4-1.4c-1.3-1.3-1.3-2.7-1.3-5.2s0-3.9,1.3-5.2c0.9-0.9,2-1.4,3.4-1.4
			c2.7,0,4.3,1.8,4.7,4h-2c-0.3-1.4-1.3-2.2-2.7-2.2c-0.8,0-1.4,0.3-1.9,0.8c-0.6,0.7-0.8,1.4-0.8,4c0,2.6,0.1,3.3,0.8,4
			c0.5,0.5,1.1,0.8,1.9,0.8c0.9,0,1.6-0.3,2.1-0.9c0.5-0.5,0.7-1.2,0.7-2v-0.7h-2.8v-1.7h4.7v2C110.4,307.3,110.1,308.3,109.2,309.3
			z"/>
		<path d="M117.5,305.3v5.3h-2v-5.3l-3.9-7.6h2.1l2.7,5.7l2.7-5.7h2.1L117.5,305.3z"/>
		<path d="M130,310.6l-0.9-2.6H124l-0.9,2.6H121l4.7-12.9h1.6l4.7,12.9H130z M126.6,300.6l-2,5.7h4L126.6,300.6z"/>
		<path d="M141.2,310.6l-2.7-5.4h-2.4v5.4h-2v-12.9h5c2.4,0,4,1.6,4,3.8c0,1.8-1.1,3-2.6,3.4l3,5.7H141.2z M139,299.5h-2.9v4h2.9
			c1.3,0,2.2-0.7,2.2-2C141.2,300.2,140.3,299.5,139,299.5z"/>
		<path d="M158.6,310.7c-1.9,0-3.3-0.5-4.6-1.7l1.3-1.3c0.9,0.9,2,1.2,3.3,1.2c1.7,0,2.7-0.7,2.7-2c0-0.6-0.2-1-0.5-1.3
			c-0.3-0.3-0.7-0.4-1.4-0.5l-1.5-0.2c-1-0.1-1.9-0.5-2.4-1c-0.6-0.6-0.9-1.4-0.9-2.5c0-2.3,1.6-3.8,4.3-3.8c1.7,0,2.9,0.4,4,1.5
			l-1.2,1.2c-0.8-0.8-1.7-1-2.8-1c-1.5,0-2.4,0.9-2.4,2c0,0.5,0.1,0.9,0.5,1.2c0.3,0.3,0.9,0.5,1.5,0.6l1.5,0.2
			c1.2,0.2,1.9,0.5,2.4,1c0.7,0.6,1.1,1.5,1.1,2.6C163.3,309.3,161.3,310.7,158.6,310.7z"/>
		<path d="M165.3,310.6v-1.7l6-9.5h-5.7v-1.8h8v1.6l-6,9.6h6v1.8H165.3z"/>
		<path d="M176.3,310.6v-12.9h2v12.9H176.3z M178,296.5h-1.4l1.4-2.9h2L178,296.5z"/>
		<path d="M189.7,310.6l-6-9.1v9.1h-2v-12.9h1.8l6,9.1v-9.1h2v12.9H189.7z"/>
		<path d="M202.3,310.6V305H197v5.6h-2v-12.9h2v5.5h5.2v-5.5h2v12.9H202.3z"/>
		<path d="M215.2,310.6l-0.9-2.6h-5.1l-0.9,2.6h-2.1l4.7-12.9h1.6l4.7,12.9H215.2z M211.8,300.6l-2,5.7h4L211.8,300.6z M212.2,296.5
			h-1.4l1.4-2.9h2L212.2,296.5z"/>
		<path d="M218.5,310.6v-1.7l6-9.5h-5.7v-1.8h8v1.6l-6,9.6h6v1.8H218.5z"/>
	</g>
	<g>
		<path d="M8.5,287.7c-2.5,0-4.6-0.8-6.2-2.5c-1-1-1.6-2.2-1.9-3.5C0.1,280.4,0,278.5,0,276c0-2.5,0.1-4.5,0.4-5.8
			c0.3-1.3,0.9-2.5,1.9-3.5c1.7-1.7,3.8-2.5,6.2-2.5c4.5,0,7.7,2.6,8.5,7.3h-4.6c-0.5-2-1.7-3.3-3.9-3.3c-1.2,0-2.2,0.4-2.9,1.2
			c-0.9,1-1.1,2-1.1,6.5c0,4.5,0.2,5.5,1.1,6.5c0.7,0.8,1.7,1.2,2.9,1.2c2.2,0,3.4-1.3,3.9-3.3H17C16.3,285.1,12.9,287.7,8.5,287.7z
			"/>
		<path d="M26.4,287.7c-3.5,0-6.2-0.7-8.5-3.1l2.9-2.9c1.5,1.5,3.4,2,5.6,2c2.7,0,4.1-1,4.1-2.9c0-0.8-0.2-1.5-0.7-2
			c-0.5-0.4-1-0.7-2-0.8l-2.8-0.4c-2-0.3-3.4-0.9-4.5-1.9c-1.1-1.1-1.7-2.6-1.7-4.6c0-4.1,3.1-7,8.1-7c3.2,0,5.5,0.8,7.5,2.7
			l-2.9,2.8c-1.5-1.4-3.2-1.6-4.7-1.6c-2.4,0-3.6,1.3-3.6,2.9c0,0.6,0.2,1.2,0.7,1.7c0.5,0.4,1.2,0.8,2.1,0.9l2.7,0.4
			c2.1,0.3,3.4,0.9,4.4,1.8c1.2,1.2,1.8,2.9,1.8,4.9C34.9,285.2,31.2,287.7,26.4,287.7z"/>
		<path d="M38.2,287.6v-23.2h4.5v23.2H38.2z"/>
		<path d="M60.6,287.6l-6-10.5l-3,3.6v7h-4.5v-23.2h4.5v10.1l8.2-10.1h5.5l-7.7,9.2l8.2,14H60.6z"/>
		<path d="M76.7,278.1v9.5h-4.5v-9.5l-7-13.7h4.9l4.3,9.3l4.3-9.3h4.9L76.7,278.1z"/>
		<path d="M112.9,285.1c-1.8,1.8-3.9,2.6-6.5,2.6c-2.5,0-4.6-0.8-6.2-2.5c-1-1-1.6-2.2-1.9-3.5c-0.3-1.3-0.4-3.2-0.4-5.8
			c0-2.5,0.1-4.5,0.4-5.8c0.3-1.3,0.9-2.5,1.9-3.5c1.7-1.7,3.8-2.5,6.2-2.5c5.3,0,8.1,3.4,8.7,7.4h-4.6c-0.6-2.2-1.9-3.4-4.2-3.4
			c-1.2,0-2.2,0.4-2.9,1.2c-0.8,1.1-1.1,1.9-1.1,6.5c0,4.6,0.2,5.5,1.1,6.5c0.7,0.8,1.7,1.2,2.9,1.2c1.3,0,2.4-0.4,3.2-1.3
			c0.7-0.8,1-1.8,1-3.1v-0.9h-4.3v-3.8h8.8v3.4C115.1,281.4,114.5,283.4,112.9,285.1z"/>
		<path d="M118.4,287.6v-23.2h15.3v4h-10.7v5.4h9.1v4h-9.1v5.6h10.7v4H118.4z"/>
		<path d="M149.4,287.6l-4.5-9.2h-3.3v9.2h-4.5v-23.2h9.1c4.7,0,7.5,3.2,7.5,7.1c0,3.3-2,5.3-4.2,6.1l5.2,10H149.4z M145.8,268.4
			h-4.3v6.1h4.3c2,0,3.3-1.3,3.3-3.1C149.1,269.7,147.8,268.4,145.8,268.4z"/>
		<path d="M171.6,285.1c-1.8,1.8-3.9,2.6-6.5,2.6c-2.5,0-4.6-0.8-6.2-2.5c-1-1-1.6-2.2-1.9-3.5c-0.3-1.3-0.4-3.2-0.4-5.8
			c0-2.5,0.1-4.5,0.4-5.8c0.3-1.3,0.9-2.5,1.9-3.5c1.7-1.7,3.8-2.5,6.2-2.5c5.3,0,8.1,3.4,8.7,7.4h-4.6c-0.6-2.2-1.9-3.4-4.2-3.4
			c-1.2,0-2.2,0.4-2.9,1.2c-0.8,1.1-1.1,1.9-1.1,6.5c0,4.6,0.2,5.5,1.1,6.5c0.7,0.8,1.7,1.2,2.9,1.2c1.3,0,2.4-0.4,3.2-1.3
			c0.7-0.8,1-1.8,1-3.1v-0.9h-4.3v-3.8h8.8v3.4C173.9,281.4,173.2,283.4,171.6,285.1z"/>
		<path d="M177.1,287.6v-23.2h15.3v4h-10.7v5.4h9.1v4h-9.1v5.6h10.7v4H177.1z"/>
		<path d="M195.8,287.6v-23.2h4.5v19.1h10.5v4H195.8z"/>
		<path d="M219.8,278.1v9.5h-4.5v-9.5l-7-13.7h4.9l4.3,9.3l4.3-9.3h4.9L219.8,278.1z"/>
	</g>
	<g>
		<path d="M3.5,331.2H2.8v-8.7H0v-0.6h6.3v0.6H3.5V331.2z"/>
		<path d="M12,321.9h0.7v9.3H12V321.9z"/>
		<path d="M26.6,323.5l-2.8,6.4h-0.7l-2.9-6.4v7.7h-0.7v-9.3h0.7l3.2,7.2l3.2-7.2h0.7v9.3h-0.7V323.5z"/>
		<path d="M34.1,321.9h0.7v9.3h-0.7V321.9z"/>
		<path d="M43.9,331.3c-1.4,0-2.2-0.4-3.1-1.2l0.5-0.5c0.8,0.8,1.5,1.1,2.6,1.1c1.5,0,2.4-0.7,2.4-1.9c0-0.6-0.2-1-0.5-1.3
			c-0.4-0.3-0.6-0.4-1.3-0.5l-1.1-0.2c-0.7-0.1-1.3-0.3-1.7-0.7c-0.5-0.4-0.7-1-0.7-1.7c0-1.6,1.1-2.5,2.9-2.5c1.1,0,1.9,0.3,2.7,1
			l-0.5,0.5c-0.5-0.5-1.2-0.9-2.3-0.9c-1.4,0-2.2,0.7-2.2,1.9c0,0.5,0.2,0.9,0.5,1.2c0.3,0.3,0.9,0.5,1.4,0.6l1,0.2
			c0.9,0.1,1.3,0.3,1.7,0.6c0.5,0.4,0.8,1.1,0.8,1.8C47,330.3,45.8,331.3,43.9,331.3z M42.6,334.1l0.9-2h0.7l-0.8,2H42.6z"/>
		<path d="M58.3,330.3c-0.6,0.6-1.4,1-2.3,1c-0.9,0-1.7-0.3-2.3-1c-0.8-0.8-0.9-1.7-0.9-3.8c0-2.1,0-2.9,0.9-3.8
			c0.6-0.6,1.4-1,2.3-1c0.9,0,1.7,0.3,2.3,1c0.8,0.8,0.9,1.7,0.9,3.8C59.1,328.6,59.1,329.5,58.3,330.3z M57.7,323.2
			c-0.5-0.5-1.1-0.7-1.8-0.7c-0.7,0-1.3,0.2-1.8,0.7c-0.7,0.7-0.7,1.4-0.7,3.4c0,2,0.1,2.7,0.7,3.4c0.5,0.5,1.1,0.7,1.8,0.7
			c0.7,0,1.3-0.2,1.8-0.7c0.7-0.7,0.7-1.4,0.7-3.4C58.4,324.6,58.4,323.8,57.7,323.2z"/>
		<path d="M70.1,328.9h-4.3l-0.8,2.3h-0.8l3.4-9.3h0.6l3.4,9.3h-0.8L70.1,328.9z M66,328.3h3.9l-1.9-5.5L66,328.3z"/>
		<path d="M80.5,326.9h-2.6v4.3h-0.7v-9.3h3.5c1.5,0,2.7,0.9,2.7,2.5c0,1.4-0.8,2.3-2.1,2.5l2.2,4.3h-0.8L80.5,326.9z M80.6,322.5
			h-2.7v3.8h2.7c1.2,0,2-0.6,2-1.9S81.9,322.5,80.6,322.5z"/>
		<path d="M94.4,328.9H90l-0.8,2.3h-0.8l3.4-9.3h0.6l3.4,9.3h-0.8L94.4,328.9z M90.2,328.3h3.9l-1.9-5.5L90.2,328.3z"/>
		<path d="M113.3,321.9h0.7v9.3h-0.7V321.9z"/>
		<path d="M135.1,331.2h-0.7v-8.7h-2.8v-0.6h6.3v0.6h-2.8V331.2z"/>
		<path d="M144.4,321.9h5.6v0.6h-4.9v3.7h4.2v0.6h-4.2v3.7h4.9v0.6h-5.6V321.9z"/>
		<path d="M163.9,323.5l-2.8,6.4h-0.7l-2.9-6.4v7.7h-0.7v-9.3h0.7l3.2,7.2l3.2-7.2h0.7v9.3h-0.7V323.5z"/>
		<path d="M172.1,321.9h5.6v0.6h-4.9v3.7h4.2v0.6h-4.2v3.7h4.9v0.6h-5.6V321.9z"/>
		<path d="M186.9,331.3c-1.4,0-2.2-0.4-3.1-1.2l0.5-0.5c0.8,0.8,1.5,1.1,2.6,1.1c1.5,0,2.4-0.7,2.4-1.9c0-0.6-0.2-1-0.5-1.3
			c-0.4-0.3-0.6-0.4-1.3-0.5l-1.1-0.2c-0.7-0.1-1.3-0.3-1.7-0.7c-0.5-0.4-0.7-1-0.7-1.7c0-1.6,1.1-2.5,2.9-2.5c1.1,0,1.9,0.3,2.7,1
			l-0.5,0.5c-0.5-0.5-1.2-0.9-2.3-0.9c-1.4,0-2.2,0.7-2.2,1.9c0,0.5,0.2,0.9,0.5,1.2c0.3,0.3,0.9,0.5,1.4,0.6l1,0.2
			c0.9,0.1,1.3,0.3,1.7,0.6c0.5,0.4,0.8,1.1,0.8,1.8C190,330.3,188.8,331.3,186.9,331.3z"/>
		<path d="M198.6,331.2l-3.1-9.3h0.7l2.6,8.1l2.6-8.1h0.7l-3.1,9.3H198.6z"/>
		<path d="M212.7,328.9h-4.3l-0.8,2.3h-0.8l3.4-9.3h0.6l3.4,9.3h-0.8L212.7,328.9z M208.5,328.3h3.9l-1.9-5.5L208.5,328.3z
			 M209.9,321l1.3-1.9h0.9l-1.4,1.9H209.9z"/>
		<path d="M223.7,326.9h-2.6v4.3h-0.7v-9.3h3.5c1.5,0,2.7,0.9,2.7,2.5c0,1.4-0.8,2.3-2.1,2.5l2.2,4.3H226L223.7,326.9z M223.9,322.5
			h-2.7v3.8h2.7c1.2,0,2-0.6,2-1.9S225.1,322.5,223.9,322.5z"/>
	</g>
</g>
</svg>
