<!-- Generator: Adobe Illustrator 22.0.0, SVG Export Plug-In  -->
<svg version="1.1"
	 xmlns="http://www.w3.org/2000/svg" xmlns:xlink="http://www.w3.org/1999/xlink" xmlns:a="http://ns.adobe.com/AdobeSVGViewerExtensions/3.0/"
	 x="0px" y="0px" width="497.5px" height="215.2px" viewBox="0 0 497.5 215.2"
	 style="overflow:inherit;enable-background:new 0 0 497.5 215.2;" xml:space="preserve">
<defs>
</defs>
<polygon points="41.3,140.2 41.3,151.4 39.3,151.4 39.3,140.2 35.8,140.2 35.8,138.5 44.8,138.5 44.8,140.2 "/>
<polygon points="47.6,151.4 47.6,138.5 55.8,138.5 55.8,140.2 49.6,140.2 49.6,144 54.9,144 54.9,145.7 49.6,145.7 49.6,149.6 
	55.8,149.6 55.8,151.4 "/>
<polygon points="68.5,151.4 68.5,142.7 65.5,149 64,149 61,142.7 61,151.4 59,151.4 59,138.5 61,138.5 64.8,146.5 68.5,138.5 
	70.4,138.5 70.4,151.4 "/>
<polygon points="74.3,151.4 74.3,138.5 82.5,138.5 82.5,140.2 76.2,140.2 76.2,144 81.6,144 81.6,145.7 76.2,145.7 76.2,149.6 
	82.5,149.6 82.5,151.4 "/>
<path d="M89.2,151.5c-1.9,0-3.3-0.5-4.6-1.7l1.3-1.3c0.9,0.9,2,1.2,3.3,1.2c1.7,0,2.7-0.7,2.7-2c0-0.6-0.2-1-0.5-1.3
	c-0.3-0.3-0.7-0.4-1.4-0.5l-1.5-0.2c-1-0.1-1.9-0.5-2.4-1c-0.6-0.6-0.9-1.4-0.9-2.5c0-2.2,1.6-3.8,4.3-3.8c1.7,0,2.9,0.4,4,1.5
	l-1.2,1.2c-0.8-0.8-1.7-1-2.8-1c-1.5,0-2.4,0.9-2.4,2c0,0.5,0.1,0.9,0.5,1.2c0.3,0.3,0.9,0.5,1.4,0.6l1.5,0.2c1.2,0.2,1.9,0.5,2.4,1
	c0.7,0.6,1,1.5,1,2.6C93.8,150.1,91.9,151.5,89.2,151.5"/>
<polygon points="101.1,151.4 99.6,151.4 95.4,138.5 97.4,138.5 100.4,147.8 103.3,138.5 105.4,138.5 "/>
<path d="M115.1,151.4l-0.9-2.6h-5.1l-0.9,2.6h-2.1l4.7-12.9h1.6l4.7,12.9H115.1z M111.7,141.4l-2,5.7h4L111.7,141.4z M112.1,137.2
	h-1.4l1.4-2.9h2L112.1,137.2z"/>
<path d="M126.6,151.4l-2.7-5.4h-2.4v5.4h-2v-12.9h5c2.4,0,4,1.6,4,3.8c0,1.8-1.1,3-2.6,3.4l3,5.7H126.6z M124.4,140.2h-2.9v4h2.9
	c1.3,0,2.2-0.7,2.2-2C126.6,141,125.7,140.2,124.4,140.2"/>
<rect x="131.9" y="138.5" width="2" height="12.9"/>
<polygon points="146.9,151.4 146.9,138.5 155.1,138.5 155.1,140.2 148.9,140.2 148.9,144 154.2,144 154.2,145.7 148.9,145.7 
	148.9,149.6 155.1,149.6 155.1,151.4 "/>
<path d="M162.8,151.5c-2.6,0-4.6-1.8-4.6-4.5v-8.5h2v8.4c0,1.7,1.1,2.8,2.7,2.8c1.6,0,2.7-1.1,2.7-2.8v-8.4h2v8.5
	C167.4,149.7,165.4,151.5,162.8,151.5"/>
<path d="M178.2,151.4l-2.7-5.4h-2.4v5.4h-2v-12.9h5c2.4,0,4,1.6,4,3.8c0,1.8-1.1,3-2.6,3.4l3,5.7H178.2z M176,140.2h-2.9v4h2.9
	c1.3,0,2.2-0.7,2.2-2C178.1,141,177.3,140.2,176,140.2"/>
<path d="M191.1,150.1c-0.9,0.9-2,1.4-3.4,1.4c-1.4,0-2.5-0.5-3.4-1.4c-1.3-1.3-1.2-2.7-1.2-5.2c0-2.5,0-3.9,1.2-5.2
	c0.9-0.9,2-1.4,3.4-1.4c1.4,0,2.5,0.5,3.4,1.4c1.3,1.3,1.2,2.7,1.2,5.2C192.3,147.4,192.3,148.8,191.1,150.1 M189.6,140.9
	c-0.5-0.5-1.2-0.8-1.9-0.8c-0.8,0-1.5,0.3-1.9,0.8c-0.6,0.7-0.8,1.4-0.8,4c0,2.6,0.1,3.3,0.8,4c0.5,0.5,1.2,0.8,1.9,0.8
	c0.8,0,1.5-0.3,1.9-0.8c0.6-0.7,0.8-1.4,0.8-4C190.3,142.3,190.2,141.6,189.6,140.9"/>
<path d="M202.8,151.4l-2.7-5.4h-2.4v5.4h-2v-12.9h5c2.4,0,4,1.6,4,3.8c0,1.8-1.1,3-2.6,3.4l3,5.7H202.8z M200.6,140.2h-2.9v4h2.9
	c1.3,0,2.2-0.7,2.2-2C202.8,141,201.9,140.2,200.6,140.2"/>
<path d="M208.1,151.4v-12.9h8.2v1.8h-6.3v3.8h5.4v1.7h-5.4v3.9h6.3v1.8H208.1z M212.5,137.2h-1.4l1.4-2.9h2L212.5,137.2z"/>
<path d="M227.3,150c-1,1-2.2,1.5-3.5,1.5c-1.3,0-2.5-0.5-3.4-1.4c-1.3-1.3-1.2-2.7-1.2-5.2c0-2.5,0-3.9,1.2-5.2
	c0.9-0.9,2-1.4,3.4-1.4c2.7,0,4.3,1.8,4.7,4h-2c-0.3-1.4-1.3-2.2-2.7-2.2c-0.8,0-1.4,0.3-1.9,0.8c-0.6,0.7-0.8,1.4-0.8,4
	c0,2.6,0.1,3.3,0.8,4c0.5,0.5,1.1,0.8,1.9,0.8c0.8,0,1.6-0.3,2.1-0.9c0.5-0.5,0.7-1.2,0.7-2v-0.7h-2.7v-1.7h4.7v2
	C228.4,148,228.1,149.1,227.3,150"/>
<rect x="231.8" y="138.5" width="2" height="12.9"/>
<path d="M245.3,150.1c-0.9,0.9-2,1.4-3.4,1.4c-1.4,0-2.5-0.5-3.4-1.4c-1.3-1.3-1.2-2.7-1.2-5.2c0-2.5,0-3.9,1.2-5.2
	c0.9-0.9,2-1.4,3.4-1.4c1.4,0,2.5,0.5,3.4,1.4c1.3,1.3,1.2,2.7,1.2,5.2C246.5,147.4,246.5,148.8,245.3,150.1 M243.8,140.9
	c-0.5-0.5-1.2-0.8-1.9-0.8c-0.8,0-1.5,0.3-1.9,0.8c-0.6,0.7-0.8,1.4-0.8,4c0,2.6,0.1,3.3,0.8,4c0.5,0.5,1.2,0.8,1.9,0.8
	c0.8,0,1.5-0.3,1.9-0.8c0.6-0.7,0.8-1.4,0.8-4C244.5,142.3,244.4,141.6,243.8,140.9 M242.3,137.2h-1.4l1.4-2.9h2L242.3,137.2z"/>
<path d="M253.3,151.5c-1.9,0-3.3-0.5-4.6-1.7l1.3-1.3c0.9,0.9,2,1.2,3.3,1.2c1.7,0,2.7-0.7,2.7-2c0-0.6-0.2-1-0.5-1.3
	c-0.3-0.3-0.7-0.4-1.4-0.5l-1.5-0.2c-1-0.1-1.9-0.5-2.4-1c-0.6-0.6-0.9-1.4-0.9-2.5c0-2.2,1.6-3.8,4.3-3.8c1.7,0,2.9,0.4,4,1.5
	l-1.2,1.2c-0.8-0.8-1.7-1-2.8-1c-1.5,0-2.4,0.9-2.4,2c0,0.5,0.1,0.9,0.5,1.2c0.3,0.3,0.8,0.5,1.4,0.6l1.5,0.2c1.2,0.2,1.9,0.5,2.4,1
	c0.7,0.6,1,1.5,1,2.6C258,150.1,256,151.5,253.3,151.5"/>
<path d="M273.7,151.5c-1.9,0-3.3-0.5-4.6-1.7l1.3-1.3c0.9,0.9,2,1.2,3.3,1.2c1.7,0,2.7-0.7,2.7-2c0-0.6-0.2-1-0.5-1.3
	c-0.3-0.3-0.7-0.4-1.4-0.5l-1.5-0.2c-1-0.1-1.9-0.5-2.4-1c-0.6-0.6-0.9-1.4-0.9-2.5c0-2.2,1.6-3.8,4.3-3.8c1.7,0,2.9,0.4,4,1.5
	l-1.2,1.2c-0.8-0.8-1.7-1-2.8-1c-1.5,0-2.4,0.9-2.4,2c0,0.5,0.1,0.9,0.5,1.2c0.3,0.3,0.9,0.5,1.4,0.6l1.5,0.2c1.2,0.2,1.9,0.5,2.4,1
	c0.7,0.6,1,1.5,1,2.6C278.3,150.1,276.4,151.5,273.7,151.5"/>
<polygon points="280.7,151.4 280.7,149.7 286.6,140.2 280.9,140.2 280.9,138.5 288.9,138.5 288.9,140.1 282.9,149.6 288.9,149.6 
	288.9,151.4 "/>
<path d="M292,138.5h2v12.9h-2V138.5z M293.7,137.2h-1.4l1.4-2.9h2L293.7,137.2z"/>
<polygon points="305.8,151.4 299.8,142.3 299.8,151.4 297.9,151.4 297.9,138.5 299.6,138.5 305.6,147.5 305.6,138.5 307.5,138.5 
	307.5,151.4 "/>
<polygon points="318.6,151.4 318.6,145.7 313.4,145.7 313.4,151.4 311.4,151.4 311.4,138.5 313.4,138.5 313.4,144 318.6,144 
	318.6,138.5 320.6,138.5 320.6,151.4 "/>
<path d="M331.9,151.4l-0.9-2.6h-5.1l-0.9,2.6h-2.1l4.7-12.9h1.6l4.7,12.9H331.9z M328.5,141.4l-2,5.7h4L328.5,141.4z M328.9,137.2
	h-1.4l1.4-2.9h2L328.9,137.2z"/>
<polygon points="335.5,151.4 335.5,149.7 341.5,140.2 335.8,140.2 335.8,138.5 343.8,138.5 343.8,140.1 337.8,149.6 343.8,149.6 
	343.8,151.4 "/>
<rect x="346.9" y="138.5" width="2" height="12.9"/>
<polygon points="366.2,140.2 366.2,151.4 364.2,151.4 364.2,140.2 360.7,140.2 360.7,138.5 369.7,138.5 369.7,140.2 "/>
<path d="M379.9,151.4l-0.9-2.6h-5.1l-0.9,2.6H371l4.7-12.9h1.6l4.7,12.9H379.9z M376.5,141.4l-2,5.7h4L376.5,141.4z"/>
<polygon points="384.4,151.4 384.4,138.5 386.3,138.5 386.3,149.6 392.5,149.6 392.5,151.4 "/>
<path d="M402.7,151.4l-0.9-2.6h-5.1l-0.9,2.6h-2.1l4.7-12.9h1.6l4.7,12.9H402.7z M399.3,141.4l-2,5.7h4L399.3,141.4z M399.7,137.2
	h-1.4l1.4-2.9h2L399.7,137.2z"/>
<polygon points="407.1,151.4 407.1,138.5 409.1,138.5 409.1,149.6 415.3,149.6 415.3,151.4 "/>
<polygon points="425.8,151.4 422.2,145 420,147.6 420,151.4 418,151.4 418,138.5 420,138.5 420,145 425.3,138.5 427.7,138.5 
	423.5,143.5 428.1,151.4 "/>
<path d="M438,150.1c-0.9,0.9-2,1.4-3.4,1.4c-1.4,0-2.5-0.5-3.4-1.4c-1.3-1.3-1.2-2.7-1.2-5.2c0-2.5,0-3.9,1.2-5.2
	c0.9-0.9,2-1.4,3.4-1.4c1.4,0,2.5,0.5,3.4,1.4c1.3,1.3,1.2,2.7,1.2,5.2C439.3,147.4,439.3,148.8,438,150.1 M436.6,140.9
	c-0.5-0.5-1.2-0.8-1.9-0.8c-0.8,0-1.5,0.3-1.9,0.8c-0.6,0.7-0.8,1.4-0.8,4c0,2.6,0.1,3.3,0.8,4c0.5,0.5,1.2,0.8,1.9,0.8
	c0.8,0,1.5-0.3,1.9-0.8c0.6-0.7,0.8-1.4,0.8-4C437.3,142.3,437.2,141.6,436.6,140.9"/>
<polygon points="441.9,151.4 441.9,149.7 447.9,140.2 442.2,140.2 442.2,138.5 450.1,138.5 450.1,140.1 444.2,149.6 450.1,149.6 
	450.1,151.4 "/>
<path d="M460.8,150.1c-0.9,0.9-2,1.4-3.4,1.4c-1.4,0-2.5-0.5-3.4-1.4c-1.3-1.3-1.2-2.7-1.2-5.2c0-2.5,0-3.9,1.2-5.2
	c0.9-0.9,2-1.4,3.4-1.4c1.4,0,2.5,0.5,3.4,1.4c1.3,1.3,1.2,2.7,1.2,5.2C462,147.4,462.1,148.8,460.8,150.1 M459.3,140.9
	c-0.5-0.5-1.2-0.8-1.9-0.8c-0.8,0-1.5,0.3-1.9,0.8c-0.6,0.7-0.8,1.4-0.8,4c0,2.6,0.1,3.3,0.8,4c0.5,0.5,1.2,0.8,1.9,0.8
	c0.8,0,1.5-0.3,1.9-0.8c0.6-0.7,0.8-1.4,0.8-4C460.1,142.3,459.9,141.6,459.3,140.9 M457.8,137.2h-1.4l1.4-2.9h2L457.8,137.2z"/>
<polygon points="37.8,170.3 37.8,174.2 43.1,174.2 43.1,176 37.8,176 37.8,181.4 35.8,181.4 35.8,168.5 44,168.5 44,170.3 "/>
<polygon points="46.2,181.4 46.2,168.5 54.4,168.5 54.4,170.3 48.2,170.3 48.2,174.1 53.5,174.1 53.5,175.8 48.2,175.8 48.2,179.7 
	54.4,179.7 54.4,181.4 "/>
<path d="M60.3,181.5c-1.9,0-3.3-0.5-4.6-1.7l1.3-1.3c0.9,0.9,2,1.2,3.3,1.2c1.7,0,2.7-0.7,2.7-2c0-0.6-0.2-1-0.5-1.3
	c-0.3-0.3-0.7-0.4-1.4-0.5l-1.5-0.2c-1-0.1-1.9-0.5-2.4-1c-0.6-0.6-0.9-1.4-0.9-2.5c0-2.2,1.6-3.8,4.3-3.8c1.7,0,2.9,0.4,4,1.5
	l-1.2,1.2c-0.8-0.8-1.7-1-2.8-1c-1.5,0-2.4,0.9-2.4,2c0,0.5,0.1,0.9,0.5,1.2c0.3,0.3,0.8,0.5,1.4,0.6l1.5,0.2c1.2,0.2,1.9,0.5,2.4,1
	c0.7,0.6,1,1.5,1,2.6C65,180.1,63,181.5,60.3,181.5"/>
<polygon points="71.8,170.3 71.8,181.4 69.8,181.4 69.8,170.3 66.3,170.3 66.3,168.5 75.3,168.5 75.3,170.3 "/>
<rect x="77.4" y="168.5" width="2" height="12.9"/>
<polygon points="86.7,181.4 85.1,181.4 80.9,168.5 82.9,168.5 85.9,177.9 88.9,168.5 90.9,168.5 "/>
<path d="M99.9,181.4l-0.9-2.6h-5.1l-0.9,2.6H91l4.7-12.9h1.6l4.7,12.9H99.9z M96.5,171.5l-2,5.7h4L96.5,171.5z"/>
<polygon points="103.6,181.4 103.6,168.5 105.6,168.5 105.6,179.7 111.8,179.7 111.8,181.4 "/>
<path d="M118.3,181.5c-2.6,0-4.6-1.8-4.6-4.5v-8.5h2v8.4c0,1.7,1,2.8,2.7,2.8c1.6,0,2.7-1.1,2.7-2.8v-8.4h2v8.5
	C122.9,179.7,120.9,181.5,118.3,181.5"/>
<polygon points="125.9,181.4 125.9,168.5 127.8,168.5 127.8,179.7 134,179.7 134,181.4 "/>
<polygon points="140.6,181.4 140.6,168.5 148.9,168.5 148.9,170.3 142.6,170.3 142.6,174.1 147.9,174.1 147.9,175.8 142.6,175.8 
	142.6,179.7 148.9,179.7 148.9,181.4 "/>
<path d="M155.8,181.5c-2.6,0-4.6-1.8-4.6-4.5v-8.5h2v8.4c0,1.7,1,2.8,2.7,2.8c1.6,0,2.7-1.1,2.7-2.8v-8.4h2v8.5
	C160.4,179.7,158.4,181.5,155.8,181.5"/>
<path d="M170.5,181.4l-2.7-5.4h-2.4v5.4h-2v-12.9h5c2.4,0,4,1.6,4,3.8c0,1.8-1.1,3-2.6,3.4l3,5.7H170.5z M168.2,170.3h-2.9v4h2.9
	c1.3,0,2.2-0.7,2.2-2C170.4,171.1,169.5,170.3,168.2,170.3"/>
<path d="M182.6,180.2c-0.9,0.9-2,1.4-3.4,1.4c-1.4,0-2.5-0.5-3.4-1.4c-1.3-1.3-1.2-2.7-1.2-5.2c0-2.5,0-3.9,1.2-5.2
	c0.9-0.9,2-1.4,3.4-1.4c1.4,0,2.5,0.5,3.4,1.4c1.3,1.3,1.2,2.7,1.2,5.2C183.8,177.5,183.9,178.9,182.6,180.2 M181.1,171
	c-0.5-0.5-1.2-0.8-1.9-0.8c-0.8,0-1.5,0.3-1.9,0.8c-0.6,0.7-0.8,1.4-0.8,4c0,2.6,0.1,3.3,0.8,4c0.5,0.5,1.2,0.8,1.9,0.8
	c0.8,0,1.5-0.3,1.9-0.8c0.6-0.7,0.8-1.4,0.8-4C181.9,172.4,181.8,171.7,181.1,171"/>
<path d="M193.7,181.4l-2.7-5.4h-2.4v5.4h-2v-12.9h5c2.4,0,4,1.6,4,3.8c0,1.8-1.1,3-2.6,3.4l3,5.7H193.7z M191.4,170.3h-2.9v4h2.9
	c1.3,0,2.2-0.7,2.2-2C193.6,171.1,192.7,170.3,191.4,170.3"/>
<polygon points="198.2,181.4 198.2,168.5 206.4,168.5 206.4,170.3 200.2,170.3 200.2,174.1 205.5,174.1 205.5,175.8 200.2,175.8 
	200.2,179.7 206.4,179.7 206.4,181.4 "/>
<path d="M216.6,180.1c-1,1-2.2,1.5-3.5,1.5c-1.3,0-2.5-0.5-3.4-1.4c-1.3-1.3-1.2-2.7-1.2-5.2c0-2.5,0-3.9,1.2-5.2
	c0.9-0.9,2-1.4,3.4-1.4c2.7,0,4.3,1.8,4.7,4h-2c-0.3-1.4-1.3-2.2-2.7-2.2c-0.8,0-1.4,0.3-1.9,0.8c-0.6,0.7-0.8,1.4-0.8,4
	c0,2.6,0.1,3.3,0.8,4c0.5,0.5,1.1,0.8,1.9,0.8c0.8,0,1.6-0.3,2.1-0.9c0.5-0.5,0.7-1.2,0.7-2v-0.7h-2.7v-1.7h4.7v2
	C217.8,178.1,217.5,179.2,216.6,180.1"/>
<rect x="220.5" y="168.5" width="2" height="12.9"/>
<path d="M233.2,180.2c-0.9,0.9-2,1.4-3.4,1.4c-1.4,0-2.5-0.5-3.4-1.4c-1.3-1.3-1.2-2.7-1.2-5.2c0-2.5,0-3.9,1.2-5.2
	c0.9-0.9,2-1.4,3.4-1.4c1.4,0,2.5,0.5,3.4,1.4c1.3,1.3,1.2,2.7,1.2,5.2C234.4,177.5,234.5,178.9,233.2,180.2 M231.7,171
	c-0.5-0.5-1.2-0.8-1.9-0.8c-0.8,0-1.5,0.3-1.9,0.8c-0.6,0.7-0.8,1.4-0.8,4c0,2.6,0.1,3.3,0.8,4c0.5,0.5,1.2,0.8,1.9,0.8
	c0.8,0,1.5-0.3,1.9-0.8c0.6-0.7,0.8-1.4,0.8-4C232.5,172.4,232.3,171.7,231.7,171"/>
<polygon points="245,181.4 239.1,172.4 239.1,181.4 237.1,181.4 237.1,168.5 238.9,168.5 244.9,177.6 244.9,168.5 246.8,168.5 
	246.8,181.4 "/>
<path d="M257.4,181.4l-0.9-2.6h-5.1l-0.9,2.6h-2.1l4.7-12.9h1.6l4.7,12.9H257.4z M254,171.5l-2,5.7h4L254,171.5z"/>
<polygon points="261.1,181.4 261.1,168.5 263.1,168.5 263.1,179.7 269.3,179.7 269.3,181.4 "/>
<path d="M283.7,180.2c-0.8,0.8-2,1.2-3.3,1.2h-4.5v-12.9h4.5c1.3,0,2.5,0.4,3.3,1.2c1.4,1.4,1.3,3.3,1.3,5.1
	C285,176.8,285.1,178.8,283.7,180.2 M282.4,171.2c-0.5-0.6-1.3-0.9-2.2-0.9h-2.4v9.4h2.4c0.9,0,1.6-0.3,2.2-0.9
	c0.7-0.7,0.7-2.1,0.7-3.9C283.1,173.1,283.1,171.9,282.4,171.2"/>
<polygon points="287.8,181.4 287.8,168.5 296,168.5 296,170.3 289.7,170.3 289.7,174.1 295.1,174.1 295.1,175.8 289.7,175.8 
	289.7,179.7 296,179.7 296,181.4 "/>
<polygon points="307.4,170.3 307.4,181.4 305.4,181.4 305.4,170.3 301.9,170.3 301.9,168.5 310.9,168.5 310.9,170.3 "/>
<polygon points="313,181.4 313,168.5 321.2,168.5 321.2,170.3 314.9,170.3 314.9,174.1 320.3,174.1 320.3,175.8 314.9,175.8 
	314.9,179.7 321.2,179.7 321.2,181.4 "/>
<path d="M331.1,181.4l-0.9-2.6h-5.1l-0.9,2.6h-2.1l4.7-12.9h1.6l4.7,12.9H331.1z M327.7,171.5l-2,5.7h4L327.7,171.5z"/>
<polygon points="339.2,170.3 339.2,181.4 337.2,181.4 337.2,170.3 333.7,170.3 333.7,168.5 342.7,168.5 342.7,170.3 "/>
<path d="M351.9,181.4l-2.7-5.4h-2.4v5.4h-2v-12.9h5c2.4,0,4,1.6,4,3.8c0,1.8-1.1,3-2.6,3.4l3,5.7H351.9z M349.6,170.3h-2.9v4h2.9
	c1.3,0,2.2-0.7,2.2-2C351.8,171.1,350.9,170.3,349.6,170.3"/>
<path d="M360.9,181.5c-2.6,0-4.6-1.8-4.6-4.5v-8.5h2v8.4c0,1.7,1,2.8,2.7,2.8c1.6,0,2.7-1.1,2.7-2.8v-8.4h2v8.5
	C365.5,179.7,363.5,181.5,360.9,181.5"/>
<polygon points="377.4,170.3 377.4,181.4 375.4,181.4 375.4,170.3 371.9,170.3 371.9,168.5 380.9,168.5 380.9,170.3 "/>
<rect x="383" y="168.5" width="2" height="12.9"/>
<polygon points="397.5,181.4 397.5,172.8 394.5,179.1 393.1,179.1 390.1,172.8 390.1,181.4 388.1,181.4 388.1,168.5 390.1,168.5 
	393.8,176.6 397.5,168.5 399.5,168.5 399.5,181.4 "/>
<rect x="402.6" y="168.5" width="2" height="12.9"/>
<path d="M411.2,181.5c-1.9,0-3.3-0.5-4.6-1.7l1.3-1.3c0.9,0.9,2,1.2,3.3,1.2c1.7,0,2.7-0.7,2.7-2c0-0.6-0.2-1-0.5-1.3
	c-0.3-0.3-0.7-0.4-1.4-0.5l-1.5-0.2c-1-0.1-1.9-0.5-2.4-1c-0.6-0.6-0.9-1.4-0.9-2.5c0-2.2,1.6-3.8,4.3-3.8c1.7,0,2.9,0.4,4,1.5
	l-1.2,1.2c-0.8-0.8-1.7-1-2.8-1c-1.5,0-2.4,0.9-2.4,2c0,0.5,0.1,0.9,0.5,1.2c0.3,0.3,0.9,0.5,1.4,0.6l1.5,0.2c1.2,0.2,1.9,0.5,2.4,1
	c0.7,0.6,1,1.5,1,2.6C415.8,180.1,413.9,181.5,411.2,181.5 M411.7,185.2h-1.8l1.3-2.7h1.5L411.7,185.2z"/>
<path d="M425.8,180.2c-0.9,0.9-2,1.4-3.4,1.4c-1.4,0-2.5-0.5-3.4-1.4c-1.3-1.3-1.2-2.7-1.2-5.2c0-2.5,0-3.9,1.2-5.2
	c0.9-0.9,2-1.4,3.4-1.4c1.4,0,2.5,0.5,3.4,1.4c1.3,1.3,1.2,2.7,1.2,5.2C427,177.5,427.1,178.9,425.8,180.2 M424.3,171
	c-0.5-0.5-1.2-0.8-1.9-0.8c-0.8,0-1.5,0.3-1.9,0.8c-0.6,0.7-0.8,1.4-0.8,4c0,2.6,0.1,3.3,0.8,4c0.5,0.5,1.2,0.8,1.9,0.8
	c0.8,0,1.5-0.3,1.9-0.8c0.6-0.7,0.8-1.4,0.8-4C425.1,172.4,425,171.7,424.3,171"/>
<path d="M437.2,181.4l-0.9-2.6h-5.1l-0.9,2.6h-2.1l4.7-12.9h1.6l4.7,12.9H437.2z M433.8,171.5l-2,5.7h4L433.8,171.5z"/>
<path d="M448,181.4l-2.7-5.4h-2.4v5.4h-2v-12.9h5c2.4,0,4,1.6,4,3.8c0,1.8-1.1,3-2.6,3.4l3,5.7H448z M445.7,170.3h-2.9v4h2.9
	c1.3,0,2.2-0.7,2.2-2C447.9,171.1,447,170.3,445.7,170.3"/>
<path d="M459.9,181.4l-0.9-2.6H454l-0.9,2.6H451l4.7-12.9h1.6l4.7,12.9H459.9z M456.6,171.5l-2,5.7h4L456.6,171.5z"/>
<polygon points="35.8,211.4 35.8,198.5 44.1,198.5 44.1,200.3 37.8,200.3 37.8,204.1 43.2,204.1 43.2,205.8 37.8,205.8 37.8,209.7 
	44.1,209.7 44.1,211.4 "/>
<path d="M51.7,211.5c-2.6,0-4.6-1.8-4.6-4.5v-8.5h2v8.4c0,1.7,1.1,2.8,2.7,2.8c1.6,0,2.7-1.1,2.7-2.8v-8.4h2v8.5
	C56.3,209.7,54.3,211.5,51.7,211.5"/>
<path d="M67.2,211.4l-2.7-5.4H62v5.4h-2v-12.9h5c2.4,0,4,1.6,4,3.8c0,1.8-1.1,3-2.6,3.4l3,5.7H67.2z M64.9,200.3H62v4h2.9
	c1.3,0,2.2-0.7,2.2-2C67.1,201.1,66.2,200.3,64.9,200.3"/>
<path d="M80,210.2c-0.9,0.9-2,1.4-3.4,1.4c-1.4,0-2.5-0.5-3.4-1.4c-1.3-1.3-1.2-2.7-1.2-5.2c0-2.5,0-3.9,1.2-5.2
	c0.9-0.9,2-1.4,3.4-1.4c1.4,0,2.5,0.5,3.4,1.4c1.3,1.3,1.2,2.7,1.2,5.2C81.2,207.5,81.3,208.9,80,210.2 M78.5,201
	c-0.5-0.5-1.2-0.8-1.9-0.8c-0.8,0-1.5,0.3-1.9,0.8c-0.6,0.7-0.8,1.4-0.8,4c0,2.6,0.1,3.3,0.8,4c0.5,0.5,1.2,0.8,1.9,0.8
	c0.8,0,1.5-0.3,1.9-0.8c0.6-0.7,0.8-1.4,0.8-4C79.3,202.4,79.1,201.7,78.5,201"/>
<path d="M91.8,211.4l-2.7-5.4h-2.4v5.4h-2v-12.9h5c2.4,0,4,1.6,4,3.8c0,1.8-1.1,3-2.6,3.4l3,5.7H91.8z M89.5,200.3h-2.9v4h2.9
	c1.3,0,2.2-0.7,2.2-2C91.7,201.1,90.8,200.3,89.5,200.3"/>
<polygon points="97,211.4 97,198.5 105.3,198.5 105.3,200.3 99,200.3 99,204.1 104.4,204.1 104.4,205.8 99,205.8 99,209.7 
	105.3,209.7 105.3,211.4 "/>
<path d="M116.2,210.1c-1,1-2.2,1.5-3.5,1.5c-1.3,0-2.5-0.5-3.4-1.4c-1.3-1.3-1.2-2.7-1.2-5.2c0-2.5,0-3.9,1.2-5.2
	c0.9-0.9,2-1.4,3.4-1.4c2.7,0,4.3,1.8,4.7,4h-2c-0.3-1.4-1.3-2.2-2.7-2.2c-0.8,0-1.4,0.3-1.9,0.8c-0.6,0.7-0.8,1.4-0.8,4
	c0,2.6,0.1,3.3,0.8,4c0.5,0.5,1.1,0.8,1.9,0.8c0.9,0,1.6-0.3,2.1-0.9c0.5-0.5,0.7-1.2,0.7-2v-0.7h-2.7v-1.7h4.7v2
	C117.4,208.1,117.1,209.2,116.2,210.1"/>
<rect x="120.8" y="198.5" width="2" height="12.9"/>
<path d="M134.2,210.2c-0.9,0.9-2,1.4-3.4,1.4c-1.4,0-2.5-0.5-3.4-1.4c-1.3-1.3-1.2-2.7-1.2-5.2c0-2.5,0-3.9,1.2-5.2
	c0.9-0.9,2-1.4,3.4-1.4c1.4,0,2.5,0.5,3.4,1.4c1.3,1.3,1.2,2.7,1.2,5.2C135.4,207.5,135.5,208.9,134.2,210.2 M132.7,201
	c-0.5-0.5-1.2-0.8-1.9-0.8s-1.5,0.3-1.9,0.8c-0.6,0.7-0.8,1.4-0.8,4c0,2.6,0.1,3.3,0.8,4c0.5,0.5,1.2,0.8,1.9,0.8s1.5-0.3,1.9-0.8
	c0.6-0.7,0.8-1.4,0.8-4C133.5,202.4,133.3,201.7,132.7,201"/>
<polygon points="146.8,211.4 140.8,202.4 140.8,211.4 138.9,211.4 138.9,198.5 140.7,198.5 146.6,207.6 146.6,198.5 148.6,198.5 
	148.6,211.4 "/>
<path d="M159.9,211.4l-0.9-2.6h-5.1l-0.9,2.6h-2.1l4.7-12.9h1.6l4.7,12.9H159.9z M156.5,201.5l-2,5.7h4L156.5,201.5z"/>
<polygon points="164.3,211.4 164.3,198.5 166.3,198.5 166.3,209.7 172.5,209.7 172.5,211.4 "/>
<polygon points="188.5,200.3 188.5,211.4 186.5,211.4 186.5,200.3 183,200.3 183,198.5 192,198.5 192,200.3 "/>
<polygon points="202,211.4 202,205.8 196.7,205.8 196.7,211.4 194.8,211.4 194.8,198.5 196.7,198.5 196.7,204 202,204 202,198.5 
	203.9,198.5 203.9,211.4 "/>
<polygon points="207.8,211.4 207.8,198.5 216.1,198.5 216.1,200.3 209.8,200.3 209.8,204.1 215.1,204.1 215.1,205.8 209.8,205.8 
	209.8,209.7 216.1,209.7 216.1,211.4 "/>
<path d="M226.7,211.4l-0.9-2.6h-5.1l-0.9,2.6h-2.1l4.7-12.9h1.6l4.7,12.9H226.7z M223.3,201.5l-2,5.7h4L223.3,201.5z"/>
<polygon points="235.5,200.3 235.5,211.4 233.5,211.4 233.5,200.3 230,200.3 230,198.5 239,198.5 239,200.3 "/>
<path d="M248.9,211.4l-2.7-5.4h-2.4v5.4h-2v-12.9h5c2.4,0,4,1.6,4,3.8c0,1.8-1.1,3-2.6,3.4l3,5.7H248.9z M246.6,200.3h-2.9v4h2.9
	c1.3,0,2.2-0.7,2.2-2C248.8,201.1,247.9,200.3,246.6,200.3"/>
<polygon points="254.2,211.4 254.2,198.5 262.4,198.5 262.4,200.3 256.1,200.3 256.1,204.1 261.5,204.1 261.5,205.8 256.1,205.8 
	256.1,209.7 262.4,209.7 262.4,211.4 "/>
<polygon points="276.5,200.3 276.5,204.2 281.8,204.2 281.8,206 276.5,206 276.5,211.4 274.5,211.4 274.5,198.5 282.8,198.5 
	282.8,200.3 "/>
<polygon points="285.7,211.4 285.7,198.5 293.9,198.5 293.9,200.3 287.6,200.3 287.6,204.1 293,204.1 293,205.8 287.6,205.8 
	287.6,209.7 293.9,209.7 293.9,211.4 "/>
<path d="M300.5,211.5c-1.9,0-3.3-0.5-4.6-1.7l1.3-1.3c0.9,0.9,2,1.2,3.3,1.2c1.7,0,2.7-0.7,2.7-2c0-0.6-0.2-1-0.5-1.3
	c-0.3-0.3-0.7-0.4-1.4-0.5l-1.5-0.2c-1-0.1-1.9-0.5-2.4-1c-0.6-0.6-0.9-1.4-0.9-2.5c0-2.2,1.6-3.8,4.3-3.8c1.7,0,2.9,0.4,4,1.5
	l-1.2,1.2c-0.8-0.8-1.7-1-2.8-1c-1.5,0-2.4,0.9-2.4,2c0,0.5,0.1,0.9,0.5,1.2c0.3,0.3,0.9,0.5,1.4,0.6l1.5,0.2c1.2,0.2,1.9,0.5,2.4,1
	c0.7,0.6,1,1.5,1,2.6C305.1,210.1,303.2,211.5,300.5,211.5"/>
<polygon points="312.7,200.3 312.7,211.4 310.7,211.4 310.7,200.3 307.2,200.3 307.2,198.5 316.2,198.5 316.2,200.3 "/>
<rect x="319" y="198.5" width="2" height="12.9"/>
<polygon points="329,211.4 327.5,211.4 323.2,198.5 325.3,198.5 328.2,207.9 331.2,198.5 333.3,198.5 "/>
<path d="M343,211.4l-0.9-2.6H337l-0.9,2.6H334l4.7-12.9h1.6l4.7,12.9H343z M339.6,201.5l-2,5.7h4L339.6,201.5z"/>
<polygon points="347.4,211.4 347.4,198.5 349.4,198.5 349.4,209.7 355.6,209.7 355.6,211.4 "/>
<polygon points="371.6,200.3 371.6,211.4 369.7,211.4 369.7,200.3 366.1,200.3 366.1,198.5 375.2,198.5 375.2,200.3 "/>
<rect x="377.9" y="198.5" width="2" height="12.9"/>
<polygon points="393.2,211.4 393.2,202.8 390.2,209.1 388.8,209.1 385.7,202.8 385.7,211.4 383.8,211.4 383.8,198.5 385.7,198.5 
	389.5,206.6 393.2,198.5 395.1,198.5 395.1,211.4 "/>
<rect x="399" y="198.5" width="2" height="12.9"/>
<path d="M408.3,211.5c-1.9,0-3.3-0.5-4.6-1.7l1.3-1.3c0.9,0.9,2,1.2,3.3,1.2c1.7,0,2.7-0.7,2.7-2c0-0.6-0.2-1-0.5-1.3
	c-0.3-0.3-0.7-0.4-1.4-0.5l-1.5-0.2c-1-0.1-1.9-0.5-2.4-1c-0.6-0.6-0.9-1.4-0.9-2.5c0-2.2,1.6-3.8,4.3-3.8c1.7,0,2.9,0.4,4,1.5
	l-1.2,1.2c-0.8-0.8-1.7-1-2.8-1c-1.5,0-2.4,0.9-2.4,2c0,0.5,0.1,0.9,0.5,1.2c0.3,0.3,0.9,0.5,1.4,0.6l1.5,0.2c1.2,0.2,1.9,0.5,2.4,1
	c0.7,0.6,1,1.5,1,2.6C412.9,210.1,411,211.5,408.3,211.5 M408.9,215.2H407l1.3-2.7h1.5L408.9,215.2z"/>
<path d="M423.7,210.2c-0.9,0.9-2,1.4-3.4,1.4c-1.4,0-2.5-0.5-3.4-1.4c-1.3-1.3-1.2-2.7-1.2-5.2c0-2.5,0-3.9,1.2-5.2
	c0.9-0.9,2-1.4,3.4-1.4c1.4,0,2.5,0.5,3.4,1.4c1.3,1.3,1.2,2.7,1.2,5.2C424.9,207.5,424.9,208.9,423.7,210.2 M422.2,201
	c-0.5-0.5-1.2-0.8-1.9-0.8c-0.8,0-1.5,0.3-1.9,0.8c-0.6,0.7-0.8,1.4-0.8,4c0,2.6,0.1,3.3,0.8,4c0.5,0.5,1.2,0.8,1.9,0.8
	c0.8,0,1.5-0.3,1.9-0.8c0.6-0.7,0.8-1.4,0.8-4C422.9,202.4,422.8,201.7,422.2,201"/>
<path d="M435.7,211.4l-0.9-2.6h-5.1l-0.9,2.6h-2.1l4.7-12.9h1.6l4.7,12.9H435.7z M432.3,201.5l-2,5.7h4L432.3,201.5z"/>
<path d="M447.3,211.4l-2.7-5.4h-2.4v5.4h-2v-12.9h5c2.4,0,4,1.6,4,3.8c0,1.8-1.1,3-2.6,3.4l3,5.7H447.3z M445,200.3h-2.9v4h2.9
	c1.3,0,2.2-0.7,2.2-2C447.2,201.1,446.3,200.3,445,200.3"/>
<path d="M460,211.4l-0.9-2.6H454l-0.9,2.6H451l4.7-12.9h1.6l4.7,12.9H460z M456.6,201.5l-2,5.7h4L456.6,201.5z"/>
<rect x="35.8" y="159.6" width="426.3" height="0.7"/>
<rect x="35.8" y="189.6" width="426.3" height="0.7"/>
<polygon points="127.1,101.4 127.1,70.5 184.7,70.5 184.7,49.9 127.1,49.9 127.1,24.2 127.1,3.3 102.7,3.3 102.7,123.7 193.1,123.7 
	193.1,101.4 "/>
<polygon points="462,3.3 401.5,3.3 401.5,24.8 437.3,24.8 437.3,123.7 462,123.7 462,24.8 462,24.8 "/>
<polygon points="476.9,3.3 462,24.8 497.5,24.8 497.5,3.3 "/>
<rect y="3.3" width="35.7" height="21.5"/>
<polygon points="49.7,3.3 35.7,24.8 35.7,24.8 35.7,123.7 60.5,123.7 60.5,24.8 96,24.8 96,3.3 "/>
<path d="M292.6,71.4c-2.4-4.5-6.1-8.1-11-10.8c-2.7-1.5-5.9-2.9-9.6-4.2c-3.7-1.3-9.9-3-18.7-5.2c-2.1-0.5-5-1.2-8.7-2
	c-13.7-3.2-20.5-7.9-20.5-14.3c0-4.7,1.8-8.3,5.3-10.8c3.5-2.5,8.5-3.8,15-3.8c1,0,2,0,2.9,0.1V0c-0.2,0-0.5,0-0.7,0
	c-15,0-26.5,3.1-34.5,9.4c-8,6.2-11.9,15.2-11.9,26.9c0,6.3,1.1,11.7,3.4,16.3c2.2,4.6,5.5,8.3,9.7,11c4.8,3.1,12.8,5.8,24,8.3
	c1.1,0.3,2,0.5,2.5,0.6l0.7,0.2c21,4.8,31.5,10.8,31.5,18.1c0,5-1.8,8.8-5.5,11.4c-3.7,2.6-9.1,3.8-16.3,3.8
	c-8.4,0-14.9-1.6-19.4-4.8c-4.5-3.2-7.2-8.1-8.1-14.7h-24.4c0.7,13,5.3,23,13.9,30c8.6,7,20.5,10.5,35.6,10.5
	c15.4,0,27.3-3.4,35.7-10.3c8.4-6.9,12.7-16.6,12.7-29.1C296.3,81.3,295.1,75.9,292.6,71.4"/>
<path d="M247.3,20.3c6.1,0.4,10.8,1.9,14.3,4.5c4,3.1,6.3,7.5,6.7,13.3h23.8c-0.4-12.1-4.6-21.5-12.5-28.1
	c-5.3-4.4-11.9-7.3-19.8-8.8L247.3,20.3z"/>
<polygon points="190.1,3.3 141.1,3.3 127.1,24.7 190.1,24.7 "/>
<polygon points="394.8,3.3 382.8,3.3 364.7,24.7 364.7,3.3 300.6,3.3 300.6,24.7 364.7,24.7 299.3,102.7 299.3,123.7 393.3,123.7 
	393.3,101.8 329.2,101.8 394.8,23.8 "/>
</svg>
