<!-- Generator: Adobe Illustrator 22.0.0, SVG Export Plug-In  -->
<svg version="1.1"
	 xmlns="http://www.w3.org/2000/svg" xmlns:xlink="http://www.w3.org/1999/xlink" xmlns:a="http://ns.adobe.com/AdobeSVGViewerExtensions/3.0/"
	 x="0px" y="0px" width="511.2px" height="194.5px" viewBox="0 0 511.2 194.5" style="enable-background:new 0 0 511.2 194.5;"
	 xml:space="preserve">
<style type="text/css">
	.st0{fill:#2D2D2D;}
	.st1{fill:#D87027;}
	.st2{fill:#221F1F;}
</style>
<defs>
</defs>
<path class="st0" d="M7.6,76.8c6.4-2.7,13-4.9,19.4-6.4c0,6.1,0,12.2,0,18.3c4.4,0.2,8.7,0.6,13,1.1c0,4.9,0,9.8,0,14.6
	c-4.3-0.2-8.6-0.4-13-0.4c0,8.5,0,17.1,0,25.6c0,8,2.4,10.8,7,10.4c2.2-0.2,3.4-0.5,5.1-1.1c0,5.2,0.1,10.5,0.1,15.7
	c-2.4,1.3-6.7,2.8-12,3.3c-19.4,0.6-19.7-18.7-19.7-25.8c0-9.3,0-18.6,0-27.9c-2.6,0.1-5.1,0.2-7.6,0.3c0-4.9,0-9.8,0-14.6
	c2.5-0.3,5.1-0.6,7.6-0.8C7.6,85,7.6,80.9,7.6,76.8z M80.4,108.4c-1.3-0.5-2.8-0.7-4.7-0.8c-5-0.4-9.7,2.1-11.4,8.2
	c-0.6,1.6-0.8,4-0.8,6.5c0,11.5,0,23,0,34.5c-6.6,0.1-13.1-0.5-19.6-1.9c0-14.7,0-29.4,0-44.1c0-8.6-0.2-15.1-0.4-21
	c5.5-1.2,11.2-1.8,16.8-1.9c0.3,3.8,0.5,7.7,0.8,11.5c0.1,0,0.3,0,0.4,0c3.1-9.1,9.7-12.6,14.8-11.6c1.9,0.3,2.9,0.7,4.1,1.2
	C80.4,95.4,80.4,101.9,80.4,108.4z M132.6,139.6c0,5.8,0.2,11.5,1,15.2c-5.8,1.2-11.6,2.1-17.5,2.5c-0.4-2.2-0.7-4.4-1.1-6.6
	c-0.1,0-0.2,0-0.3,0c-3.8,5.8-9.7,8.5-16.2,8.1c-11.4-1-18.8-12-18.8-22.7c0-16.6,14.7-25.6,33.3-25.6c0-5.3-2.1-9.4-10.1-9.3
	c-5.9,0.1-11.5,2.5-15.5,5.4c-1.2-4.5-2.4-8.9-3.5-13.2c4-2.9,12.1-7.8,23-7.8c20.8,0.9,25.8,17.1,25.8,31
	C132.6,124.2,132.6,131.9,132.6,139.6z M113.6,124.3c-8.2,0-15.1,2.6-15.1,10.7c0,5.7,3.1,8.3,6.6,8.4c4,0,8.5-3.4,8.5-10
	C113.6,130.3,113.6,127.3,113.6,124.3z M195.6,154.8c-6.4,1.4-13,2.4-19.5,2.8c0-13.6,0-27.3,0-40.9c0-7.4-2-12.9-7.6-12.9
	c-4.1,0-8.5,3.5-8.5,12.5c0,13.8,0,27.5,0,41.3c-6.6-0.4-13.1-1.3-19.5-2.7c0-14.8,0-29.5,0-44.3c0-7.8-0.2-14.7-0.4-20.7
	c5.5-1.2,11.1-2,16.7-2.5c0.3,2.9,0.7,5.8,1,8.8c0.1,0,0.2,0,0.3,0c2.8-4.9,8.7-10.9,17.4-10.4c13.2,1.1,20.1,13,20.1,29.5
	C195.6,128.4,195.6,141.6,195.6,154.8z M237.7,105.7c-2.7-1.8-7.1-3.9-11.6-4c-4.4-0.1-6.6,2.1-6.6,5.1c0,2.8,1.9,4.5,8.8,7.8
	c10.9,5.3,15,12,15.1,20.2c0,12.9-9.7,23.8-25.6,23.4c-7.1-0.2-14-3.3-18-6.6c1.1-4.6,2.2-9.4,3.3-14.2c3.1,2.3,9.5,5.2,14.6,5.3
	c4.9,0.1,7.3-1.9,7.3-5.2c0-3.3-1.8-5-8.2-7.9c-12.1-5.8-15.7-13-15.7-19.7c0-11.9,9.3-24,24.1-23.7c6.5,0.2,12.1,2.8,15.8,5.3
	C239.9,96.2,238.8,100.9,237.7,105.7z M267.3,89.9c-6.4-1.4-13.1-1.4-19.6,0c0,21.6,0,43.3,0,64.9c6.4,1.4,13.1,1.4,19.6,0
	C267.3,133.1,267.3,111.5,267.3,89.9z M330.3,154.8c-6.4,1.4-13,2.4-19.5,2.8c0-13.6,0-27.3,0-40.9c0-7.4-2-12.9-7.6-12.9
	c-4.1,0-8.5,3.5-8.5,12.5c0,13.8,0,27.5,0,41.3c-6.6-0.4-13.1-1.3-19.5-2.7c0-14.8,0-29.5,0-44.3c0-7.8-0.2-14.7-0.4-20.7
	c5.5-1.2,11.1-2,16.7-2.5c0.3,2.9,0.7,5.8,1,8.8c0.1,0,0.2,0,0.3,0c2.8-4.9,8.7-10.9,17.4-10.4c13.2,1.1,20.1,13,20.1,29.5
	C330.3,128.4,330.3,141.6,330.3,154.8z M393.3,135c0,7.2,0.2,14.6,0.4,19.8c-5.6,1.2-11.3,2.1-17.1,2.6c-0.3-2.9-0.6-5.9-0.9-8.8
	c-0.1,0-0.2,0-0.3,0c-3.4,6.7-9.8,10.9-16.6,10.6c-14.4-0.9-23.7-17.9-23.7-36.6c0-21.6,11.4-35,24.6-35.4c6.7-0.1,11.5,3,13.7,7.2
	c0.1,0,0.2,0,0.3,0c0-11.8,0-23.7,0-35.5c6.6,0.5,13.1,1.4,19.5,2.8C393.3,86.2,393.3,110.6,393.3,135z M373.7,116.8
	c0-9.5-5.1-12.4-8.5-12.4c-7.2,0-10.4,8.6-10.4,19c0,11.8,4.2,18.3,10.3,18.3c3.7,0,8.6-2.8,8.6-12.2
	C373.7,125.3,373.7,121.1,373.7,116.8z M449.8,152.9c-5.7,3.5-13.2,5.8-20.7,6c-19.9,0-30.8-16-30.8-35.5
	c0-17.7,10.3-37.5,29.2-37.8c15,0.5,25.5,14,25.5,35.4c0,3.1-0.1,6.3-0.5,8.6c-11.7,0.6-23.6,0.7-35.4,0.6
	c0.4,8.3,7.2,12.5,15.3,12.3c5.7-0.2,10.6-1.6,15-3.6C448.1,143.6,449,148.3,449.8,152.9z M435,115c0-6.2-1.8-14.2-8.6-14.3
	c-6.7,0-9.3,8.4-9.6,14.3C422.9,114.9,429,115,435,115z M511,89.8c-5.8,9.2-11.7,20-17.6,31.3c6,12.2,12,23.8,17.8,33.7
	c-7.2,1.6-14.5,2.6-21.8,3.1c-1.7-4.1-3.4-8.3-5-12.5c-1.3-3.4-2.7-7.1-3.8-10.6c-0.1,0-0.2,0-0.3,0c-1.1,3.7-2.5,7.4-3.7,10.7
	c-1.5,4.1-3,8.3-4.5,12.3c-6.9-0.5-13.8-1.5-20.6-3c5.9-9.6,11.8-20.9,17.7-32.8c-5.9-11.6-11.7-22.7-17.5-32.2
	c7.1-1.6,14.3-2.6,21.5-3c1.6,3.8,3.2,7.7,4.8,11.6c1.3,3.7,2.7,7.3,4,11c0.1,0,0.2,0,0.3,0c1.2-3.6,2.5-7.6,3.8-11.3
	c1.4-3.8,2.8-7.6,4.2-11.3C497.3,87.3,504.2,88.3,511,89.8z"/>
<path class="st1" d="M248.3,46.9c-7.9,5.4-10.1,16.4-4.9,24.7c5.1,8.2,15.7,10.6,23.5,5.2c7.9-5.4,10.1-16.4,4.9-24.7
	C266.7,43.8,256.2,41.5,248.3,46.9z"/>
<path class="st2" d="M217.6,194.1h-2.1l-2.9-8.6h-9.1l-2.8,8.6h-2l8.4-25.1h2L217.6,194.1z M212.2,183.9l-2.7-8.1
	c-0.5-1.7-0.9-3.2-1.3-4.7h-0.1c-0.3,1.5-0.7,2.9-1.2,4.5l-2.8,8.2H212.2z"/>
<path class="st2" d="M258.5,194.1h-1.9L248,180c-1.7-2.9-3.3-5.5-4.6-8.2l-0.1,0c0.2,3.1,0.2,5.9,0.2,10.2v12.1h-1.9v-25.1h1.9
	l8.8,14.3c1.9,3.1,3.3,5.5,4.4,8l0.1,0c-0.3-3.4-0.3-6.3-0.3-10.3v-12h1.9V194.1z"/>
<path class="st2" d="M287.7,194.1h-2.1l-2.9-8.6h-9.1l-2.8,8.6h-2l8.4-25.1h2L287.7,194.1z M282.2,183.9l-2.7-8.1
	c-0.5-1.7-0.9-3.2-1.3-4.7h-0.1c-0.3,1.5-0.7,2.9-1.2,4.5l-2.8,8.2H282.2z"/>
<path class="st2" d="M297.7,169.4c1.4-0.3,3.1-0.5,5.2-0.5c7.4,0,8.2,4.8,8.2,7.1c0,6.1-4.8,7.9-8.7,7.9c-1,0-1.9,0-2.8-0.3v10.6
	h-1.9V169.4z M299.6,181.8c0.8,0.3,1.8,0.3,2.9,0.3c4.1,0,6.7-2.1,6.7-6c0-4-2.8-5.6-6.3-5.6c-1.5,0-2.6,0.1-3.2,0.3V181.8z"/>
<path class="st2" d="M341.3,181.4c0,8.9-5,13.1-10.6,13.1c-5.9,0-10.3-4.8-10.3-12.7c0-8.3,4.6-13.2,10.6-13.2
	C337.2,168.7,341.3,173.7,341.3,181.4z M322.5,181.8c0,5.5,3,11.1,8.4,11.1c5.5,0,8.5-5.3,8.5-11.4c0-5.2-2.6-11.1-8.4-11.1
	C325,170.4,322.5,176.2,322.5,181.8z"/>
<path class="st2" d="M362.3,171.6c-0.7-0.5-2.2-1.2-4.2-1.2c-3.7,0-5,2.4-5,4.4c0,2.7,1.5,4.1,4.9,5.5c3.9,1.7,6,3.7,6,7.4
	c0,3.8-2.7,6.9-7.7,6.9c-2.1,0-4.5-0.7-5.7-1.6l0.7-1.7c1.3,1,3.2,1.6,5.2,1.6c3.5,0,5.5-2,5.5-5c0-2.7-1.3-4.4-4.7-5.8
	c-3.7-1.4-6.1-3.5-6.1-7c0-3.7,2.9-6.4,7.1-6.4c2.2,0,3.9,0.6,4.8,1.2L362.3,171.6z"/>
<path class="st2" d="M408.2,181.4c0,8.9-5,13.1-10.6,13.1c-5.9,0-10.3-4.8-10.3-12.7c0-8.3,4.6-13.2,10.6-13.2
	C404,168.7,408.2,173.7,408.2,181.4z M389.3,181.8c0,5.5,3,11.1,8.4,11.1c5.5,0,8.5-5.3,8.5-11.4c0-5.2-2.6-11.1-8.4-11.1
	C391.9,170.4,389.3,176.2,389.3,181.8z"/>
<path class="st2" d="M431.1,194.1h-12.4v-25.1h2v23.3h10.4V194.1z"/>
<path class="st2" d="M441,169.4c1.8-0.3,3.9-0.6,6.1-0.6c9.8,0,12.5,6.1,12.5,12.1c0,4.9-1.7,13.3-13.4,13.3c-1.9,0-3.6,0-5.3-0.2
	V169.4z M443,192.5c0.9,0.2,2.2,0.2,3.6,0.2c7.3,0,11-4.3,11-11.6c0-6.7-3.6-10.5-10.5-10.5c-1.8,0-3.1,0.2-4.1,0.4V192.5z"/>
<path class="st2" d="M487.3,194.1h-2.1l-2.9-8.6h-9.1l-2.8,8.6h-2l8.4-25.1h2L487.3,194.1z M481.8,183.9l-2.7-8.1
	c-0.5-1.7-0.9-3.2-1.3-4.7h-0.1c-0.3,1.5-0.7,2.9-1.2,4.5l-2.8,8.2H481.8z"/>
<path class="st2" d="M509.7,194.1h-12.4v-25.1h2v23.3h10.4V194.1z"/>
<path class="st1" d="M252.3,18.4c0.1-9.6,6.5-18.4,6.5-18.4s6.5,8.9,6.4,18.5c-0.1,9.8-6.8,20.4-6.8,20.4S252.2,28.2,252.3,18.4z"/>
<path class="st1" d="M291.2,30.3c7.3-6.7,18.3-8.7,18.3-8.7s-2,10.6-9.3,17.3c-7.4,6.9-20.1,9.9-20.1,9.9S283.8,37.2,291.2,30.3z"/>
<path class="st1" d="M273.3,26.5c3.1-6.1,9.9-9.8,9.9-9.8s1.3,7.5-1.8,13.5c-3.2,6.2-10.8,11-10.8,11S270.1,32.7,273.3,26.5z"/>
<path class="st1" d="M297.3,47.2c6.3-3.2,14.1-2.5,14.1-2.5s-3.5,6.8-9.8,10c-6.4,3.3-15.5,3-15.5,3S290.9,50.5,297.3,47.2z"/>
<path class="st1" d="M230.2,58.6c0,0-9.1,0.3-15.5-3c-6.2-3.2-9.8-10-9.8-10s7.9-0.7,14.1,2.5C225.4,51.4,230.2,58.6,230.2,58.6z"/>
<path class="st1" d="M245.9,41.5c0,0-7.6-4.8-10.8-11c-3.1-6-1.8-13.5-1.8-13.5s6.8,3.7,9.9,9.8C246.4,33,245.9,41.5,245.9,41.5z"/>
<path class="st1" d="M207.4,73.2c-10.2-0.1-19.5-6.1-19.5-6.1s9.4-6.2,19.5-6.1c10.4,0.1,21.6,6.4,21.6,6.4S217.8,73.3,207.4,73.2z"
	/>
<path class="st1" d="M307.2,73.1C297.1,73,287.8,67,287.8,67s9.4-6.2,19.5-6.1c10.4,0.1,21.6,6.4,21.6,6.4S317.6,73.2,307.2,73.1z"
	/>
<path class="st1" d="M216.2,39.1c-7.1-6.9-9.2-17.3-9.2-17.3s11.3,1.9,18.4,8.8c7.3,7,10.4,19,10.4,19S223.5,46.1,216.2,39.1z"/>
</svg>
