<svg xmlns="http://www.w3.org/2000/svg" width="285" height="71" xmlns:xlink="http://www.w3.org/1999/xlink"><defs><linearGradient id="a" x2="1" gradientUnits="userSpaceOnUse" gradientTransform="scale(30.92992) rotate(135 5.113 8.057)"><stop offset="0" stop-color="#9a9999"/><stop offset=".125" stop-color="#c8c7c7"/><stop offset=".25" stop-color="#e2e2e2"/><stop offset=".375" stop-color="#c8c7c7"/><stop offset=".5" stop-color="#9d9b9d"/><stop offset=".625" stop-color="#c8c7c7"/><stop offset=".75" stop-color="#e2e2e2"/><stop offset=".875" stop-color="#c8c7c7"/><stop offset="1" stop-color="#9b999a"/></linearGradient><linearGradient id="e" x2="1" gradientUnits="userSpaceOnUse" gradientTransform="rotate(70 53.23 81.19) scale(42.20232)"><stop offset="0" stop-color="#f4dd25"/><stop offset=".584" stop-color="#e98328"/><stop offset=".584" stop-color="#e98328"/><stop offset="1" stop-color="#e85f2a"/></linearGradient><linearGradient id="d" x2="1" gradientUnits="userSpaceOnUse" gradientTransform="scale(40.0287) rotate(-110 2.264 -.183)"><stop offset="0" stop-color="#eb4c3a"/><stop offset=".545" stop-color="#df2e2a"/><stop offset=".837" stop-color="#9e2b28"/><stop offset="1" stop-color="#802323"/></linearGradient><linearGradient id="c" x2="1" gradientUnits="userSpaceOnUse" gradientTransform="scale(66.88766) rotate(-45 1.53 -.808)"><stop offset="0" stop-color="#8dc8ec"/><stop offset=".376" stop-color="#31a5e0"/><stop offset=".579" stop-color="#258fcf"/><stop offset="1" stop-color="#2b4c96"/></linearGradient><linearGradient id="b" x2="1" gradientUnits="userSpaceOnUse" gradientTransform="scale(72.94296) rotate(-135 .58 .2)"><stop offset="0" stop-color="#918f90"/><stop offset=".25" stop-color="#c8c7c7"/><stop offset=".5" stop-color="#e2e2e2"/><stop offset=".75" stop-color="#c8c7c7"/><stop offset="1" stop-color="#918f90"/></linearGradient><linearGradient id="f" x1="157.586" x2="441.222" y1="10.47" y2="50.055" xlink:href="#a" gradientUnits="userSpaceOnUse" gradientTransform="translate(3.184 4) scale(.96815)"/></defs><path fill="url(#b)" d="M62.64 13.31L55.378 37.82l-7.39-24.507H36.842l14.472 43.843h8.003l14.53-43.842zM0 13.31v9.607h10.775v34.235h10.78V22.917h10.774V13.31z"/><path fill="url(#c)" d="M104.994 5.704C99.257 6.842 94.626 9.23 90.89 12.4c-1.073.91-2.07 1.89-3 2.92-3.456 3.817-7.03 9.606-9.09 15.07-3.46 9.16-4.603 17.762-9.734 22.625-3.83 3.574.885 5.126 3.985 3.725 3.666-1.36 7.064-4.175 11.675-11.13 3.91-6.01 9.436-17.047 20.13-21.845 9.094-4.13 16.545-2.23 14.795 2.974.764-1.55 1.28-3.112 1.458-4.662.676-8.594-6.697-16.378-15.752-16.38-.12 0-.24.003-.362.006"/><path fill="url(#d)" d="M115.115 37.72c-11.27 5.053-10.12 10.49-9.127 12.527.226.462.414.74.432.762 11.204 17.244 33.25 19.983 33.896 19.99h.014c-11.34-10.276-22.944-28.385-19.04-35.67-1.987.774-4.06 1.56-6.175 2.39"/><path fill="url(#e)" d="M104.994 5.704c9.22-.213 16.8 7.665 16.114 16.373-.178 1.55-.694 3.113-1.458 4.662-1.804 3.65-5.014 7.234-8.61 10.464-7.5 6.573-6.138 11.063-5.05 13.047-.994-2.036-2.15-7.476 9.125-12.53 15.066-5.895 27.963-9.815 23.814-20.166-4.776-10.592-16.695-12.602-25.05-12.602-5.11 0-8.886.752-8.886.752"/><path fill="url(#f)" d="M284.082 43.023V13.96h-6.446v28.585c0 2.745-.716 4.894-2.03 6.326-1.37 1.433-3.28 2.15-5.668 2.15-1.432 0-2.566-.18-3.46-.657-.897-.418-1.732-1.074-2.568-1.91l-4.296 4.238c1.432 1.433 2.924 2.507 4.595 3.164 1.67.656 3.58.954 5.728.954 2.387 0 4.536-.417 6.386-1.253 1.85-.835 3.342-1.97 4.535-3.282 1.193-1.313 2.028-2.805 2.506-4.416.477-1.612.716-3.223.716-4.834zm-29.02-.896V13.96h-6.444v27.87c0 2.864-.836 5.072-2.447 6.743-1.61 1.67-3.76 2.447-6.385 2.447-2.685 0-4.834-.776-6.385-2.447-1.612-1.67-2.387-3.88-2.387-6.744V13.96h-6.446v28.167c0 2.15.358 4.118 1.134 5.91.717 1.85 1.79 3.4 3.224 4.713 1.372 1.313 2.984 2.328 4.893 3.044 1.85.716 3.82 1.014 5.968 1.014 2.09 0 4.058-.298 5.968-1.014 1.85-.716 3.462-1.73 4.894-3.044 1.372-1.313 2.447-2.864 3.222-4.714.775-1.79 1.193-3.76 1.193-5.91zm-34.86 14.323v-5.79h-20.47v-36.7h-6.446v42.49zm-35.564-12.71h-6.445c-.537 2.267-1.552 4.057-3.044 5.37-1.552 1.313-3.402 1.97-5.67 1.97-2.566 0-4.655-.836-6.266-2.627-1.194-1.193-1.91-2.805-2.15-4.714-.297-1.91-.416-4.716-.416-8.535 0-5.073.18-8.355.656-9.788.477-1.432 1.074-2.625 1.91-3.46 1.61-1.732 3.7-2.627 6.266-2.627 2.268 0 4.118.716 5.61 2.03 1.492 1.312 2.506 3.103 2.984 5.31h6.564c-.358-2.028-1.014-3.82-1.91-5.49-.894-1.67-1.97-3.043-3.282-4.177-1.313-1.075-2.864-1.91-4.535-2.507-1.73-.597-3.52-.895-5.43-.895-4.476 0-8.116 1.433-10.98 4.298-.24.24-.598.597-1.075 1.193-.478.598-1.015 1.434-1.61 2.627-.598 1.194-1.016 2.805-1.255 4.715-.238 1.91-.358 4.834-.358 8.773 0 3.222.06 5.73.18 7.52.12 1.79.477 3.46 1.074 5.132.596 1.67 1.61 3.222 3.043 4.655 2.864 2.864 6.504 4.296 10.98 4.296 1.91 0 3.82-.298 5.73-.954 1.91-.657 3.52-1.67 4.893-3.104 1.372-1.372 2.387-2.864 3.103-4.416.657-1.552 1.134-3.044 1.432-4.595z"/></svg>