<!-- Generator: Adobe Illustrator 22.0.0, SVG Export Plug-In  -->
<svg version="1.1"
	 xmlns="http://www.w3.org/2000/svg" xmlns:xlink="http://www.w3.org/1999/xlink" xmlns:a="http://ns.adobe.com/AdobeSVGViewerExtensions/3.0/"
	 x="0px" y="0px" width="221.7px" height="135.9px" viewBox="0 0 221.7 135.9" style="enable-background:new 0 0 221.7 135.9;"
	 xml:space="preserve">
<style type="text/css">
	.st0{fill:#010101;}
</style>
<defs>
</defs>
<g>
	<path class="st0" d="M0,0h14.7l10.1,43.4L35,0.4h13.8l10.7,43.1L69,0h14L66,62.5H53.3L41.7,16.3L30.4,62.5H18L0,0z"/>
	<path class="st0" d="M84.9,0h12.3v22.6c1.8-2.5,3.9-4.3,6.3-5.4c2.4-1.2,4.9-1.8,7.5-1.8c5.2,0,9,1.4,11.6,4.1
		c2.5,2.7,3.8,7,3.8,12.8v30.2h-12.3V34c0-3.2-0.6-5.4-1.8-6.6c-1.2-1.2-2.9-1.8-4.9-1.8c-1.6,0-2.9,0.2-4.1,0.7
		c-1.1,0.5-2.2,1.1-3.2,2c-0.8,0.8-1.5,1.8-2.1,2.9c-0.6,1.1-0.8,2.4-0.8,3.7v27.5H84.9V0z"/>
	<path class="st0" d="M132.3,0h12.6v11h-12.6V0z M132.5,16.8h12.3v45.7h-12.3V16.8z"/>
	<path class="st0" d="M154.1,26.4h-7.2v-9.5h7.2V4.6h12.3v12.2h10.5v9.5h-10.5v21.1c0,2.4,0.5,4,1.5,4.9c1,0.8,2.3,1.3,3.9,1.3
		c0.8,0,1.6,0,2.5-0.1c0.8-0.1,1.7-0.2,2.5-0.5l1.8,9c-1.7,0.5-3.3,0.9-4.9,1.1c-1.6,0.2-3.1,0.3-4.6,0.3c-5,0-8.7-1.2-11.2-3.6
		c-2.4-2.4-3.6-6.4-3.6-12.1V26.4z"/>
	<path class="st0" d="M221.1,48.3c-0.8,5.1-2.9,9-6.2,11.7c-3.3,2.7-8.1,4-14.4,4c-7.6,0-13.3-2.1-17.1-6.3
		c-3.8-4.2-5.7-10.2-5.7-17.9c0-3.9,0.6-7.3,1.7-10.3c1.1-3,2.7-5.6,4.7-7.7c2-2.1,4.4-3.7,7.2-4.8c2.8-1.1,5.9-1.6,9.3-1.6
		c7,0,12.3,2,15.8,6c3.5,4,5.3,9.5,5.3,16.3v4.9h-31.7c0.1,3.7,1.1,6.6,2.8,8.6c1.8,2.1,4.4,3.1,7.9,3.1c4.8,0,7.7-2,8.6-6.1H221.1z
		 M209.8,34.6c0-3.2-0.8-5.6-2.3-7.4c-1.5-1.8-4-2.6-7.2-2.6c-1.6,0-3.1,0.3-4.3,0.8c-1.2,0.5-2.3,1.2-3.1,2.1c-0.8,0.9-1.5,2-2,3.2
		c-0.5,1.2-0.7,2.5-0.8,3.9H209.8z"/>
	<path class="st0" d="M63.2,112.7c-0.3,3.3-1.1,6.4-2.3,9.2c-1.3,2.8-3,5.3-5.2,7.4c-2.2,2.1-4.9,3.7-8.1,4.9
		c-3.2,1.2-6.9,1.8-11.1,1.8c-4.7,0-8.9-0.8-12.5-2.4c-3.6-1.6-6.6-3.8-9-6.7c-2.4-2.9-4.2-6.3-5.5-10.4c-1.2-4.1-1.8-8.5-1.8-13.4
		c0-5.1,0.7-9.6,2-13.7c1.3-4,3.3-7.5,5.8-10.3c2.5-2.9,5.5-5,9.1-6.6c3.6-1.5,7.6-2.3,12.1-2.3c4,0,7.4,0.5,10.4,1.5
		c2.9,1,5.4,2.4,7.4,4.3c2,1.9,3.6,4.1,4.9,6.7c1.2,2.6,2.1,5.6,2.7,8.8l-13,1.7c-0.6-3.7-1.9-6.6-3.7-8.7c-1.8-2.1-4.7-3.2-8.7-3.2
		c-5,0-8.8,1.9-11.4,5.6c-2.6,3.8-3.9,9.1-3.9,16c0,6.9,1.4,12.3,4.2,16c2.8,3.7,6.5,5.6,11.2,5.6c4,0,7-1,8.9-3.1
		c1.9-2.1,3.1-5,3.5-8.9H63.2z"/>
	<path class="st0" d="M66.4,88.6h12.3v28.5c0,3.3,0.6,5.5,1.8,6.6c1.2,1.1,2.8,1.7,4.8,1.7c1.6,0,2.9-0.2,3.9-0.7c1-0.5,2-1.1,2.9-2
		c0.9-0.8,1.7-1.8,2.2-2.9c0.6-1.1,0.8-2.4,0.8-3.7V88.6h12.3v45.7H95.5V128c-1.9,2.7-4,4.6-6.3,5.9c-2.4,1.2-4.9,1.8-7.6,1.8
		c-5.2,0-9-1.4-11.5-4.1c-2.5-2.7-3.7-7-3.7-12.8V88.6z"/>
	<path class="st0" d="M113.8,71.8h12.6v11h-12.6V71.8z M114,88.6h12.3v45.7H114V88.6z"/>
	<path class="st0" d="M132.8,71.8h12.3v22.3c3.4-4.6,8.1-6.9,14-6.9c6.4,0,11.1,2.2,14.3,6.5c3.2,4.3,4.7,10.2,4.7,17.8
		c0,3.6-0.5,6.9-1.4,9.9c-0.9,3-2.2,5.5-3.9,7.7c-1.7,2.1-3.8,3.8-6.3,4.9c-2.5,1.2-5.2,1.8-8.3,1.8c-2.5,0-4.8-0.5-7.1-1.4
		c-2.3-0.9-4.4-2.6-6.4-5.1v5.1h-11.9V71.8z M145,111.8c0,3,0.2,5.4,0.7,7.1c0.5,1.8,1.3,3.2,2.4,4.3c1.2,1.1,2.3,1.7,3.5,2.1
		c1.2,0.3,2.4,0.5,3.6,0.5c1.3,0,2.6-0.3,3.9-0.8c1.2-0.5,2.3-1.4,3.2-2.5c0.9-1.1,1.6-2.6,2.1-4.4c0.5-1.8,0.8-4,0.8-6.6
		c0-2.7-0.2-4.9-0.7-6.7c-0.5-1.8-1.2-3.3-2.1-4.4c-0.9-1.1-1.9-2-3.1-2.5c-1.2-0.5-2.5-0.7-3.8-0.7c-1.5,0-2.8,0.2-3.9,0.6
		c-1.1,0.4-2.2,1.1-3.2,1.9c-1.2,1.1-2,2.5-2.6,4.2c-0.6,1.7-0.8,3.9-0.8,6.5V111.8z"/>
</g>
</svg>
