<!-- Generator: Adobe Illustrator 22.0.0, SVG Export Plug-In  -->
<svg version="1.1"
	 xmlns="http://www.w3.org/2000/svg" xmlns:xlink="http://www.w3.org/1999/xlink" xmlns:a="http://ns.adobe.com/AdobeSVGViewerExtensions/3.0/"
	 x="0px" y="0px" width="467.6px" height="246.5px" viewBox="0 0 467.6 246.5" style="enable-background:new 0 0 467.6 246.5;"
	 xml:space="preserve">
<style type="text/css">
	.st0{fill:#F99F1C;}
	.st1{fill:#EF6523;}
	.st2{fill:#0A4D68;}
	.st3{fill:#03739A;}
	.st4{fill:#163D67;}
	.st5{fill:#F58020;}
	.st6{fill:#FDCE0D;}
	.st7{fill:#1D5E2F;}
	.st8{fill:#F37024;}
	.st9{fill:#05233E;}
	.st10{fill:#0A1527;}
	.st11{fill:#F6871F;}
	.st12{fill:#EB5524;}
	.st13{fill:#F36E21;}
	.st14{fill:#EA4624;}
	.st15{fill:#E83E25;}
	.st16{fill:#06579A;}
	.st17{fill:#081C3E;}
	.st18{fill:#089BCD;}
	.st19{fill:#12487B;}
	.st20{fill:#233B77;}
</style>
<defs>
</defs>
<g>
	<path class="st0" d="M399.8,135.4c-8.6,0-15.4-6.8-15.4-15.5h16.5c-2.7-4.8-4.7-10-6-15.5h-10.4c0-6.7,3.9-11.8,9-14.1
		c0.2-7.9,1.9-15.3,4.9-22.1c-25.4,0.8-39.9,21.9-39.9,39.7l0,9.1c0,23,20.6,39.2,41.3,39.2c13.3,0,23.3-1.7,33-4.1
		c2.8-0.7,3.3-1.7,3.3-4.2v-0.5c-8.4-2.3-16.1-6.4-22.6-12C409.8,135.4,405.4,135.4,399.8,135.4L399.8,135.4z"/>
	<path class="st0" d="M322.1,130.8C322.1,130.8,322.1,130.8,322.1,130.8C322.2,130.8,322.2,130.8,322.1,130.8l0.1-0.1
		C322.2,130.7,322.1,130.8,322.1,130.8C322.1,130.8,322.1,130.8,322.1,130.8L322.1,130.8z"/>
	<path class="st0" d="M327.4,123.9v10c8.3,4.9,17,9.2,25.9,12.9V45.6c0-1.7-1.2-3.1-3-3.1h-5.6c1.3,6.6,2,13.4,2,20.4
		C346.7,85.8,339.5,106.9,327.4,123.9L327.4,123.9z"/>
	<path class="st0" d="M228.3,94.3l17.9,0l-14.5,10.6c5.2,7.2,8.7,15.7,10.1,24.8l41.4-30.2c-9.4-9.6-18-20-25.6-31.3h-25.2v0
		C232.4,77.3,230.9,86.1,228.3,94.3L228.3,94.3z"/>
	<path class="st0" d="M239.7,156.1c17.6,0,39.5,0,47.9,0.1c3.4-0.1,3.5-3.5,3.5-3.5c0-1.6,0-14,0-17.3c0-3.5-3.5-3.5-3.5-3.5h-45.6
		c0.2,2.1,0.4,4.3,0.4,6.5C242.5,144.6,241.5,150.5,239.7,156.1L239.7,156.1z"/>
	<path class="st0" d="M297.4,152c0.5-0.3,1-0.6,1.5-0.9c0.2-0.2,0.5-0.3,0.7-0.5c0.7-0.4,1.3-0.9,2-1.3c0.7-0.5,1.5-1,2.2-1.5
		c1-0.7,1.9-1.4,2.8-2.1c0.6-0.4,1.1-0.9,1.6-1.3c0.7-0.5,1.3-1.1,2-1.6c0.6-0.5,1.1-1,1.7-1.5c0.6-0.5,1.2-1.1,1.8-1.6
		c0.6-0.5,1.1-1,1.6-1.6c0.6-0.5,1.1-1.1,1.7-1.6c0.5-0.5,1.1-1.1,1.6-1.7c0.5-0.6,1.1-1.1,1.6-1.7c0.5-0.6,1-1.1,1.5-1.7
		c0.2-0.2,0.4-0.5,0.6-0.7c-9.1-5.7-17.7-12.1-25.8-19v40.9C296.6,152.4,297,152.2,297.4,152L297.4,152z"/>
	<path class="st1" d="M327.4,45.6v78.3c12.1-17.1,19.3-38.2,19.3-61c0-7-0.7-13.8-2-20.4h-14.1C329,42.5,327.4,43.9,327.4,45.6
		L327.4,45.6z"/>
	<path class="st1" d="M299.4,63h19.7c1.7,0,3.1-1.4,3.1-3.1V45.6c0-1.7-1.4-3.1-3.1-3.1h-19.7c-1.7,0-3.1,1.4-3.1,3.1v14.3
		C296.3,61.6,297.7,63,299.4,63L299.4,63z"/>
	<path class="st1" d="M322.2,130.7v-59c0-1.7-1.4-3.5-3.1-3.5h-19.7c-1.7,0-3.1,1.8-3.1,3.5v40c8.1,7,16.8,13.4,25.8,19.1
		C322.1,130.8,322.2,130.7,322.2,130.7L322.2,130.7z"/>
	<path class="st1" d="M283.2,99.5l4.5-3.3c0,0,3.5-2.2,3.5-7c0-3.9,0-12.4,0-17.6c0-3.7-3.5-3.5-3.5-3.5h-30.1
		C265.2,79.5,273.7,89.9,283.2,99.5L283.2,99.5z"/>
	<path class="st2" d="M436.1,168.1c0-1-0.8-1.8-1.8-1.8h-11.6c-0.5,0-1,0.2-1.3,0.6c5,1.3,9.9,2.8,14.7,4.6V168.1L436.1,168.1z"/>
	<path class="st3" d="M193.2,209.5c1.6,4.8-0.7,7.9-2.7,9.4c-2.4,1.7-6.7,2.2-9.5,0.2c-1-0.8-10-7.3-20.3-14.8
		c1.5,8.4,2.2,17.1,2.2,25.9c0,2.6-0.1,5.1-0.2,7.7c1.5,1.1,2.7,2,3.6,2.6c12.2,8.9,29.1,7.3,39.5-0.5c10.5-7.9,17-23.3,13-35.5
		c-0.6-1.8-2.6-8.1-5.2-16.1c-7.4,4.3-15.8,7-24.8,7.6C190.6,201.7,192.2,206.6,193.2,209.5L193.2,209.5z"/>
	<path class="st3" d="M229.1,206.4l0,12.1c0,1,0.7,1.9,1.7,1.9h11.6C237.1,216.8,232.5,212,229.1,206.4L229.1,206.4z"/>
	<path class="st4" d="M416,178.3c1,0,1.9-0.7,1.9-1.7V168c0-1-0.9-1.7-1.9-1.7h-13.5c2,3.8,3.8,7.8,5.2,12H416L416,178.3z"/>
	<path class="st4" d="M420.9,218.6c0,1,0.8,1.8,1.8,1.8h11.6c1,0,1.8-0.8,1.8-1.8v-47.2c-4.8-1.8-9.7-3.3-14.7-4.6
		c-0.3,0.3-0.5,0.8-0.5,1.3V218.6L420.9,218.6z"/>
	<path class="st5" d="M444.7,90c-0.7,0-1.4-0.1-1.9-0.1h-0.1c-0.4,0-0.8,0.3-0.8,0.6V93c0,0.4,0.4,0.6,0.8,0.7
		c0.8,0.2,1.7,0.3,2.7,0.4v-3.2C445.5,90.9,445.5,90,444.7,90L444.7,90z"/>
	<path class="st5" d="M433.5,135.4h-19.9c6.4,5.5,14.1,9.7,22.6,12v-9.6C436.2,136,435.2,135.4,433.5,135.4L433.5,135.4z"/>
	<path class="st5" d="M466.8,68.2h-4c-0.4,0-0.8,0.3-0.8,0.7v24.8c0,0.4,0.4,0.7,0.8,0.7h4c0.4,0,0.8-0.3,0.8-0.7V68.8
		C467.6,68.5,467.3,68.2,466.8,68.2L466.8,68.2z"/>
	<path class="st5" d="M454.8,80.1l-4.8-2.3c-2.6-1.2-3.3-1.9-3.3-3c0-1.5,1.2-2.4,4.2-2.4c2.6,0,5.2,0.1,7.9,0.3h0.1
		c0.4,0,0.7-0.3,0.7-0.6v-2.5c0-0.3-0.3-0.6-0.7-0.7c-1.4-0.3-5-0.6-7.7-0.6c-7.4,0-10,2.7-10,6.5c0,2.4,1,4.4,4.7,6.3l5.3,2.7
		c2.6,1.3,3.4,2,3.4,3.4c0,2-1.1,3.1-4.6,3.1c-0.4,0-1.3,0-2.1,0c-1,0-0.9,0.9-0.9,0.9v3.1c0.9,0.1,1.8,0.1,2.9,0.1
		c8,0,10.5-3.7,10.5-7.2C460.3,84.4,459.2,82.2,454.8,80.1L454.8,80.1z"/>
	<path class="st5" d="M399.8,89c7.8,0,15.4,6.2,15.4,15.5h-20.3c1.3,5.5,3.3,10.7,6,15.5h36.8c2,0,3.4-1.2,3.4-3.6l0.1-7.8
		c0-21-16.7-40.3-41.3-40.3c-0.5,0-1,0-1.4,0c-3,6.8-4.7,14.2-4.9,22.1C395.5,89.5,397.6,89,399.8,89L399.8,89z"/>
	<path class="st6" d="M175.7,149.2c-0.5,2.1-0.6,4.6,0.3,7.4c0.1,0.4,1,3.2,2.4,7.3c11,1.8,21.3,5.4,30.7,10.6
		c-2.2-6.7-4.4-13.5-6.3-19.3c-5.8-3-11.3-6.6-16.4-10.7C183,146.3,179.4,147.9,175.7,149.2L175.7,149.2z"/>
	<path class="st5" d="M219.3,113.9c-3.9,6.2-8.5,11.8-13.7,16.8c0.1,0.4,0.2,0.8,0.3,1.2c1.6,4.8,5,15.5,5.8,18
		c1.2,3.7,5,6.3,8.9,6.2c4.6,0,11.4,0,19.1-0.1c1.8-5.6,2.8-11.5,2.8-17.7c0-2.2-0.1-4.4-0.4-6.5h-3.3l3-2.2
		c-1.4-9.2-5-17.6-10.1-24.8L219.3,113.9L219.3,113.9z"/>
	<path class="st5" d="M197.4,137.5c-3.5,2.6-7.1,4.9-11,6.9c5.1,4.1,10.6,7.7,16.4,10.7c-2.4-7.4-4.3-13.1-4.8-14.8
		C197.7,139.4,197.5,138.4,197.4,137.5L197.4,137.5z"/>
	<path class="st7" d="M178.4,163.9c2.6,8.1,7,21.5,10.4,32.2c9-0.6,17.4-3.3,24.8-7.6c-1.4-4.3-3-9.1-4.5-14
		C199.7,169.3,189.4,165.7,178.4,163.9L178.4,163.9z"/>
	<path class="st8" d="M4,96.5c1.5,0.4,3,0.9,4.5,1.3c0.3,0.1,0.6,0.2,0.9,0.2c1.2,0.3,2.5,0.6,3.8,0.9c0.5,0.1,1,0.2,1.5,0.3
		c1.3,0.2,2.5,0.5,3.8,0.7c0.3,0.1,0.7,0.1,1,0.2c1.6,0.2,3.2,0.4,4.8,0.6c0.4,0,0.8,0.1,1.2,0.1c0.3,0,0.5,0,0.8,0.1
		c0.1-0.3,0.1-0.6,0.2-0.9c1-3.2,3.8-5.6,7.8-5.6H64c-2.6-8.2-4-16.9-4-26v0c-12.5,0-25.8,0-26,0C19.9,68.2,6.3,77,1.6,91.8
		c-0.4,1.2-0.7,2.4-0.9,3.6C1.3,95.6,2,95.8,2.6,96C3,96.2,3.5,96.3,4,96.5L4,96.5z"/>
	<path class="st2" d="M29.2,108.9c-1.9-1.4-3.7-4.7-3-8.2c-0.3,0-0.5,0-0.8-0.1c-0.4,0-0.8-0.1-1.2-0.1c-1.6-0.2-3.2-0.4-4.8-0.6
		c-0.3-0.1-0.7-0.1-1-0.2c-1.3-0.2-2.5-0.4-3.8-0.7c-0.5-0.1-1-0.2-1.5-0.3c-1.3-0.3-2.5-0.6-3.8-0.9c-0.3-0.1-0.6-0.2-0.9-0.2
		c-1.5-0.4-3-0.8-4.5-1.3C3.5,96.3,3,96.2,2.6,96c-0.6-0.2-1.3-0.4-1.9-0.6c-2.6,12.8,2.1,26.4,12.5,34c2.2,1.6,6.9,5,12.3,8.9
		c9.5-5.3,20.4-8.5,32-8.8C45.8,121,33.4,112,29.2,108.9L29.2,108.9z"/>
	<path class="st9" d="M160.6,204.3c-15.1-10.9-32.9-23.9-32.9-23.9s-0.2,0.1-0.6,0.4c1.6,5.9,2.5,12.2,2.5,18.6
		c0,4.6-0.5,9.1-1.3,13.5c8.2,6,25.5,18.5,34.3,24.9c0.1-2.5,0.2-5.1,0.2-7.7C162.8,221.4,162.1,212.7,160.6,204.3L160.6,204.3z"/>
	<path class="st9" d="M36.8,203.5c-4.4,13.5,2.5,29.4,12.9,36.6c5.3,3.7,11.6,5.9,17.9,6.4c1.3-10,4.1-19.5,8.1-28.2
		c-0.4,0.3-0.7,0.5-1,0.8c-2.4,1.7-6.4,2.4-9.7,0c-3.4-2.5-3.9-6.4-3-9.3c3.4-10.6,20.2-62.2,20.2-62.2s-12-8.7-24.8-17.9
		c-11.6,0.3-22.5,3.5-32,8.8c9.3,6.7,20.8,15.1,26.3,19C48.6,167.6,39.1,196.6,36.8,203.5L36.8,203.5z"/>
	<path class="st10" d="M127.1,180.8c-4.9,3.5-40.7,29.6-51.3,37.3c-4.1,8.8-6.9,18.3-8.1,28.2c7.5,0.6,15-1.2,21-5.5
		c6-4.3,30.2-22,39-28.4c0.2,0.1,0.4,0.3,0.6,0.5c0.8-4.4,1.3-8.9,1.3-13.5C129.6,193,128.7,186.8,127.1,180.8L127.1,180.8z"/>
	<path class="st11" d="M148.1,70.4c-0.2-2.5-0.3-4.9-0.3-7.4c0-16.1,3.5-31.2,9.9-44.8c-3.6-6.8-8.9-11.5-14.6-14.4
		c-1,10.3-3.4,20.2-7.2,29.5C138.4,40.8,143.6,56.7,148.1,70.4L148.1,70.4z"/>
	<path class="st11" d="M77,94.3h22.3c0,0,2.7-8.2,6.2-18.7c-9.2,7.8-19.8,14.1-31.3,18.5c0.4-0.2,0.9-0.3,1.3-0.5
		C76,93.8,76.5,94,77,94.3L77,94.3z"/>
	<path class="st12" d="M148.1,70.4c2.5,7.6,4.8,14.6,6.2,19c8.8-5.5,19.2-8.6,30.4-8.6c14.2,0,27.1,5.1,37.2,13.6h6.4
		c2.6-8.2,4-17,4-26v0h-58.1c-4-12.2-10.9-34.8-13.9-43.8c-0.8-2.3-1.7-4.4-2.7-6.3c-6.3,13.5-9.9,28.7-9.9,44.8
		C147.9,65.4,147.9,67.9,148.1,70.4L148.1,70.4z"/>
	<path class="st13" d="M180.8,141.8c-1.8,1.3-4.2,3.9-5.1,7.4c3.7-1.4,7.3-2.9,10.7-4.8c-1.5-1.2-2.9-2.4-4.3-3.6
		C181.6,141.2,181.1,141.6,180.8,141.8L180.8,141.8z"/>
	<path class="st14" d="M202.7,125.9c0,0-14.6,10.6-20.5,14.9c1.4,1.2,2.8,2.5,4.3,3.6c3.9-2,7.5-4.4,11-7
		C196.7,130.3,202.7,125.9,202.7,125.9L202.7,125.9z"/>
	<path class="st14" d="M205.6,130.7c5.3-5,9.9-10.7,13.7-16.8l-10.1,7.4C209.2,121.2,204.3,124.7,205.6,130.7L205.6,130.7z"/>
	<path class="st14" d="M221.9,94.3c-10-8.5-23-13.6-37.2-13.6c-11.1,0-21.5,3.2-30.4,8.6c1,3.1,1.6,5,1.6,5L221.9,94.3L221.9,94.3z"
		/>
	<path class="st15" d="M64,94.3h9.6c0.2-0.1,0.4-0.1,0.5-0.2c11.5-4.4,22.1-10.7,31.3-18.5c5.1-15.6,12-36.3,14.4-43.7
		c1-3.1,3.8-5.7,7.8-5.7c3.5,0,6.7,2.2,7.7,5.5c0.2,0.5,0.3,1,0.5,1.5c3.7-9.3,6.2-19.2,7.2-29.5c-5-2.5-10.4-3.7-15.4-3.7
		c-13,0-27.3,7.7-32.6,24.1c-2.8,8.7-10,32-14,44.2c-2.6,0-11.6,0-21.1,0v0C60,77.3,61.4,86.1,64,94.3L64,94.3z"/>
	<path class="st11" d="M75.5,93.6c-0.4,0.2-0.9,0.3-1.3,0.5c-0.2,0.1-0.4,0.1-0.6,0.2H77C76.5,94,76,93.8,75.5,93.6L75.5,93.6z"/>
	<path class="st3" d="M330.7,156.2h19.7c1.7,0,3-1.6,3-3.3v-6c-9-3.7-17.6-8-25.9-12.9v18.9C327.4,154.6,329,156.2,330.7,156.2
		L330.7,156.2z"/>
	<path class="st3" d="M312.5,169.7c1.2,4.1,1.8,8.4,1.8,12.8c0,0.2,0,0.4,0,0.6c2.2-1.4,4.5-2.7,6.9-3.9
		C319.3,175.2,316.2,171.9,312.5,169.7L312.5,169.7z"/>
	<path class="st3" d="M322.2,152.7v-21.8c0,0-0.1,0-0.1-0.1c-0.2,0.2-0.4,0.4-0.6,0.7c-0.5,0.6-1,1.2-1.5,1.7
		c-0.5,0.6-1,1.1-1.6,1.7c-0.5,0.6-1.1,1.1-1.6,1.7c-0.5,0.6-1.1,1.1-1.7,1.6c-0.5,0.5-1.1,1.1-1.6,1.6c-0.6,0.5-1.2,1.1-1.8,1.6
		c-0.6,0.5-1.1,1-1.7,1.5c-0.6,0.5-1.3,1.1-2,1.6c-0.5,0.4-1.1,0.9-1.6,1.3c-0.9,0.7-1.9,1.4-2.8,2.1c-0.7,0.5-1.5,1-2.2,1.5
		c-0.6,0.4-1.1,0.8-1.7,1.1c0.3-0.2,0.6-0.4,0.9-0.6c1.9,1.9,3.7,4,5.3,6.3h13C320.8,156.2,322.2,154.4,322.2,152.7L322.2,152.7z"/>
	<path class="st3" d="M349.4,166.3c-6.9,0-12.7,3-16.7,7.4c6.7-2.9,13.7-5.2,20.9-7C352.2,166.4,350.8,166.3,349.4,166.3
		L349.4,166.3z"/>
	<path class="st0" d="M322.2,130.8C322.1,130.8,322.1,130.8,322.2,130.8C322.2,130.8,322.2,130.8,322.2,130.8L322.2,130.8
		C322.2,130.8,322.2,130.8,322.2,130.8L322.2,130.8z"/>
	<path class="st16" d="M295.2,219.8c1.7,0.4,3.5,0.6,5.5,0.6c14.1,0,22.8-11.6,22.8-22.8l0-8.5c0-3.6-0.8-7-2.3-10
		c-2.3,1.3-4.6,2.5-6.9,3.9C314.2,198.2,306.7,211.6,295.2,219.8L295.2,219.8z"/>
	<path class="st16" d="M374,166.3c-1,0-1.8,0.7-1.8,1.7v5.6c4.7-2.8,9.6-5.2,14.8-7.3H374L374,166.3z"/>
	<path class="st16" d="M353.6,166.7c-7.2,1.8-14.2,4.1-20.9,7c-3.9,4.3-6.1,9.9-6.1,15.4l0,33.8c4.1-8.5,9.2-16.4,15.2-23.6l0-13.5
		c0-4,3.2-7.5,7.7-7.5c3.5,0,6.7,2.4,7.4,6c3.6-3,7.3-5.7,11.2-8.2C364.8,171.3,359.6,167.8,353.6,166.7L353.6,166.7z"/>
	<path class="st17" d="M389.3,231.8h11.6c1,0,1.8-0.8,1.8-1.8v-4.6c0-1-0.8-1.8-1.8-1.8h-11.6c-1,0-1.8,0.8-1.8,1.8v4.6
		C387.4,231,388.2,231.8,389.3,231.8L389.3,231.8z"/>
	<path class="st17" d="M357,185.8l0,15c0,3.5-3,7.5-7.6,7.5c-4.2,0-7.6-3.4-7.6-7.5v-1.5c-6,7.2-11.1,15.1-15.2,23.6v7
		c0,1,0.8,1.8,1.8,1.8h11.6c1,0,1.8-0.8,1.8-1.8v-10.8c2.4,0.7,4.6,1.4,7.6,1.3c13.5-0.2,22.8-10.9,22.8-22.8v-8.5
		c0-4.8-1.5-9.3-4.1-13c-3.9,2.5-7.7,5.3-11.3,8.2C357,184.8,357,185.3,357,185.8L357,185.8z"/>
	<path class="st17" d="M372.2,173.6v3c0,1,0.8,1.7,1.8,1.7h13.4v40.3c0,1,0.8,1.8,1.8,1.8h11.6c1,0,1.8-0.8,1.8-1.8v-40.3h5
		c-1.4-4.2-3.1-8.2-5.2-12H387C381.9,168.4,376.9,170.8,372.2,173.6L372.2,173.6z"/>
	<path class="st18" d="M244.4,166.3c-7.6,0-15.2,6.1-15.2,15.2l0,7.7c5.8,5.6,10.9,11.8,15.2,18.7v-24.5c0-2.4,2-5.1,5-5.1h5.1
		c0.7,0,1.4,0.2,2,0.4c1.4-4.3,3.2-8.4,5.3-12.3c-0.7-0.1-1.5-0.2-2.2-0.2H244.4L244.4,166.3z"/>
	<path class="st19" d="M229.1,189.2l0,17.2c3.4,5.6,8,10.3,13.3,14h0.1c1,0,1.8-0.9,1.8-1.9v-10.6C240.1,201,235,194.8,229.1,189.2
		L229.1,189.2z"/>
	<path class="st19" d="M299.8,150.5c-0.2,0.2-0.5,0.3-0.7,0.5c-0.2,0.2-0.5,0.3-0.7,0.5c-0.7,0.4-1.4,0.9-2.1,1.3
		c0,1.7,1.4,3.5,3.1,3.5h6.6c-1.6-2.2-3.3-4.3-5.3-6.3C300.5,150.1,300.2,150.3,299.8,150.5L299.8,150.5z"/>
	<path class="st19" d="M293.1,199.1l0-13.2c0-4.6,3.8-7.5,7.7-7.5c3.8,0,7.6,3,7.6,7.5v1.1c2-1.4,4-2.7,6-3.9c0-0.2,0-0.4,0-0.6
		c0-4.5-0.6-8.8-1.8-12.8c-3.5-2.1-7.6-3.4-11.8-3.4c-11.6,0-22.9,9.2-22.9,22.8v8.5c0,4.3,1.4,8.9,4,12.8
		C285.4,206.4,289.1,202.6,293.1,199.1L293.1,199.1z"/>
	<path class="st19" d="M259.6,183.3l0,35.3c0,1,0.8,1.9,1.8,1.9h11.7c1,0,1.7-0.9,1.7-1.9l0-36.1c0-9.8-6.5-15-13-15.9
		c-2.1,3.9-3.8,8-5.2,12.3C258.2,179.5,259.6,181.2,259.6,183.3L259.6,183.3z"/>
	<path class="st20" d="M314.4,183.1c-2.1,1.3-4.1,2.6-6,3.9l0,13.9c0,3.8-3.2,7.5-7.6,7.5c-4.3,0-7.7-3.3-7.7-7.5v-1.8
		c-3.9,3.6-7.7,7.4-11.2,11.4c2.9,4.4,7.4,8,13.4,9.4C306.7,211.6,314.2,198.2,314.4,183.1L314.4,183.1z"/>
</g>
</svg>
