<!-- Generator: Adobe Illustrator 21.1.0, SVG Export Plug-In  -->
<svg version="1.1"
	 xmlns="http://www.w3.org/2000/svg" xmlns:xlink="http://www.w3.org/1999/xlink" xmlns:a="http://ns.adobe.com/AdobeSVGViewerExtensions/3.0/"
	 x="0px" y="0px" width="182.6px" height="147.7px" viewBox="0 0 182.6 147.7" style="enable-background:new 0 0 182.6 147.7;"
	 xml:space="preserve">
<defs>
</defs>
<path d="M76,109.7l-4.8,0.8l0,8.2l4.8-0.9L76,109.7z M167.5,93.5c-0.4,0.1-0.8,0.1-1.1,0.2c-0.4,0.1-0.7,0.2-1,0.3
	c-0.3,0.1-0.7,0.2-1,0.4c-0.3,0.1-0.6,0.3-0.9,0.5c-0.3,0.2-0.5,0.4-0.8,0.5c-0.2,0.2-0.5,0.4-0.7,0.6c-0.2,0.2-0.4,0.4-0.6,0.7
	c-0.2,0.2-0.3,0.5-0.4,0.7c-0.1,0.2-0.3,0.5-0.4,0.8c-0.1,0.3-0.2,0.6-0.3,1c-0.1,0.4-0.1,0.7-0.2,1.2c0,0.4-0.1,0.9-0.1,1.3
	c0,0.3,0,0.6,0,0.9c0,0.3,0,0.6,0.1,0.8c0,0.3,0.1,0.5,0.1,0.7c0.1,0.2,0.1,0.4,0.2,0.6c0.1,0.2,0.2,0.4,0.3,0.6
	c0.1,0.2,0.2,0.3,0.3,0.5c0.1,0.1,0.2,0.3,0.3,0.4c0.1,0.1,0.2,0.2,0.4,0.3c0.1,0.1,0.3,0.2,0.5,0.3c0.2,0.1,0.4,0.3,0.7,0.4
	c0.3,0.1,0.6,0.3,0.9,0.5c0.3,0.2,0.7,0.3,1.1,0.5s0.8,0.4,1.1,0.5c0.3,0.2,0.6,0.3,0.8,0.5c0.2,0.1,0.5,0.3,0.6,0.4
	c0.2,0.1,0.3,0.2,0.4,0.3c0.1,0.1,0.2,0.2,0.2,0.4c0.1,0.2,0.1,0.3,0.2,0.6c0,0.2,0.1,0.5,0.1,0.8c0,0.3,0,0.6,0,1
	c0,0.2,0,0.3,0,0.5c0,0.2,0,0.3-0.1,0.4c0,0.1-0.1,0.2-0.1,0.4c0,0.1-0.1,0.2-0.1,0.3c-0.1,0.1-0.1,0.2-0.2,0.3
	c-0.1,0.1-0.1,0.1-0.2,0.2c-0.1,0.1-0.2,0.1-0.3,0.1c-0.1,0-0.2,0.1-0.3,0.1c-0.1,0-0.2,0-0.3,0c-0.1,0-0.2,0-0.2,0
	c-0.1,0-0.1,0-0.2-0.1c-0.1,0-0.1-0.1-0.1-0.1c0-0.1-0.1-0.1-0.1-0.2c0-0.1,0-0.2-0.1-0.4c0-0.1,0-0.3,0-0.5c0-0.2,0-0.4,0-0.6
	l0.1-3l-6,1.1l-0.1,1.6c0,0.5,0,0.9,0,1.3c0,0.4,0,0.8,0.1,1.1c0,0.3,0.1,0.7,0.1,1c0.1,0.3,0.1,0.5,0.2,0.8
	c0.1,0.2,0.2,0.4,0.3,0.7c0.1,0.2,0.3,0.4,0.5,0.5c0.2,0.2,0.4,0.3,0.7,0.5c0.2,0.1,0.5,0.3,0.8,0.4c0.3,0.1,0.6,0.2,1,0.2
	c0.3,0.1,0.7,0.1,1,0.1c0.4,0,0.8,0,1.1,0c0.4,0,0.8-0.1,1.2-0.2c0.4-0.1,0.8-0.2,1.1-0.3c0.4-0.1,0.7-0.2,1.1-0.4
	c0.3-0.1,0.7-0.3,1-0.5c0.3-0.2,0.6-0.3,0.9-0.5c0.3-0.2,0.6-0.4,0.8-0.6c0.3-0.2,0.5-0.4,0.7-0.6c0.2-0.2,0.4-0.4,0.5-0.6
	c0.2-0.2,0.3-0.4,0.4-0.7c0.1-0.2,0.2-0.5,0.3-0.8c0.1-0.3,0.2-0.6,0.2-0.9c0.1-0.3,0.1-0.7,0.2-1.1c0-0.4,0.1-0.8,0.1-1.2
	c0-0.6,0-1.1,0-1.7c0-0.5-0.1-1-0.2-1.4c-0.1-0.4-0.2-0.8-0.3-1.1c-0.1-0.3-0.3-0.6-0.5-0.8c-0.2-0.2-0.4-0.5-0.7-0.7
	c-0.3-0.3-0.7-0.5-1.1-0.8c-0.4-0.3-0.9-0.5-1.5-0.8c-0.6-0.3-1.2-0.6-1.9-0.9c-0.2-0.1-0.5-0.2-0.7-0.3c-0.2-0.1-0.4-0.2-0.5-0.3
	c-0.1-0.1-0.3-0.2-0.4-0.3c-0.1-0.1-0.2-0.2-0.2-0.3c-0.1-0.1-0.1-0.2-0.1-0.3c0-0.1-0.1-0.3-0.1-0.4c0-0.1,0-0.3,0-0.5
	c0-0.2,0-0.4,0-0.6c0-0.2,0-0.3,0-0.5c0-0.1,0-0.3,0.1-0.4c0-0.1,0.1-0.2,0.1-0.4c0-0.1,0.1-0.2,0.1-0.3c0.1-0.1,0.1-0.2,0.2-0.2
	c0.1-0.1,0.1-0.1,0.2-0.2c0.1-0.1,0.2-0.1,0.2-0.1c0.1,0,0.2-0.1,0.3-0.1c0.1,0,0.2,0,0.2,0c0.1,0,0.1,0,0.2,0c0.1,0,0.1,0,0.2,0.1
	c0.1,0,0.1,0.1,0.1,0.1c0,0.1,0.1,0.1,0.1,0.2c0,0.1,0,0.2,0.1,0.3c0,0.1,0,0.3,0,0.5c0,0.2,0,0.4,0,0.6l-0.1,1.8l6-1.1l0-1
	c0-0.5,0-0.9,0-1.4c0-0.4,0-0.8-0.1-1.1c0-0.3-0.1-0.6-0.1-0.9c-0.1-0.3-0.1-0.5-0.2-0.7c-0.1-0.2-0.2-0.4-0.3-0.5
	c-0.1-0.2-0.3-0.3-0.5-0.4c-0.2-0.1-0.4-0.3-0.6-0.4c-0.2-0.1-0.5-0.2-0.8-0.3c-0.3-0.1-0.6-0.2-0.9-0.2c-0.3,0-0.7-0.1-1-0.1
	c-0.4,0-0.7,0-1.1,0C168.3,93.3,167.9,93.4,167.5,93.5 M159,95.4L148,97.4l-0.7,25l11.4-2.2l0.2-4.9l-4.8,0.9l0.2-5.4l4.1-0.8
	l0.2-4.7l-4.1,0.7l0.1-4.7l4.4-0.8L159,95.4z M138.1,98.5c-0.5,0.1-1,0.2-1.5,0.3c-0.5,0.1-0.9,0.3-1.3,0.5
	c-0.4,0.2-0.8,0.4-1.2,0.6c-0.4,0.2-0.7,0.5-1,0.8c-0.3,0.3-0.6,0.6-0.9,0.9c-0.3,0.3-0.5,0.6-0.7,0.9c-0.2,0.3-0.4,0.6-0.5,0.9
	c-0.1,0.3-0.2,0.6-0.3,0.9c-0.1,0.3-0.1,0.6-0.2,1c-0.1,0.4-0.1,0.8-0.2,1.2c0,0.4-0.1,0.9-0.1,1.5c0,0.5,0,1.1-0.1,1.7l-0.1,7.5
	c0,0.4,0,0.8,0,1.2c0,0.4,0,0.7,0,1c0,0.3,0,0.6,0,0.9c0,0.3,0,0.5,0.1,0.7c0,0.2,0.1,0.4,0.1,0.6c0.1,0.2,0.1,0.4,0.2,0.6
	c0.1,0.2,0.2,0.4,0.3,0.6c0.1,0.2,0.2,0.4,0.3,0.5c0.1,0.2,0.3,0.3,0.4,0.5c0.2,0.2,0.3,0.3,0.5,0.4c0.2,0.1,0.4,0.2,0.6,0.3
	c0.2,0.1,0.4,0.2,0.7,0.3c0.2,0.1,0.5,0.2,0.7,0.2c0.2,0.1,0.5,0.1,0.8,0.1c0.3,0,0.5,0,0.8,0c0.3,0,0.5-0.1,0.8-0.1
	c0.2-0.1,0.5-0.1,0.7-0.2c0.2-0.1,0.4-0.1,0.6-0.2c0.2-0.1,0.4-0.2,0.6-0.3c0.2-0.1,0.4-0.2,0.5-0.4c0.2-0.1,0.3-0.3,0.5-0.4
	c0.2-0.2,0.3-0.3,0.5-0.5c0.1-0.2,0.3-0.4,0.4-0.6c0.1-0.2,0.3-0.4,0.4-0.6l0.6,1.7l4.2-0.8l0.4-13.4l-7.9,1.4l-0.1,3.8l1.4-0.2
	l-0.1,3c0,0.3,0,0.6,0,0.8c0,0.2,0,0.5-0.1,0.7c0,0.2-0.1,0.4-0.1,0.5c0,0.2-0.1,0.3-0.1,0.4c0,0.1-0.1,0.2-0.2,0.3
	c-0.1,0.1-0.1,0.2-0.2,0.2c-0.1,0.1-0.2,0.1-0.3,0.2c-0.1,0-0.2,0.1-0.3,0.1c-0.1,0-0.2,0-0.3,0c-0.1,0-0.2,0-0.2-0.1
	c-0.1,0-0.1-0.1-0.2-0.1c-0.1-0.1-0.1-0.1-0.1-0.2c0-0.1-0.1-0.2-0.1-0.3c0-0.1,0-0.3-0.1-0.5c0-0.2,0-0.4,0-0.6c0-0.2,0-0.5,0-0.8
	l0.3-12.1c0-0.3,0-0.6,0-0.9c0-0.3,0-0.5,0.1-0.7c0-0.2,0.1-0.4,0.1-0.5c0-0.1,0.1-0.3,0.1-0.3c0-0.1,0.1-0.2,0.1-0.2
	c0.1-0.1,0.1-0.1,0.2-0.2c0.1-0.1,0.1-0.1,0.2-0.1c0.1,0,0.2-0.1,0.3-0.1c0.1,0,0.2,0,0.3,0c0.1,0,0.2,0,0.3,0.1
	c0.1,0,0.1,0.1,0.2,0.1c0.1,0.1,0.1,0.1,0.1,0.2c0,0.1,0.1,0.2,0.1,0.4c0,0.2,0,0.3,0,0.6c0,0.2,0,0.5,0,0.8c0,0.3,0,0.6,0,1
	l-0.1,2.3l6.7-1.2l0-1.1c0-0.5,0-1,0-1.4c0-0.5,0-0.9-0.1-1.3c0-0.4-0.1-0.7-0.2-1.1c-0.1-0.3-0.1-0.6-0.2-0.9
	c-0.1-0.3-0.2-0.5-0.4-0.7c-0.1-0.2-0.3-0.4-0.5-0.6c-0.2-0.2-0.4-0.4-0.7-0.6c-0.3-0.2-0.6-0.3-0.9-0.5c-0.3-0.1-0.7-0.3-1-0.3
	c-0.4-0.1-0.7-0.1-1.2-0.2c-0.4,0-0.8,0-1.3,0C139,98.4,138.6,98.5,138.1,98.5 M128.9,125.9l-7,1.3l-0.3-4.4l-2.5,0.5l-0.5,4.6
	l-7.2,1.4l3.9-26.2l10.1-1.7L128.9,125.9z M121.5,118.3c-0.1-0.7-0.2-1.4-0.2-2.2c-0.1-0.8-0.1-1.6-0.2-2.5
	c-0.1-0.9-0.1-1.8-0.2-2.8c-0.1-1-0.1-2-0.2-3c-0.2,1.3-0.4,2.4-0.5,3.5c-0.2,1.1-0.3,2.1-0.4,3c-0.1,0.9-0.2,1.7-0.3,2.5
	c-0.1,0.7-0.2,1.4-0.2,2L121.5,118.3z M110.2,103.9l-9.3,1.6l-1.7,12.4l-1-6.4c-0.1-0.5-0.1-1-0.2-1.5c-0.1-0.5-0.1-1-0.2-1.4
	c-0.1-0.4-0.1-0.9-0.2-1.3c-0.1-0.4-0.1-0.8-0.2-1.2l-9.4,1.6l0,26l6.3-1.2l0.1-17l2.6,16.5l4.4-0.8l2.6-17.8l-0.1,17.3l6.2-1.2
	L110.2,103.9z M85.7,108.1l-7.4,1.3l0.1,26.2l7.3-1.4L85.7,108.1z M57.5,113c0.9-0.2,1.8-0.3,2.5-0.4c0.8-0.1,1.5-0.2,2.1-0.3
	c0.6-0.1,1.2-0.1,1.6-0.1c0.5,0,0.9,0,1.2,0c0.3,0,0.6,0.1,0.9,0.1c0.3,0.1,0.5,0.1,0.8,0.2c0.2,0.1,0.5,0.2,0.7,0.3
	c0.2,0.1,0.4,0.2,0.6,0.4c0.2,0.1,0.3,0.3,0.5,0.5c0.1,0.2,0.3,0.3,0.4,0.5c0.1,0.2,0.2,0.4,0.3,0.6c0.1,0.2,0.1,0.4,0.2,0.6
	c0,0.2,0.1,0.5,0.1,0.8c0,0.3,0.1,0.7,0.1,1.1c0,0.4,0,0.9,0.1,1.4c0,0.5,0,1.1,0,1.7l0.1,9.2c0,0.6,0,1.1,0,1.6
	c0,0.5,0,0.9-0.1,1.3c0,0.4-0.1,0.7-0.1,1.1c0,0.3-0.1,0.6-0.2,0.8c-0.1,0.2-0.1,0.4-0.2,0.6c-0.1,0.2-0.2,0.4-0.3,0.5
	c-0.1,0.2-0.2,0.3-0.3,0.5c-0.1,0.2-0.3,0.3-0.4,0.4c-0.2,0.1-0.3,0.3-0.5,0.4c-0.2,0.1-0.3,0.2-0.5,0.4c-0.2,0.1-0.4,0.2-0.6,0.3
	c-0.2,0.1-0.4,0.2-0.6,0.3c-0.2,0.1-0.5,0.2-0.8,0.3c-0.3,0.1-0.6,0.2-0.9,0.3c-0.3,0.1-0.7,0.2-1.1,0.3c-0.4,0.1-0.8,0.2-1.3,0.3
	l-9.6,1.8L51.8,114L57.5,113z M59.7,134.7c0.3-0.1,0.5-0.1,0.7-0.2c0.2-0.1,0.4-0.1,0.6-0.2c0.2-0.1,0.3-0.2,0.4-0.3
	c0.1-0.1,0.2-0.2,0.3-0.3c0.1-0.1,0.1-0.3,0.2-0.5c0-0.2,0.1-0.4,0.1-0.7c0-0.3,0.1-0.6,0.1-0.9c0-0.4,0-0.8,0-1.2l-0.1-10.3
	c0-0.3,0-0.6,0-0.8c0-0.2,0-0.5,0-0.7c0-0.2,0-0.4,0-0.5c0-0.1,0-0.2-0.1-0.3c0-0.1-0.1-0.2-0.1-0.2c0-0.1-0.1-0.1-0.1-0.2
	c0-0.1-0.1-0.1-0.2-0.1c-0.1,0-0.1-0.1-0.2-0.1c-0.1,0-0.2,0-0.3-0.1c-0.1,0-0.2,0-0.4,0c-0.1,0-0.3,0-0.5,0c-0.2,0-0.4,0.1-0.6,0.1
	L59.7,134.7z M173.3,27.1l-6.9,0.8l-0.9,26.8l10.9-1.6l0.2-5.3l-4.1,0.6L173.3,27.1z M164,55l-7,1l-0.2-4.7l-2.5,0.3l-0.5,4.9
	l-7.2,1l4.3-27.6l10.1-1.2L164,55z M156.7,46.5c-0.1-0.8-0.1-1.5-0.2-2.4c-0.1-0.8-0.1-1.7-0.2-2.7c-0.1-0.9-0.1-1.9-0.2-2.9
	c-0.1-1-0.1-2.1-0.2-3.2c-0.2,1.3-0.4,2.6-0.6,3.7c-0.2,1.1-0.3,2.2-0.5,3.2c-0.1,1-0.3,1.8-0.4,2.6c-0.1,0.8-0.2,1.5-0.3,2.1
	L156.7,46.5z M147.7,30.2l-7.5,0.9l-0.6,5.2c-0.1,1-0.2,2.1-0.4,3.2c-0.1,1.1-0.3,2.3-0.4,3.5c-0.1,1.2-0.3,2.4-0.4,3.7
	c-0.1,1.3-0.2,2.6-0.4,3.9c-0.1-1.3-0.1-2.7-0.2-4.1c-0.1-1.4-0.2-2.9-0.3-4.5c-0.1-1.6-0.3-3.2-0.4-5c-0.1-1.7-0.3-3.5-0.5-5.4
	l-7.7,0.9l3.7,26.9l10.8-1.5L147.7,30.2z M127.4,32.7l-7.3,0.9l-0.4,27.7l7.3-1L127.4,32.7z M117.9,33.9l-16.4,2l0,5.7L106,41
	l-0.2,22.3l7.4-1.1l0.3-22.2l4.4-0.6L117.9,33.9z M90.9,36.5c-0.5,0.1-0.9,0.1-1.3,0.2c-0.4,0.1-0.8,0.2-1.2,0.3
	c-0.4,0.1-0.8,0.3-1.1,0.4c-0.4,0.2-0.7,0.3-1,0.5c-0.3,0.2-0.6,0.4-0.9,0.6c-0.3,0.2-0.5,0.4-0.8,0.7c-0.2,0.2-0.5,0.5-0.6,0.7
	c-0.2,0.3-0.4,0.5-0.5,0.8c-0.1,0.3-0.3,0.6-0.4,0.9c-0.1,0.3-0.2,0.7-0.3,1.1c-0.1,0.4-0.1,0.9-0.2,1.3c0,0.5-0.1,1-0.1,1.5
	c0,0.4,0,0.7,0,1.1c0,0.3,0.1,0.7,0.1,1c0.1,0.3,0.1,0.6,0.2,0.9c0.1,0.3,0.2,0.5,0.3,0.7c0.1,0.2,0.2,0.4,0.3,0.7
	c0.1,0.2,0.2,0.4,0.4,0.6c0.1,0.2,0.3,0.3,0.4,0.5c0.1,0.1,0.3,0.3,0.5,0.4c0.2,0.1,0.4,0.2,0.6,0.4c0.2,0.1,0.5,0.3,0.8,0.5
	c0.3,0.2,0.7,0.4,1.1,0.6c0.4,0.2,0.8,0.4,1.3,0.7c0.5,0.2,0.9,0.5,1.3,0.7c0.4,0.2,0.7,0.4,1,0.6c0.3,0.2,0.6,0.3,0.8,0.5
	c0.2,0.1,0.4,0.3,0.5,0.4c0.1,0.1,0.2,0.3,0.3,0.4c0.1,0.2,0.2,0.4,0.2,0.7c0.1,0.3,0.1,0.6,0.1,0.9c0,0.3,0,0.7,0,1.1
	c0,0.2,0,0.4,0,0.5c0,0.2,0,0.3-0.1,0.5c0,0.1-0.1,0.3-0.1,0.4c0,0.1-0.1,0.2-0.2,0.3c-0.1,0.1-0.1,0.2-0.2,0.3
	c-0.1,0.1-0.2,0.2-0.3,0.2c-0.1,0.1-0.2,0.1-0.3,0.2c-0.1,0-0.2,0.1-0.4,0.1c-0.1,0-0.2,0-0.4,0c-0.1,0-0.2,0-0.3,0
	c-0.1,0-0.2-0.1-0.2-0.1c-0.1,0-0.1-0.1-0.2-0.2c-0.1-0.1-0.1-0.2-0.1-0.3c0-0.1-0.1-0.3-0.1-0.4c0-0.2,0-0.4-0.1-0.6
	c0-0.2,0-0.5,0-0.7l0-3.4l-7.2,1l0,1.9c0,0.5,0,1,0,1.5c0,0.5,0.1,0.9,0.1,1.3c0.1,0.4,0.1,0.8,0.2,1.1c0.1,0.3,0.2,0.6,0.3,0.9
	c0.1,0.3,0.3,0.5,0.4,0.8c0.2,0.2,0.4,0.5,0.6,0.7c0.2,0.2,0.5,0.4,0.8,0.6c0.3,0.2,0.6,0.3,1,0.4c0.4,0.1,0.8,0.2,1.1,0.3
	c0.4,0.1,0.8,0.1,1.3,0.2c0.4,0,0.9,0,1.4,0c0.5,0,1-0.1,1.5-0.1c0.5-0.1,0.9-0.1,1.4-0.3c0.4-0.1,0.9-0.2,1.3-0.4
	c0.4-0.1,0.8-0.3,1.2-0.5c0.4-0.2,0.7-0.4,1.1-0.6c0.4-0.2,0.7-0.4,1-0.6c0.3-0.2,0.6-0.4,0.8-0.7c0.2-0.2,0.4-0.5,0.6-0.7
	c0.2-0.2,0.3-0.5,0.5-0.7c0.1-0.2,0.2-0.5,0.3-0.8c0.1-0.3,0.2-0.7,0.2-1c0.1-0.4,0.1-0.8,0.1-1.2c0-0.4,0.1-0.9,0.1-1.4
	c0-0.7,0-1.3-0.1-1.9c-0.1-0.6-0.1-1.1-0.2-1.6c-0.1-0.5-0.2-0.9-0.4-1.3c-0.2-0.4-0.4-0.7-0.6-1c-0.2-0.3-0.5-0.6-0.9-0.9
	c-0.4-0.3-0.8-0.6-1.4-1c-0.5-0.3-1.2-0.7-1.8-1c-0.7-0.4-1.5-0.7-2.3-1.1c-0.3-0.1-0.6-0.3-0.8-0.4c-0.2-0.1-0.5-0.2-0.6-0.4
	c-0.2-0.1-0.3-0.2-0.5-0.4c-0.1-0.1-0.2-0.2-0.3-0.3c-0.1-0.1-0.1-0.2-0.2-0.4c-0.1-0.1-0.1-0.3-0.1-0.5c0-0.2-0.1-0.4-0.1-0.6
	c0-0.2,0-0.4,0-0.7c0-0.2,0-0.4,0-0.5c0-0.2,0-0.3,0.1-0.5c0-0.1,0.1-0.3,0.1-0.4c0-0.1,0.1-0.2,0.2-0.3c0.1-0.1,0.1-0.2,0.2-0.3
	c0.1-0.1,0.2-0.1,0.2-0.2c0.1-0.1,0.2-0.1,0.3-0.1c0.1,0,0.2-0.1,0.3-0.1c0.1,0,0.2,0,0.3,0c0.1,0,0.2,0,0.3,0
	c0.1,0,0.1,0.1,0.2,0.1c0.1,0,0.1,0.1,0.2,0.2c0,0.1,0.1,0.1,0.1,0.3c0,0.1,0.1,0.2,0.1,0.4c0,0.2,0,0.3,0.1,0.5c0,0.2,0,0.4,0,0.7
	l0,2.1l7.1-0.9l0-1.1c0-0.6,0-1.1,0-1.6c0-0.5-0.1-0.9-0.1-1.3c-0.1-0.4-0.1-0.7-0.2-1c-0.1-0.3-0.2-0.6-0.3-0.8
	c-0.1-0.2-0.3-0.4-0.4-0.6c-0.2-0.2-0.4-0.4-0.6-0.5c-0.2-0.2-0.5-0.3-0.8-0.5c-0.3-0.1-0.6-0.3-1-0.4c-0.3-0.1-0.7-0.2-1.1-0.3
	c-0.4-0.1-0.8-0.1-1.2-0.1c-0.4,0-0.9,0-1.3,0C91.9,36.4,91.4,36.5,90.9,36.5 M80,38.5l-13.2,1.6L67,68.8l13.5-1.9l0-5.7L74.8,62
	l0-6.2l4.9-0.7l0-5.4l-4.9,0.6l0-5.4l5.2-0.7L80,38.5z M64.4,40.4l-13.7,1.7l0.4,29l8-1.1l-0.1-12l4.9-0.7l0-5.5l-5,0.6l-0.1-5.5
	l5.6-0.7L64.4,40.4z M165.6,56.8c-0.5,0.1-1,0.2-1.5,0.3c-0.5,0.1-1,0.2-1.4,0.4c-0.5,0.2-0.9,0.3-1.3,0.5c-0.4,0.2-0.8,0.4-1.2,0.6
	c-0.4,0.2-0.7,0.5-1.1,0.7c-0.3,0.3-0.6,0.5-0.9,0.8c-0.3,0.3-0.5,0.6-0.8,0.9c-0.2,0.3-0.4,0.6-0.6,1c-0.2,0.3-0.3,0.7-0.5,1.1
	c-0.1,0.4-0.3,0.9-0.4,1.4c-0.1,0.5-0.2,1-0.2,1.6c-0.1,0.6-0.1,1.2-0.1,1.9c0,0.5,0,0.9,0,1.3c0,0.4,0.1,0.8,0.1,1.2
	c0,0.4,0.1,0.7,0.2,1c0.1,0.3,0.2,0.6,0.3,0.9c0.1,0.3,0.2,0.5,0.4,0.8c0.1,0.2,0.3,0.5,0.4,0.7c0.1,0.2,0.3,0.4,0.5,0.6
	c0.2,0.2,0.3,0.3,0.5,0.5c0.2,0.1,0.4,0.3,0.7,0.5c0.3,0.2,0.6,0.4,0.9,0.6c0.4,0.2,0.8,0.4,1.2,0.7c0.4,0.2,0.9,0.5,1.5,0.8
	c0.5,0.3,1,0.5,1.5,0.8c0.4,0.2,0.8,0.5,1.2,0.7c0.3,0.2,0.6,0.4,0.9,0.6c0.2,0.2,0.4,0.3,0.6,0.4c0.1,0.1,0.2,0.3,0.3,0.5
	c0.1,0.2,0.2,0.5,0.2,0.8c0.1,0.3,0.1,0.7,0.1,1.1c0,0.4,0,0.9,0,1.4c0,0.2,0,0.4,0,0.6c0,0.2-0.1,0.4-0.1,0.6
	c0,0.2-0.1,0.3-0.2,0.5c-0.1,0.2-0.1,0.3-0.2,0.4c-0.1,0.1-0.2,0.2-0.3,0.3c-0.1,0.1-0.2,0.2-0.3,0.3c-0.1,0.1-0.2,0.1-0.4,0.2
	c-0.1,0.1-0.3,0.1-0.4,0.1c-0.1,0-0.3,0-0.4,0c-0.1,0-0.2,0-0.3,0c-0.1,0-0.2-0.1-0.3-0.1c-0.1-0.1-0.1-0.1-0.2-0.2
	c-0.1-0.1-0.1-0.2-0.1-0.3c0-0.1-0.1-0.3-0.1-0.5c0-0.2,0-0.4,0-0.7c0-0.3,0-0.6,0-0.9l0.1-4.1l-8.3,1.3l-0.1,2.2c0,0.6,0,1.2,0,1.8
	c0,0.6,0,1.1,0.1,1.6c0.1,0.5,0.1,0.9,0.2,1.3c0.1,0.4,0.2,0.8,0.3,1.1c0.1,0.3,0.3,0.6,0.5,0.9c0.2,0.3,0.4,0.5,0.7,0.8
	c0.3,0.2,0.6,0.5,0.9,0.6c0.3,0.2,0.7,0.4,1.1,0.5c0.4,0.2,0.9,0.3,1.3,0.4c0.5,0.1,0.9,0.1,1.4,0.2c0.5,0,1,0,1.6,0
	c0.6,0,1.1-0.1,1.7-0.2c0.5-0.1,1.1-0.2,1.6-0.3c0.5-0.1,1-0.3,1.5-0.5c0.5-0.2,0.9-0.4,1.4-0.6c0.4-0.2,0.9-0.5,1.3-0.7
	c0.4-0.3,0.8-0.5,1.1-0.8c0.3-0.3,0.7-0.6,0.9-0.8c0.3-0.3,0.5-0.6,0.7-0.9c0.2-0.3,0.4-0.6,0.5-0.9c0.1-0.3,0.3-0.6,0.4-1
	c0.1-0.4,0.2-0.8,0.3-1.3c0.1-0.5,0.2-0.9,0.2-1.5c0.1-0.5,0.1-1.1,0.1-1.7c0-0.8,0-1.6,0-2.3c0-0.7-0.1-1.3-0.2-1.9
	c-0.1-0.6-0.2-1.1-0.4-1.6c-0.2-0.5-0.4-0.9-0.6-1.2c-0.2-0.3-0.6-0.7-1-1c-0.4-0.4-0.9-0.7-1.5-1.1c-0.6-0.4-1.3-0.8-2.1-1.2
	c-0.8-0.4-1.7-0.8-2.6-1.3c-0.3-0.2-0.6-0.3-0.9-0.5c-0.3-0.1-0.5-0.3-0.7-0.4c-0.2-0.1-0.4-0.3-0.5-0.4c-0.1-0.1-0.2-0.3-0.3-0.4
	c-0.1-0.1-0.1-0.3-0.2-0.5c-0.1-0.2-0.1-0.4-0.1-0.6c0-0.2-0.1-0.4-0.1-0.7c0-0.2,0-0.5,0-0.8c0-0.2,0-0.4,0-0.6
	c0-0.2,0.1-0.4,0.1-0.6c0-0.2,0.1-0.3,0.1-0.5c0.1-0.1,0.1-0.3,0.2-0.4c0.1-0.1,0.2-0.2,0.2-0.3c0.1-0.1,0.2-0.2,0.3-0.2
	c0.1-0.1,0.2-0.1,0.3-0.2c0.1,0,0.2-0.1,0.4-0.1c0.1,0,0.2,0,0.3,0c0.1,0,0.2,0,0.3,0c0.1,0,0.2,0.1,0.2,0.1
	c0.1,0.1,0.1,0.1,0.2,0.2c0.1,0.1,0.1,0.2,0.1,0.3c0,0.1,0.1,0.3,0.1,0.5c0,0.2,0,0.4,0,0.6c0,0.2,0,0.5,0,0.8l-0.1,2.5l8.2-1.3
	l0.1-1.3c0-0.7,0-1.3,0-1.9c0-0.6,0-1.1-0.1-1.6c0-0.5-0.1-0.9-0.2-1.3c-0.1-0.4-0.2-0.7-0.3-1c-0.1-0.3-0.3-0.5-0.5-0.8
	c-0.2-0.2-0.4-0.4-0.7-0.6c-0.3-0.2-0.6-0.4-0.9-0.5c-0.3-0.2-0.7-0.3-1.1-0.4c-0.4-0.1-0.8-0.2-1.3-0.3c-0.4-0.1-0.9-0.1-1.4-0.2
	c-0.5,0-1,0-1.5,0C166.8,56.7,166.2,56.8,165.6,56.8 M142.9,60c0.7-0.1,1.3-0.2,1.9-0.2c0.6-0.1,1.1-0.1,1.6-0.1c0.5,0,1,0,1.4,0
	c0.4,0,0.8,0.1,1.2,0.1c0.3,0.1,0.7,0.1,1,0.2c0.3,0.1,0.6,0.2,0.8,0.3c0.3,0.1,0.5,0.2,0.7,0.4c0.2,0.1,0.4,0.3,0.6,0.5
	c0.2,0.2,0.3,0.3,0.5,0.5c0.1,0.2,0.3,0.4,0.4,0.6c0.1,0.2,0.2,0.4,0.3,0.7c0.1,0.2,0.2,0.5,0.2,0.8c0.1,0.3,0.1,0.6,0.1,0.9
	c0,0.3,0.1,0.7,0.1,1.1c0,0.4,0,0.9,0,1.4c0,0.5,0,1,0,1.6l-0.1,3.2c0,0.6,0,1.1-0.1,1.6c0,0.5-0.1,1-0.2,1.4
	c-0.1,0.4-0.2,0.8-0.3,1.2c-0.1,0.4-0.2,0.7-0.3,1c-0.1,0.3-0.3,0.6-0.5,0.8c-0.2,0.3-0.4,0.5-0.6,0.7c-0.2,0.2-0.5,0.5-0.7,0.7
	c-0.3,0.2-0.6,0.4-0.9,0.6c-0.3,0.2-0.7,0.4-1,0.5c-0.4,0.2-0.8,0.3-1.2,0.5c-0.4,0.1-0.9,0.3-1.3,0.4c-0.5,0.1-1,0.2-1.5,0.3
	l-2.6,0.4L142,96.5l-9.6,1.7l0.7-36.7L142.9,60z M143.2,75.6c0.2,0,0.4-0.1,0.6-0.1c0.2-0.1,0.3-0.1,0.5-0.2
	c0.2-0.1,0.3-0.2,0.4-0.3c0.1-0.1,0.2-0.2,0.3-0.3c0.1-0.1,0.2-0.3,0.2-0.4c0.1-0.2,0.1-0.4,0.2-0.6c0-0.2,0.1-0.5,0.1-0.8
	c0-0.3,0-0.6,0.1-0.9l0.1-3c0-0.3,0-0.6,0-0.9c0-0.3,0-0.5-0.1-0.7c0-0.2-0.1-0.4-0.2-0.5c-0.1-0.1-0.2-0.2-0.2-0.3
	c-0.1-0.1-0.2-0.1-0.4-0.2c-0.1-0.1-0.3-0.1-0.5-0.1c-0.2,0-0.4,0-0.7,0c-0.3,0-0.5,0-0.8,0.1l-0.2,9.3c0.1,0,0.1,0,0.2,0
	c0.1,0,0.1,0,0.2,0c0.1,0,0.1,0,0.2,0C143.1,75.6,143.1,75.6,143.2,75.6 M129.9,61.9l-13,1.9l-2.6,17.8l-1.3-9.3
	c-0.1-0.7-0.2-1.5-0.3-2.2c-0.1-0.7-0.2-1.4-0.3-2c-0.1-0.7-0.2-1.3-0.3-1.9c-0.1-0.6-0.2-1.2-0.3-1.7l-13.3,1.9l-0.2,37.5l8.9-1.5
	l0.3-24.5l3.4,23.8l6.1-1.1l3.8-25.4l-0.4,24.8l8.6-1.5L129.9,61.9z M95,66.9l-17.6,2.5l0.1,38l17.9-3.1l0-7.4L88,98.3l0-8.3l6.4-1
	l0-7.2l-6.5,1l0-7.2l6.9-1L95,66.9z M75,69.8l-23.9,3.4l0.1,7.8l6.5-1l0.3,30.7l10.7-1.8l-0.2-30.5l6.4-0.9L75,69.8z M46.8,35.9
	l0,111.8L3.4,109.4L0,12L123.6,0l59,19.9L46.8,35.9z"/>
</svg>
