<?xml version="1.0" encoding="utf-8"?>
<!-- Generator: Adobe Illustrator 21.1.0, SVG Export Plug-In . SVG Version: 6.00 Build 0)  -->
<svg version="1.1" id="Layer_1" xmlns="http://www.w3.org/2000/svg" xmlns:xlink="http://www.w3.org/1999/xlink" x="0px" y="0px"
	 viewBox="0 0 600 400" style="enable-background:new 0 0 600 400;" xml:space="preserve">
<style type="text/css">
	.st0{fill:#C6C6C6;}
</style>
<path class="st0" d="M267.7,257.5l-7.7,1.3v13.2l7.7-1.4V257.5z M414.7,231.4c-0.6,0.2-1.3,0.2-1.8,0.3c-0.6,0.2-1.1,0.3-1.6,0.5
	c-0.5,0.2-1.1,0.3-1.6,0.6c-0.5,0.2-1,0.5-1.4,0.8c-0.5,0.3-0.8,0.6-1.3,0.8c-0.3,0.3-0.8,0.6-1.1,1c-0.3,0.3-0.6,0.6-1,1.1
	c-0.3,0.3-0.5,0.8-0.6,1.1s-0.5,0.8-0.6,1.3s-0.3,1-0.5,1.6c-0.2,0.6-0.2,1.1-0.3,1.9c0,0.6-0.2,1.4-0.2,2.1c0,0.5,0,1,0,1.4
	s0,1,0.2,1.3c0,0.5,0.2,0.8,0.2,1.1c0.2,0.3,0.2,0.6,0.3,1c0.2,0.3,0.3,0.6,0.5,1c0.2,0.3,0.3,0.5,0.5,0.8c0.2,0.2,0.3,0.5,0.5,0.6
	c0.2,0.2,0.3,0.3,0.6,0.5c0.2,0.2,0.5,0.3,0.8,0.5c0.3,0.2,0.6,0.5,1.1,0.6c0.5,0.2,1,0.5,1.4,0.8c0.5,0.3,1.1,0.5,1.8,0.8
	c0.6,0.3,1.3,0.6,1.8,0.8c0.5,0.3,1,0.5,1.3,0.8c0.3,0.2,0.8,0.5,1,0.6c0.3,0.2,0.5,0.3,0.6,0.5c0.2,0.2,0.3,0.3,0.3,0.6
	c0.2,0.3,0.2,0.5,0.3,1c0,0.3,0.2,0.8,0.2,1.3c0,0.5,0,1,0,1.6c0,0.3,0,0.5,0,0.8s0,0.5-0.2,0.6c0,0.2-0.2,0.3-0.2,0.6
	c0,0.2-0.2,0.3-0.2,0.5c-0.2,0.2-0.2,0.3-0.3,0.5s-0.2,0.2-0.3,0.3s-0.3,0.2-0.5,0.2c-0.2,0-0.3,0.2-0.5,0.2c-0.2,0-0.3,0-0.5,0
	c-0.2,0-0.3,0-0.3,0c-0.2,0-0.2,0-0.3-0.2c-0.2,0-0.2-0.2-0.2-0.2c0-0.2-0.2-0.2-0.2-0.3s0-0.3-0.2-0.6c0-0.2,0-0.5,0-0.8s0-0.6,0-1
	l0.2-4.8l-9.6,1.8l-0.2,2.6c0,0.8,0,1.4,0,2.1c0,0.6,0,1.3,0.2,1.8c0,0.5,0.2,1.1,0.2,1.6c0.2,0.5,0.2,0.8,0.3,1.3
	c0.2,0.3,0.3,0.6,0.5,1.1c0.2,0.3,0.5,0.6,0.8,0.8c0.3,0.3,0.6,0.5,1.1,0.8c0.3,0.2,0.8,0.5,1.3,0.6c0.5,0.2,1,0.3,1.6,0.3
	c0.5,0.2,1.1,0.2,1.6,0.2c0.6,0,1.3,0,1.8,0c0.6,0,1.3-0.2,1.9-0.3s1.3-0.3,1.8-0.5c0.6-0.2,1.1-0.3,1.8-0.6
	c0.5-0.2,1.1-0.5,1.6-0.8s1-0.5,1.4-0.8c0.5-0.3,1-0.6,1.3-1c0.5-0.3,0.8-0.6,1.1-1s0.6-0.6,0.8-1c0.3-0.3,0.5-0.6,0.6-1.1
	c0.2-0.3,0.3-0.8,0.5-1.3c0.2-0.5,0.3-1,0.3-1.4c0.2-0.5,0.2-1.1,0.3-1.8c0-0.6,0.2-1.3,0.2-1.9c0-1,0-1.8,0-2.7
	c0-0.8-0.2-1.6-0.3-2.2c-0.2-0.6-0.3-1.3-0.5-1.8c-0.2-0.5-0.5-1-0.8-1.3c-0.3-0.3-0.6-0.8-1.1-1.1c-0.5-0.5-1.1-0.8-1.8-1.3
	c-0.6-0.5-1.4-0.8-2.4-1.3s-1.9-1-3.1-1.4c-0.3-0.2-0.8-0.3-1.1-0.5c-0.3-0.2-0.6-0.3-0.8-0.5c-0.2-0.2-0.5-0.3-0.6-0.5
	c-0.2-0.2-0.3-0.3-0.3-0.5c-0.2-0.2-0.2-0.3-0.2-0.5c0-0.2-0.2-0.5-0.2-0.6s0-0.5,0-0.8c0-0.3,0-0.6,0-1s0-0.5,0-0.8
	c0-0.2,0-0.5,0.2-0.6c0-0.2,0.2-0.3,0.2-0.6c0-0.2,0.2-0.3,0.2-0.5c0.2-0.2,0.2-0.3,0.3-0.3c0.2-0.2,0.2-0.2,0.3-0.3
	s0.3-0.2,0.3-0.2c0.2,0,0.3-0.2,0.5-0.2c0.2,0,0.3,0,0.3,0c0.2,0,0.2,0,0.3,0s0.2,0,0.3,0.2c0.2,0,0.2,0.2,0.2,0.2
	c0,0.2,0.2,0.2,0.2,0.3s0,0.3,0.2,0.5c0,0.2,0,0.5,0,0.8c0,0.3,0,0.6,0,1l-0.2,2.9l9.6-1.8v-1.6c0-0.8,0-1.4,0-2.2
	c0-0.6,0-1.3-0.2-1.8c0-0.5-0.2-1-0.2-1.4c-0.2-0.5-0.2-0.8-0.3-1.1c-0.2-0.3-0.3-0.6-0.5-0.8c-0.2-0.3-0.5-0.5-0.8-0.6
	s-0.6-0.5-1-0.6c-0.3-0.2-0.8-0.3-1.3-0.5c-0.5-0.2-1-0.3-1.4-0.3s-1.1-0.2-1.6-0.2c-0.6,0-1.1,0-1.8,0
	C416,231.1,415.4,231.3,414.7,231.4 M401.1,234.5l-17.7,3.2l-1.1,40.2l18.3-3.5l0.3-7.9l-7.7,1.4l0.3-8.7l6.6-1.3l0.3-7.6l-6.6,1.1
	l0.2-7.6l7.1-1.3L401.1,234.5z M367.5,239.5c-0.8,0.2-1.6,0.3-2.4,0.5c-0.8,0.2-1.4,0.5-2.1,0.8c-0.6,0.3-1.3,0.6-1.9,1
	s-1.1,0.8-1.6,1.3c-0.5,0.5-1,1-1.4,1.4c-0.5,0.5-0.8,1-1.1,1.4s-0.6,1-0.8,1.4c-0.2,0.5-0.3,1-0.5,1.4c-0.2,0.5-0.2,1-0.3,1.6
	c-0.2,0.6-0.2,1.3-0.3,1.9c0,0.6-0.2,1.4-0.2,2.4c0,0.8,0,1.8-0.2,2.7l-0.2,12.1c0,0.6,0,1.3,0,1.9c0,0.6,0,1.1,0,1.6
	c0,0.5,0,1,0,1.4c0,0.5,0,0.8,0.2,1.1c0,0.3,0.2,0.6,0.2,1c0.2,0.3,0.2,0.6,0.3,1c0.2,0.3,0.3,0.6,0.5,1c0.2,0.3,0.3,0.6,0.5,0.8
	c0.2,0.3,0.5,0.5,0.6,0.8c0.3,0.3,0.5,0.5,0.8,0.6s0.6,0.3,1,0.5c0.3,0.2,0.6,0.3,1.1,0.5c0.3,0.2,0.8,0.3,1.1,0.3
	c0.3,0.2,0.8,0.2,1.3,0.2c0.5,0,0.8,0,1.3,0c0.5,0,0.8-0.2,1.3-0.2c0.3-0.2,0.8-0.2,1.1-0.3c0.3-0.2,0.6-0.2,1-0.3
	c0.3-0.2,0.6-0.3,1-0.5c0.3-0.2,0.6-0.3,0.8-0.6c0.3-0.2,0.5-0.5,0.8-0.6c0.3-0.3,0.5-0.5,0.8-0.8c0.2-0.3,0.5-0.6,0.6-1
	s0.5-0.6,0.6-1l1,2.7l6.7-1.3l0.6-21.5l-12.7,2.2l-0.2,6.1l2.2-0.3l-0.2,4.8c0,0.5,0,1,0,1.3c0,0.3,0,0.8-0.2,1.1
	c0,0.3-0.2,0.6-0.2,0.8c0,0.3-0.2,0.5-0.2,0.6s-0.2,0.3-0.3,0.5c-0.2,0.2-0.2,0.3-0.3,0.3c-0.2,0.2-0.3,0.2-0.5,0.3
	c-0.2,0-0.3,0.2-0.5,0.2c-0.2,0-0.3,0-0.5,0s-0.3,0-0.3-0.2c-0.2,0-0.2-0.2-0.3-0.2c-0.2-0.2-0.2-0.2-0.2-0.3c0-0.2-0.2-0.3-0.2-0.5
	s0-0.5-0.2-0.8c0-0.3,0-0.6,0-1c0-0.3,0-0.8,0-1.3l0.5-19.4c0-0.5,0-1,0-1.4s0-0.8,0.2-1.1c0-0.3,0.2-0.6,0.2-0.8
	c0-0.2,0.2-0.5,0.2-0.5c0-0.2,0.2-0.3,0.2-0.3c0.2-0.2,0.2-0.2,0.3-0.3s0.2-0.2,0.3-0.2s0.3-0.2,0.5-0.2c0.2,0,0.3,0,0.5,0
	c0.2,0,0.3,0,0.5,0.2c0.2,0,0.2,0.2,0.3,0.2c0.2,0.2,0.2,0.2,0.2,0.3s0.2,0.3,0.2,0.6s0,0.5,0,1c0,0.3,0,0.8,0,1.3s0,1,0,1.6
	l-0.2,3.7l10.8-1.9v-1.8c0-0.8,0-1.6,0-2.2c0-0.8,0-1.4-0.2-2.1c0-0.6-0.2-1.1-0.3-1.8c-0.2-0.5-0.2-1-0.3-1.4s-0.3-0.8-0.6-1.1
	c-0.2-0.3-0.5-0.6-0.8-1s-0.6-0.6-1.1-1c-0.5-0.3-1-0.5-1.4-0.8c-0.5-0.2-1.1-0.5-1.6-0.5c-0.6-0.2-1.1-0.2-1.9-0.3
	c-0.6,0-1.3,0-2.1,0C368.9,239.3,368.3,239.5,367.5,239.5 M352.7,283.5l-11.2,2.1l-0.5-7.1l-4,0.8l-0.8,7.4l-11.6,2.2l6.3-42.1
	l16.2-2.7L352.7,283.5z M340.8,271.3c-0.2-1.1-0.3-2.2-0.3-3.5c-0.2-1.3-0.2-2.6-0.3-4s-0.2-2.9-0.3-4.5s-0.2-3.2-0.3-4.8
	c-0.3,2.1-0.6,3.9-0.8,5.6c-0.3,1.8-0.5,3.4-0.6,4.8c-0.2,1.4-0.3,2.7-0.5,4c-0.2,1.1-0.3,2.2-0.3,3.2L340.8,271.3z M322.7,248.1
	l-14.9,2.6l-2.7,19.9l-1.6-10.3c-0.2-0.8-0.2-1.6-0.3-2.4c-0.2-0.8-0.2-1.6-0.3-2.2c-0.2-0.6-0.2-1.4-0.3-2.1s-0.2-1.3-0.3-1.9
	l-15.1,2.6V296l10.1-1.9l0.2-27.3l4.2,26.5l7.1-1.3l4.2-28.6l-0.2,27.8l10-1.9L322.7,248.1z M283.3,254.9l-11.9,2.1l0.2,42.1
	l11.7-2.2V254.9z M238,262.8c1.4-0.3,2.9-0.5,4-0.6c1.3-0.2,2.4-0.3,3.4-0.5c1-0.2,1.9-0.2,2.6-0.2c0.8,0,1.4,0,1.9,0
	c0.5,0,1,0.2,1.4,0.2c0.5,0.2,0.8,0.2,1.3,0.3c0.3,0.2,0.8,0.3,1.1,0.5s0.6,0.3,1,0.6c0.3,0.2,0.5,0.5,0.8,0.8
	c0.2,0.3,0.5,0.5,0.6,0.8c0.2,0.3,0.3,0.6,0.5,1s0.2,0.6,0.3,1c0,0.3,0.2,0.8,0.2,1.3c0,0.5,0.2,1.1,0.2,1.8c0,0.6,0,1.4,0.2,2.2
	c0,0.8,0,1.8,0,2.7l0.2,14.8c0,1,0,1.8,0,2.6c0,0.8,0,1.4-0.2,2.1c0,0.6-0.2,1.1-0.2,1.8c0,0.5-0.2,1-0.3,1.3
	c-0.2,0.3-0.2,0.6-0.3,1c-0.2,0.3-0.3,0.6-0.5,0.8c-0.2,0.3-0.3,0.5-0.5,0.8c-0.2,0.3-0.5,0.5-0.6,0.6c-0.3,0.2-0.5,0.5-0.8,0.6
	c-0.3,0.2-0.5,0.3-0.8,0.6c-0.3,0.2-0.6,0.3-1,0.5c-0.3,0.2-0.6,0.3-1,0.5c-0.3,0.2-0.8,0.3-1.3,0.5c-0.5,0.2-1,0.3-1.4,0.5
	c-0.5,0.2-1.1,0.3-1.8,0.5c-0.6,0.2-1.3,0.3-2.1,0.5l-15.4,2.9l-0.6-43.1L238,262.8z M241.5,297.6c0.5-0.2,0.8-0.2,1.1-0.3
	c0.3-0.2,0.6-0.2,1-0.3s0.5-0.3,0.6-0.5c0.2-0.2,0.3-0.3,0.5-0.5c0.2-0.2,0.2-0.5,0.3-0.8c0-0.3,0.2-0.6,0.2-1.1
	c0-0.5,0.2-1,0.2-1.4c0-0.6,0-1.3,0-1.9l-0.2-16.5c0-0.5,0-1,0-1.3c0-0.3,0-0.8,0-1.1c0-0.3,0-0.6,0-0.8s0-0.3-0.2-0.5
	c0-0.2-0.2-0.3-0.2-0.3c0-0.2-0.2-0.2-0.2-0.3s-0.2-0.2-0.3-0.2c-0.2,0-0.2-0.2-0.3-0.2s-0.3,0-0.5-0.2c-0.2,0-0.3,0-0.6,0
	c-0.2,0-0.5,0-0.8,0c-0.3,0-0.6,0.2-1,0.2L241.5,297.6z M424.1,124.7L413,126l-1.4,43.1l17.5-2.6l0.3-8.5l-6.6,1L424.1,124.7z
	 M409.1,169.6l-11.2,1.6l-0.3-7.6l-4,0.5l-0.8,7.9l-11.6,1.6l6.9-44.3l16.2-1.9L409.1,169.6z M397.4,155.9c-0.2-1.3-0.2-2.4-0.3-3.9
	c-0.2-1.3-0.2-2.7-0.3-4.3c-0.2-1.4-0.2-3.1-0.3-4.7c-0.2-1.6-0.2-3.4-0.3-5.1c-0.3,2.1-0.6,4.2-1,5.9c-0.3,1.8-0.5,3.5-0.8,5.1
	c-0.2,1.6-0.5,2.9-0.6,4.2s-0.3,2.4-0.5,3.4L397.4,155.9z M382.9,129.7l-12.1,1.4l-1,8.4c-0.2,1.6-0.3,3.4-0.6,5.1
	c-0.2,1.8-0.5,3.7-0.6,5.6s-0.5,3.9-0.6,5.9c-0.2,2.1-0.3,4.2-0.6,6.3c-0.2-2.1-0.2-4.3-0.3-6.6c-0.2-2.2-0.3-4.7-0.5-7.2
	s-0.5-5.1-0.6-8c-0.2-2.7-0.5-5.6-0.8-8.7l-12.4,1.4l5.9,43.2l17.4-2.4L382.9,129.7z M350.3,133.7l-11.7,1.4l-0.6,44.5l11.7-1.6
	L350.3,133.7z M335,135.7l-26.4,3.2v9.2l7.2-1l-0.3,35.8l11.9-1.8l0.5-35.7l7.1-1L335,135.7z M291.7,139.8c-0.8,0.2-1.4,0.2-2.1,0.3
	c-0.6,0.2-1.3,0.3-1.9,0.5c-0.6,0.2-1.3,0.5-1.8,0.6c-0.6,0.3-1.1,0.5-1.6,0.8c-0.5,0.3-1,0.6-1.4,1c-0.5,0.3-0.8,0.6-1.3,1.1
	c-0.3,0.3-0.8,0.8-1,1.1c-0.3,0.5-0.6,0.8-0.8,1.3s-0.5,1-0.6,1.4c-0.2,0.5-0.3,1.1-0.5,1.8c-0.2,0.6-0.2,1.4-0.3,2.1
	c0,0.8-0.2,1.6-0.2,2.4c0,0.6,0,1.1,0,1.8c0,0.5,0.2,1.1,0.2,1.6c0.2,0.5,0.2,1,0.3,1.4c0.2,0.5,0.3,0.8,0.5,1.1
	c0.2,0.3,0.3,0.6,0.5,1.1c0.2,0.3,0.3,0.6,0.6,1c0.2,0.3,0.5,0.5,0.6,0.8c0.2,0.2,0.5,0.5,0.8,0.6s0.6,0.3,1,0.6
	c0.3,0.2,0.8,0.5,1.3,0.8c0.5,0.3,1.1,0.6,1.8,1c0.6,0.3,1.3,0.6,2.1,1.1c0.8,0.3,1.4,0.8,2.1,1.1c0.6,0.3,1.1,0.6,1.6,1
	c0.5,0.3,1,0.5,1.3,0.8c0.3,0.2,0.6,0.5,0.8,0.6s0.3,0.5,0.5,0.6c0.2,0.3,0.3,0.6,0.3,1.1c0.2,0.5,0.2,1,0.2,1.4c0,0.5,0,1.1,0,1.8
	c0,0.3,0,0.6,0,0.8c0,0.3,0,0.5-0.2,0.8c0,0.2-0.2,0.5-0.2,0.6s-0.2,0.3-0.3,0.5s-0.2,0.3-0.3,0.5c-0.2,0.2-0.3,0.3-0.5,0.3
	c-0.2,0.2-0.3,0.2-0.5,0.3c-0.2,0-0.3,0.2-0.6,0.2c-0.2,0-0.3,0-0.6,0c-0.2,0-0.3,0-0.5,0s-0.3-0.2-0.3-0.2c-0.2,0-0.2-0.2-0.3-0.3
	c-0.2-0.2-0.2-0.3-0.2-0.5s-0.2-0.5-0.2-0.6c0-0.3,0-0.6-0.2-1c0-0.3,0-0.8,0-1.1v-5.5l-11.6,1.6v3.1c0,0.8,0,1.6,0,2.4
	c0,0.8,0.2,1.4,0.2,2.1c0.2,0.6,0.2,1.3,0.3,1.8s0.3,1,0.5,1.4c0.2,0.5,0.5,0.8,0.6,1.3c0.3,0.3,0.6,0.8,1,1.1s0.8,0.6,1.3,1
	c0.5,0.3,1,0.5,1.6,0.6c0.6,0.2,1.3,0.3,1.8,0.5c0.6,0.2,1.3,0.2,2.1,0.3c0.6,0,1.4,0,2.2,0c0.8,0,1.6-0.2,2.4-0.2
	c0.8-0.2,1.4-0.2,2.2-0.5c0.6-0.2,1.4-0.3,2.1-0.6c0.6-0.2,1.3-0.5,1.9-0.8s1.1-0.6,1.8-1c0.6-0.3,1.1-0.6,1.6-1
	c0.5-0.3,1-0.6,1.3-1.1c0.3-0.3,0.6-0.8,1-1.1c0.3-0.3,0.5-0.8,0.8-1.1c0.2-0.3,0.3-0.8,0.5-1.3c0.2-0.5,0.3-1.1,0.3-1.6
	c0.2-0.6,0.2-1.3,0.2-1.9c0-0.6,0.2-1.4,0.2-2.2c0-1.1,0-2.1-0.2-3.1c-0.2-1-0.2-1.8-0.3-2.6c-0.2-0.8-0.3-1.4-0.6-2.1
	c-0.3-0.6-0.6-1.1-1-1.6c-0.3-0.5-0.8-1-1.4-1.4c-0.6-0.5-1.3-1-2.2-1.6c-0.8-0.5-1.9-1.1-2.9-1.6c-1.1-0.6-2.4-1.1-3.7-1.8
	c-0.5-0.2-1-0.5-1.3-0.6c-0.3-0.2-0.8-0.3-1-0.6c-0.3-0.2-0.5-0.3-0.8-0.6c-0.2-0.2-0.3-0.3-0.5-0.5c-0.2-0.2-0.2-0.3-0.3-0.6
	c-0.2-0.2-0.2-0.5-0.2-0.8c0-0.3-0.2-0.6-0.2-1c0-0.3,0-0.6,0-1.1c0-0.3,0-0.6,0-0.8c0-0.3,0-0.5,0.2-0.8c0-0.2,0.2-0.5,0.2-0.6
	s0.2-0.3,0.3-0.5s0.2-0.3,0.3-0.5c0.2-0.2,0.3-0.2,0.3-0.3c0.2-0.2,0.3-0.2,0.5-0.2s0.3-0.2,0.5-0.2c0.2,0,0.3,0,0.5,0s0.3,0,0.5,0
	c0.2,0,0.2,0.2,0.3,0.2s0.2,0.2,0.3,0.3c0,0.2,0.2,0.2,0.2,0.5c0,0.2,0.2,0.3,0.2,0.6c0,0.3,0,0.5,0.2,0.8c0,0.3,0,0.6,0,1.1v3.4
	l11.4-1.4v-1.8c0-1,0-1.8,0-2.6c0-0.8-0.2-1.4-0.2-2.1c-0.2-0.6-0.2-1.1-0.3-1.6c-0.2-0.5-0.3-1-0.5-1.3c-0.2-0.3-0.5-0.6-0.6-1
	c-0.3-0.3-0.6-0.6-1-0.8c-0.3-0.3-0.8-0.5-1.3-0.8c-0.5-0.2-1-0.5-1.6-0.6c-0.5-0.2-1.1-0.3-1.8-0.5c-0.6-0.2-1.3-0.2-1.9-0.2
	c-0.6,0-1.4,0-2.1,0C293.3,139.7,292.5,139.8,291.7,139.8 M274.1,143l-21.2,2.6l0.3,46.1l21.7-3.1v-9.2l-9.2,1.3v-10l7.9-1.1V161
	l-7.9,1v-8.7l8.4-1.1V143z M249.1,146.1l-22,2.7l0.6,46.6l12.9-1.8l-0.2-19.3l7.9-1.1v-8.8l-8,1l-0.2-8.8l9-1.1L249.1,146.1z
	 M411.7,172.5c-0.8,0.2-1.6,0.3-2.4,0.5c-0.8,0.2-1.6,0.3-2.2,0.6c-0.8,0.3-1.4,0.5-2.1,0.8c-0.6,0.3-1.3,0.6-1.9,1
	c-0.6,0.3-1.1,0.8-1.8,1.1c-0.5,0.5-1,0.8-1.4,1.3s-0.8,1-1.3,1.4c-0.3,0.5-0.6,1-1,1.6c-0.3,0.5-0.5,1.1-0.8,1.8
	c-0.2,0.6-0.5,1.4-0.6,2.2c-0.2,0.8-0.3,1.6-0.3,2.6c-0.2,1-0.2,1.9-0.2,3.1c0,0.8,0,1.4,0,2.1c0,0.6,0.2,1.3,0.2,1.9
	s0.2,1.1,0.3,1.6s0.3,1,0.5,1.4c0.2,0.5,0.3,0.8,0.6,1.3c0.2,0.3,0.5,0.8,0.6,1.1c0.2,0.3,0.5,0.6,0.8,1c0.3,0.3,0.5,0.5,0.8,0.8
	c0.3,0.2,0.6,0.5,1.1,0.8s1,0.6,1.4,1c0.6,0.3,1.3,0.6,1.9,1.1c0.6,0.3,1.4,0.8,2.4,1.3c0.8,0.5,1.6,0.8,2.4,1.3
	c0.6,0.3,1.3,0.8,1.9,1.1c0.5,0.3,1,0.6,1.4,1c0.3,0.3,0.6,0.5,1,0.6c0.2,0.2,0.3,0.5,0.5,0.8c0.2,0.3,0.3,0.8,0.3,1.3
	c0.2,0.5,0.2,1.1,0.2,1.8s0,1.4,0,2.2c0,0.3,0,0.6,0,1c0,0.3-0.2,0.6-0.2,1s-0.2,0.5-0.3,0.8s-0.2,0.5-0.3,0.6s-0.3,0.3-0.5,0.5
	c-0.2,0.2-0.3,0.3-0.5,0.5c-0.2,0.2-0.3,0.2-0.6,0.3c-0.2,0.2-0.5,0.2-0.6,0.2c-0.2,0-0.5,0-0.6,0s-0.3,0-0.5,0
	c-0.2,0-0.3-0.2-0.5-0.2c-0.2-0.2-0.2-0.2-0.3-0.3s-0.2-0.3-0.2-0.5c0-0.2-0.2-0.5-0.2-0.8s0-0.6,0-1.1c0-0.5,0-1,0-1.4l0.2-6.6
	l-13.3,2.1l-0.2,3.5c0,1,0,1.9,0,2.9c0,1,0,1.8,0.2,2.6c0.2,0.8,0.2,1.4,0.3,2.1c0.2,0.6,0.3,1.3,0.5,1.8c0.2,0.5,0.5,1,0.8,1.4
	s0.6,0.8,1.1,1.3c0.5,0.3,1,0.8,1.4,1c0.5,0.3,1.1,0.6,1.8,0.8c0.6,0.3,1.4,0.5,2.1,0.6c0.8,0.2,1.4,0.2,2.2,0.3c0.8,0,1.6,0,2.6,0
	s1.8-0.2,2.7-0.3c0.8-0.2,1.8-0.3,2.6-0.5c0.8-0.2,1.6-0.5,2.4-0.8c0.8-0.3,1.4-0.6,2.2-1c0.6-0.3,1.4-0.8,2.1-1.1
	c0.6-0.5,1.3-0.8,1.8-1.3c0.5-0.5,1.1-1,1.4-1.3c0.5-0.5,0.8-1,1.1-1.4c0.3-0.5,0.6-1,0.8-1.4c0.2-0.5,0.5-1,0.6-1.6
	c0.2-0.6,0.3-1.3,0.5-2.1c0.2-0.8,0.3-1.4,0.3-2.4c0.2-0.8,0.2-1.8,0.2-2.7c0-1.3,0-2.6,0-3.7c0-1.1-0.2-2.1-0.3-3.1
	c-0.2-1-0.3-1.8-0.6-2.6s-0.6-1.4-1-1.9c-0.3-0.5-1-1.1-1.6-1.6c-0.6-0.6-1.4-1.1-2.4-1.8c-1-0.6-2.1-1.3-3.4-1.9
	c-1.3-0.6-2.7-1.3-4.2-2.1c-0.5-0.3-1-0.5-1.4-0.8c-0.5-0.2-0.8-0.5-1.1-0.6c-0.3-0.2-0.6-0.5-0.8-0.6c-0.2-0.2-0.3-0.5-0.5-0.6
	s-0.2-0.5-0.3-0.8c-0.2-0.3-0.2-0.6-0.2-1c0-0.3-0.2-0.6-0.2-1.1c0-0.3,0-0.8,0-1.3c0-0.3,0-0.6,0-1s0.2-0.6,0.2-1
	c0-0.3,0.2-0.5,0.2-0.8c0.2-0.2,0.2-0.5,0.3-0.6s0.3-0.3,0.3-0.5c0.2-0.2,0.3-0.3,0.5-0.3c0.2-0.2,0.3-0.2,0.5-0.3
	c0.2,0,0.3-0.2,0.6-0.2c0.2,0,0.3,0,0.5,0s0.3,0,0.5,0c0.2,0,0.3,0.2,0.3,0.2c0.2,0.2,0.2,0.2,0.3,0.3c0.2,0.2,0.2,0.3,0.2,0.5
	s0.2,0.5,0.2,0.8c0,0.3,0,0.6,0,1c0,0.3,0,0.8,0,1.3l-0.2,4l13.2-2.1l0.2-2.1c0-1.1,0-2.1,0-3.1s0-1.8-0.2-2.6
	c0-0.8-0.2-1.4-0.3-2.1c-0.2-0.6-0.3-1.1-0.5-1.6c-0.2-0.5-0.5-0.8-0.8-1.3c-0.3-0.3-0.6-0.6-1.1-1c-0.5-0.3-1-0.6-1.4-0.8
	c-0.5-0.3-1.1-0.5-1.8-0.6c-0.6-0.2-1.3-0.3-2.1-0.5c-0.6-0.2-1.4-0.2-2.2-0.3c-0.8,0-1.6,0-2.4,0
	C413.6,172.3,412.6,172.5,411.7,172.5 M375.2,177.6c1.1-0.2,2.1-0.3,3.1-0.3c1-0.2,1.8-0.2,2.6-0.2c0.8,0,1.6,0,2.2,0
	s1.3,0.2,1.9,0.2c0.5,0.2,1.1,0.2,1.6,0.3c0.5,0.2,1,0.3,1.3,0.5c0.5,0.2,0.8,0.3,1.1,0.6c0.3,0.2,0.6,0.5,1,0.8
	c0.3,0.3,0.5,0.5,0.8,0.8c0.2,0.3,0.5,0.6,0.6,1s0.3,0.6,0.5,1.1c0.2,0.3,0.3,0.8,0.3,1.3c0.2,0.5,0.2,1,0.2,1.4
	c0,0.5,0.2,1.1,0.2,1.8c0,0.6,0,1.4,0,2.2c0,0.8,0,1.6,0,2.6l-0.2,5.1c0,1,0,1.8-0.2,2.6c0,0.8-0.2,1.6-0.3,2.2
	c-0.2,0.6-0.3,1.3-0.5,1.9c-0.2,0.6-0.3,1.1-0.5,1.6c-0.2,0.5-0.5,1-0.8,1.3c-0.3,0.5-0.6,0.8-1,1.1c-0.3,0.3-0.8,0.8-1.1,1.1
	c-0.5,0.3-1,0.6-1.4,1c-0.5,0.3-1.1,0.6-1.6,0.8c-0.6,0.3-1.3,0.5-1.9,0.8c-0.6,0.2-1.4,0.5-2.1,0.6c-0.8,0.2-1.6,0.3-2.4,0.5
	l-4.2,0.6l-0.6,23.1l-15.4,2.7l1.1-59L375.2,177.6z M375.7,202.7c0.3,0,0.6-0.2,1-0.2c0.3-0.2,0.5-0.2,0.8-0.3
	c0.3-0.2,0.5-0.3,0.6-0.5c0.2-0.2,0.3-0.3,0.5-0.5c0.2-0.2,0.3-0.5,0.3-0.6c0.2-0.3,0.2-0.6,0.3-1c0-0.3,0.2-0.8,0.2-1.3
	s0-1,0.2-1.4l0.2-4.8c0-0.5,0-1,0-1.4s0-0.8-0.2-1.1c0-0.3-0.2-0.6-0.3-0.8s-0.3-0.3-0.3-0.5c-0.2-0.2-0.3-0.2-0.6-0.3
	c-0.2-0.2-0.5-0.2-0.8-0.2s-0.6,0-1.1,0c-0.5,0-0.8,0-1.3,0.2l-0.3,14.9c0.2,0,0.2,0,0.3,0c0.2,0,0.2,0,0.3,0c0.2,0,0.2,0,0.3,0
	C375.5,202.7,375.5,202.7,375.7,202.7 M354.3,180.6l-20.9,3.1l-4.2,28.6l-2.1-14.9c-0.2-1.1-0.3-2.4-0.5-3.5
	c-0.2-1.1-0.3-2.2-0.5-3.2c-0.2-1.1-0.3-2.1-0.5-3.1c-0.2-1-0.3-1.9-0.5-2.7l-21.4,3.1l-0.3,60.3l14.3-2.4l0.5-39.4l5.5,38.2
	l9.8-1.8l6.1-40.8l-0.6,39.8l13.8-2.4L354.3,180.6z M298.2,188.7l-28.3,4l0.2,61.1l28.8-5v-11.9l-11.9,2.2v-13.3l10.3-1.6v-11.6
	l-10.4,1.6v-11.6l11.1-1.6L298.2,188.7z M266.1,193.3l-38.4,5.5l0.2,12.5l10.4-1.6l0.5,49.3l17.2-2.9l-0.3-49l10.3-1.4L266.1,193.3z
	 M220.8,138.9v179.6L151.1,257l-5.5-156.5l198.6-19.3l94.8,32L220.8,138.9z"/>
</svg>
