<svg version="1.1" xmlns="http://www.w3.org/2000/svg" viewBox="0 0 211.5 216.9">
<path fill='#ffffff' d="M185.9,174.3c-3.4,8.5-32.7,30-37.4,24.8c1.2-1.1,2.4-2.1,3.4-3.1c30.1-66.2,24.6-127.8-22.9-184.9
	c-28.8,13.8-57.3,27.4-86,41.1c6.5,13.8,12.6,27,19,40.6c-4.3,1.3-6.6,2-10.9,3.2c0.8,4.9,1.7,10,2.7,15.6c4.2-0.4,7.5-0.8,12.3-1.3
	c0,7.5,0,14.1,0,23.1c-9.6-2.6-17.9-4.7-26.1-6.9c-1.3,5.6,11.3,18.3,21,20.7c0.8,8.2-17.7,33.2-26.7,36.1
	C9.9,166.5-7,110.8,2.8,79.8c16.5-52.1,57-80,104.7-79.8c44.1,0.2,80.8,30.1,94.6,62.8c7.8,18.3,11.3,37,8.4,56.9
	C207.6,139,199.9,156,185.9,174.3z M70.2,60.1c5.6,24.2,11,47.3,16.7,71.7c11.1,1.9,20.1-8.2,31.6-13c-4.5,15.2-16,23-28.8,28.3
	c-7,2.9-13.3,4.7-11.8,14.1c-1.3,0.8-2.6,1.5-3.8,2.1c0.4,0.3,0.8,0.7,1.2,1c-7.4,9.7-14.7,19.5-22.2,29.3c0.9,0.1,2.1,0,3.1,0.4
	c16.4,7.5,32.6,15.3,49.2,22.4c2.3,1,7.7-0.4,9-2.4c7.1-10.7,13.2-22.1,20-33.1c10.1-16.4,15.4-34.6,17.1-53.3
	c3.2-34.7-7.6-65.8-29-93.9C104.5,42.9,86.5,51.9,70.2,60.1z M117.2,81c-7.2,0.3-11.8-4.5-11.6-12.4c0.2-6.8,3.3-12.1,10.7-12.7
	c8.1-0.7,13.7,4.8,13.9,12.5C130.2,75.9,125.3,80.7,117.2,81z"/>
</svg>
