<svg version="1.1" xmlns="http://www.w3.org/2000/svg" viewBox="0 0 89.8 89.8">
<path fill='#000000' d="M45.4,22.3c-12.5-0.1-22.6,9.9-22.8,22.3C22.5,57.1,32.5,67.3,45,67.4c12.5,0.1,22.6-9.9,22.8-22.3
	C67.9,32.6,57.9,22.4,45.4,22.3z M45.1,56.3c-6.3-0.1-11.4-5.2-11.3-11.5c0.1-6.3,5.2-11.4,11.5-11.3c6.3,0.1,11.4,5.2,11.3,11.5
	C56.5,51.3,51.4,56.3,45.1,56.3z M44.9,0c-0.1,0-0.1,0-0.2,0v0H15.8H6.3H3.7C1.7,0,0,1.7,0,3.7V6v7.4v31.5
	c0,24.8,20.1,44.9,44.9,44.9s44.9-20.1,44.9-44.9C89.8,20.1,69.7,0,44.9,0z M14,44.3c0.2-17.2,14.2-31,31.5-30.9
	c17.2,0.2,31,14.2,30.9,31.5c-0.2,17.2-14.2,31-31.5,30.9C27.7,75.6,13.9,61.5,14,44.3z"/>
</svg>
